%TF.GenerationSoftware,KiCad,Pcbnew,9.0.6*%
%TF.CreationDate,2026-03-06T21:15:41+03:00*%
%TF.ProjectId,testsan_V2,74657374-7361-46e5-9f56-322e6b696361,rev?*%
%TF.SameCoordinates,Original*%
%TF.FileFunction,Legend,Top*%
%TF.FilePolarity,Positive*%
%FSLAX46Y46*%
G04 Gerber Fmt 4.6, Leading zero omitted, Abs format (unit mm)*
G04 Created by KiCad (PCBNEW 9.0.6) date 2026-03-06 21:15:41*
%MOMM*%
%LPD*%
G01*
G04 APERTURE LIST*
%ADD10C,0.100000*%
%ADD11C,0.120000*%
G04 APERTURE END LIST*
D10*
X98213942Y-109277380D02*
X98166323Y-109325000D01*
X98166323Y-109325000D02*
X98023466Y-109372619D01*
X98023466Y-109372619D02*
X97928228Y-109372619D01*
X97928228Y-109372619D02*
X97785371Y-109325000D01*
X97785371Y-109325000D02*
X97690133Y-109229761D01*
X97690133Y-109229761D02*
X97642514Y-109134523D01*
X97642514Y-109134523D02*
X97594895Y-108944047D01*
X97594895Y-108944047D02*
X97594895Y-108801190D01*
X97594895Y-108801190D02*
X97642514Y-108610714D01*
X97642514Y-108610714D02*
X97690133Y-108515476D01*
X97690133Y-108515476D02*
X97785371Y-108420238D01*
X97785371Y-108420238D02*
X97928228Y-108372619D01*
X97928228Y-108372619D02*
X98023466Y-108372619D01*
X98023466Y-108372619D02*
X98166323Y-108420238D01*
X98166323Y-108420238D02*
X98213942Y-108467857D01*
X98594895Y-108467857D02*
X98642514Y-108420238D01*
X98642514Y-108420238D02*
X98737752Y-108372619D01*
X98737752Y-108372619D02*
X98975847Y-108372619D01*
X98975847Y-108372619D02*
X99071085Y-108420238D01*
X99071085Y-108420238D02*
X99118704Y-108467857D01*
X99118704Y-108467857D02*
X99166323Y-108563095D01*
X99166323Y-108563095D02*
X99166323Y-108658333D01*
X99166323Y-108658333D02*
X99118704Y-108801190D01*
X99118704Y-108801190D02*
X98547276Y-109372619D01*
X98547276Y-109372619D02*
X99166323Y-109372619D01*
X100023466Y-108705952D02*
X100023466Y-109372619D01*
X99785371Y-108325000D02*
X99547276Y-109039285D01*
X99547276Y-109039285D02*
X100166323Y-109039285D01*
X53874333Y-83635680D02*
X53826714Y-83683300D01*
X53826714Y-83683300D02*
X53683857Y-83730919D01*
X53683857Y-83730919D02*
X53588619Y-83730919D01*
X53588619Y-83730919D02*
X53445762Y-83683300D01*
X53445762Y-83683300D02*
X53350524Y-83588061D01*
X53350524Y-83588061D02*
X53302905Y-83492823D01*
X53302905Y-83492823D02*
X53255286Y-83302347D01*
X53255286Y-83302347D02*
X53255286Y-83159490D01*
X53255286Y-83159490D02*
X53302905Y-82969014D01*
X53302905Y-82969014D02*
X53350524Y-82873776D01*
X53350524Y-82873776D02*
X53445762Y-82778538D01*
X53445762Y-82778538D02*
X53588619Y-82730919D01*
X53588619Y-82730919D02*
X53683857Y-82730919D01*
X53683857Y-82730919D02*
X53826714Y-82778538D01*
X53826714Y-82778538D02*
X53874333Y-82826157D01*
X54826714Y-83730919D02*
X54255286Y-83730919D01*
X54541000Y-83730919D02*
X54541000Y-82730919D01*
X54541000Y-82730919D02*
X54445762Y-82873776D01*
X54445762Y-82873776D02*
X54350524Y-82969014D01*
X54350524Y-82969014D02*
X54255286Y-83016633D01*
X86225142Y-83166180D02*
X86177523Y-83213800D01*
X86177523Y-83213800D02*
X86034666Y-83261419D01*
X86034666Y-83261419D02*
X85939428Y-83261419D01*
X85939428Y-83261419D02*
X85796571Y-83213800D01*
X85796571Y-83213800D02*
X85701333Y-83118561D01*
X85701333Y-83118561D02*
X85653714Y-83023323D01*
X85653714Y-83023323D02*
X85606095Y-82832847D01*
X85606095Y-82832847D02*
X85606095Y-82689990D01*
X85606095Y-82689990D02*
X85653714Y-82499514D01*
X85653714Y-82499514D02*
X85701333Y-82404276D01*
X85701333Y-82404276D02*
X85796571Y-82309038D01*
X85796571Y-82309038D02*
X85939428Y-82261419D01*
X85939428Y-82261419D02*
X86034666Y-82261419D01*
X86034666Y-82261419D02*
X86177523Y-82309038D01*
X86177523Y-82309038D02*
X86225142Y-82356657D01*
X87177523Y-83261419D02*
X86606095Y-83261419D01*
X86891809Y-83261419D02*
X86891809Y-82261419D01*
X86891809Y-82261419D02*
X86796571Y-82404276D01*
X86796571Y-82404276D02*
X86701333Y-82499514D01*
X86701333Y-82499514D02*
X86606095Y-82547133D01*
X87558476Y-82356657D02*
X87606095Y-82309038D01*
X87606095Y-82309038D02*
X87701333Y-82261419D01*
X87701333Y-82261419D02*
X87939428Y-82261419D01*
X87939428Y-82261419D02*
X88034666Y-82309038D01*
X88034666Y-82309038D02*
X88082285Y-82356657D01*
X88082285Y-82356657D02*
X88129904Y-82451895D01*
X88129904Y-82451895D02*
X88129904Y-82547133D01*
X88129904Y-82547133D02*
X88082285Y-82689990D01*
X88082285Y-82689990D02*
X87510857Y-83261419D01*
X87510857Y-83261419D02*
X88129904Y-83261419D01*
X137057419Y-105016666D02*
X136581228Y-105349999D01*
X137057419Y-105588094D02*
X136057419Y-105588094D01*
X136057419Y-105588094D02*
X136057419Y-105207142D01*
X136057419Y-105207142D02*
X136105038Y-105111904D01*
X136105038Y-105111904D02*
X136152657Y-105064285D01*
X136152657Y-105064285D02*
X136247895Y-105016666D01*
X136247895Y-105016666D02*
X136390752Y-105016666D01*
X136390752Y-105016666D02*
X136485990Y-105064285D01*
X136485990Y-105064285D02*
X136533609Y-105111904D01*
X136533609Y-105111904D02*
X136581228Y-105207142D01*
X136581228Y-105207142D02*
X136581228Y-105588094D01*
X137057419Y-104540475D02*
X137057419Y-104349999D01*
X137057419Y-104349999D02*
X137009800Y-104254761D01*
X137009800Y-104254761D02*
X136962180Y-104207142D01*
X136962180Y-104207142D02*
X136819323Y-104111904D01*
X136819323Y-104111904D02*
X136628847Y-104064285D01*
X136628847Y-104064285D02*
X136247895Y-104064285D01*
X136247895Y-104064285D02*
X136152657Y-104111904D01*
X136152657Y-104111904D02*
X136105038Y-104159523D01*
X136105038Y-104159523D02*
X136057419Y-104254761D01*
X136057419Y-104254761D02*
X136057419Y-104445237D01*
X136057419Y-104445237D02*
X136105038Y-104540475D01*
X136105038Y-104540475D02*
X136152657Y-104588094D01*
X136152657Y-104588094D02*
X136247895Y-104635713D01*
X136247895Y-104635713D02*
X136485990Y-104635713D01*
X136485990Y-104635713D02*
X136581228Y-104588094D01*
X136581228Y-104588094D02*
X136628847Y-104540475D01*
X136628847Y-104540475D02*
X136676466Y-104445237D01*
X136676466Y-104445237D02*
X136676466Y-104254761D01*
X136676466Y-104254761D02*
X136628847Y-104159523D01*
X136628847Y-104159523D02*
X136581228Y-104111904D01*
X136581228Y-104111904D02*
X136485990Y-104064285D01*
X127438380Y-112174257D02*
X127486000Y-112221876D01*
X127486000Y-112221876D02*
X127533619Y-112364733D01*
X127533619Y-112364733D02*
X127533619Y-112459971D01*
X127533619Y-112459971D02*
X127486000Y-112602828D01*
X127486000Y-112602828D02*
X127390761Y-112698066D01*
X127390761Y-112698066D02*
X127295523Y-112745685D01*
X127295523Y-112745685D02*
X127105047Y-112793304D01*
X127105047Y-112793304D02*
X126962190Y-112793304D01*
X126962190Y-112793304D02*
X126771714Y-112745685D01*
X126771714Y-112745685D02*
X126676476Y-112698066D01*
X126676476Y-112698066D02*
X126581238Y-112602828D01*
X126581238Y-112602828D02*
X126533619Y-112459971D01*
X126533619Y-112459971D02*
X126533619Y-112364733D01*
X126533619Y-112364733D02*
X126581238Y-112221876D01*
X126581238Y-112221876D02*
X126628857Y-112174257D01*
X127533619Y-111221876D02*
X127533619Y-111793304D01*
X127533619Y-111507590D02*
X126533619Y-111507590D01*
X126533619Y-111507590D02*
X126676476Y-111602828D01*
X126676476Y-111602828D02*
X126771714Y-111698066D01*
X126771714Y-111698066D02*
X126819333Y-111793304D01*
X126962190Y-110650447D02*
X126914571Y-110745685D01*
X126914571Y-110745685D02*
X126866952Y-110793304D01*
X126866952Y-110793304D02*
X126771714Y-110840923D01*
X126771714Y-110840923D02*
X126724095Y-110840923D01*
X126724095Y-110840923D02*
X126628857Y-110793304D01*
X126628857Y-110793304D02*
X126581238Y-110745685D01*
X126581238Y-110745685D02*
X126533619Y-110650447D01*
X126533619Y-110650447D02*
X126533619Y-110459971D01*
X126533619Y-110459971D02*
X126581238Y-110364733D01*
X126581238Y-110364733D02*
X126628857Y-110317114D01*
X126628857Y-110317114D02*
X126724095Y-110269495D01*
X126724095Y-110269495D02*
X126771714Y-110269495D01*
X126771714Y-110269495D02*
X126866952Y-110317114D01*
X126866952Y-110317114D02*
X126914571Y-110364733D01*
X126914571Y-110364733D02*
X126962190Y-110459971D01*
X126962190Y-110459971D02*
X126962190Y-110650447D01*
X126962190Y-110650447D02*
X127009809Y-110745685D01*
X127009809Y-110745685D02*
X127057428Y-110793304D01*
X127057428Y-110793304D02*
X127152666Y-110840923D01*
X127152666Y-110840923D02*
X127343142Y-110840923D01*
X127343142Y-110840923D02*
X127438380Y-110793304D01*
X127438380Y-110793304D02*
X127486000Y-110745685D01*
X127486000Y-110745685D02*
X127533619Y-110650447D01*
X127533619Y-110650447D02*
X127533619Y-110459971D01*
X127533619Y-110459971D02*
X127486000Y-110364733D01*
X127486000Y-110364733D02*
X127438380Y-110317114D01*
X127438380Y-110317114D02*
X127343142Y-110269495D01*
X127343142Y-110269495D02*
X127152666Y-110269495D01*
X127152666Y-110269495D02*
X127057428Y-110317114D01*
X127057428Y-110317114D02*
X127009809Y-110364733D01*
X127009809Y-110364733D02*
X126962190Y-110459971D01*
X122561580Y-112377457D02*
X122609200Y-112425076D01*
X122609200Y-112425076D02*
X122656819Y-112567933D01*
X122656819Y-112567933D02*
X122656819Y-112663171D01*
X122656819Y-112663171D02*
X122609200Y-112806028D01*
X122609200Y-112806028D02*
X122513961Y-112901266D01*
X122513961Y-112901266D02*
X122418723Y-112948885D01*
X122418723Y-112948885D02*
X122228247Y-112996504D01*
X122228247Y-112996504D02*
X122085390Y-112996504D01*
X122085390Y-112996504D02*
X121894914Y-112948885D01*
X121894914Y-112948885D02*
X121799676Y-112901266D01*
X121799676Y-112901266D02*
X121704438Y-112806028D01*
X121704438Y-112806028D02*
X121656819Y-112663171D01*
X121656819Y-112663171D02*
X121656819Y-112567933D01*
X121656819Y-112567933D02*
X121704438Y-112425076D01*
X121704438Y-112425076D02*
X121752057Y-112377457D01*
X122656819Y-111425076D02*
X122656819Y-111996504D01*
X122656819Y-111710790D02*
X121656819Y-111710790D01*
X121656819Y-111710790D02*
X121799676Y-111806028D01*
X121799676Y-111806028D02*
X121894914Y-111901266D01*
X121894914Y-111901266D02*
X121942533Y-111996504D01*
X122656819Y-110948885D02*
X122656819Y-110758409D01*
X122656819Y-110758409D02*
X122609200Y-110663171D01*
X122609200Y-110663171D02*
X122561580Y-110615552D01*
X122561580Y-110615552D02*
X122418723Y-110520314D01*
X122418723Y-110520314D02*
X122228247Y-110472695D01*
X122228247Y-110472695D02*
X121847295Y-110472695D01*
X121847295Y-110472695D02*
X121752057Y-110520314D01*
X121752057Y-110520314D02*
X121704438Y-110567933D01*
X121704438Y-110567933D02*
X121656819Y-110663171D01*
X121656819Y-110663171D02*
X121656819Y-110853647D01*
X121656819Y-110853647D02*
X121704438Y-110948885D01*
X121704438Y-110948885D02*
X121752057Y-110996504D01*
X121752057Y-110996504D02*
X121847295Y-111044123D01*
X121847295Y-111044123D02*
X122085390Y-111044123D01*
X122085390Y-111044123D02*
X122180628Y-110996504D01*
X122180628Y-110996504D02*
X122228247Y-110948885D01*
X122228247Y-110948885D02*
X122275866Y-110853647D01*
X122275866Y-110853647D02*
X122275866Y-110663171D01*
X122275866Y-110663171D02*
X122228247Y-110567933D01*
X122228247Y-110567933D02*
X122180628Y-110520314D01*
X122180628Y-110520314D02*
X122085390Y-110472695D01*
X122498142Y-123414180D02*
X122450523Y-123461800D01*
X122450523Y-123461800D02*
X122307666Y-123509419D01*
X122307666Y-123509419D02*
X122212428Y-123509419D01*
X122212428Y-123509419D02*
X122069571Y-123461800D01*
X122069571Y-123461800D02*
X121974333Y-123366561D01*
X121974333Y-123366561D02*
X121926714Y-123271323D01*
X121926714Y-123271323D02*
X121879095Y-123080847D01*
X121879095Y-123080847D02*
X121879095Y-122937990D01*
X121879095Y-122937990D02*
X121926714Y-122747514D01*
X121926714Y-122747514D02*
X121974333Y-122652276D01*
X121974333Y-122652276D02*
X122069571Y-122557038D01*
X122069571Y-122557038D02*
X122212428Y-122509419D01*
X122212428Y-122509419D02*
X122307666Y-122509419D01*
X122307666Y-122509419D02*
X122450523Y-122557038D01*
X122450523Y-122557038D02*
X122498142Y-122604657D01*
X123450523Y-123509419D02*
X122879095Y-123509419D01*
X123164809Y-123509419D02*
X123164809Y-122509419D01*
X123164809Y-122509419D02*
X123069571Y-122652276D01*
X123069571Y-122652276D02*
X122974333Y-122747514D01*
X122974333Y-122747514D02*
X122879095Y-122795133D01*
X123783857Y-122509419D02*
X124450523Y-122509419D01*
X124450523Y-122509419D02*
X124021952Y-123509419D01*
X112721419Y-108709094D02*
X111721419Y-108709094D01*
X111721419Y-108709094D02*
X111721419Y-108470999D01*
X111721419Y-108470999D02*
X111769038Y-108328142D01*
X111769038Y-108328142D02*
X111864276Y-108232904D01*
X111864276Y-108232904D02*
X111959514Y-108185285D01*
X111959514Y-108185285D02*
X112149990Y-108137666D01*
X112149990Y-108137666D02*
X112292847Y-108137666D01*
X112292847Y-108137666D02*
X112483323Y-108185285D01*
X112483323Y-108185285D02*
X112578561Y-108232904D01*
X112578561Y-108232904D02*
X112673800Y-108328142D01*
X112673800Y-108328142D02*
X112721419Y-108470999D01*
X112721419Y-108470999D02*
X112721419Y-108709094D01*
X111816657Y-107756713D02*
X111769038Y-107709094D01*
X111769038Y-107709094D02*
X111721419Y-107613856D01*
X111721419Y-107613856D02*
X111721419Y-107375761D01*
X111721419Y-107375761D02*
X111769038Y-107280523D01*
X111769038Y-107280523D02*
X111816657Y-107232904D01*
X111816657Y-107232904D02*
X111911895Y-107185285D01*
X111911895Y-107185285D02*
X112007133Y-107185285D01*
X112007133Y-107185285D02*
X112149990Y-107232904D01*
X112149990Y-107232904D02*
X112721419Y-107804332D01*
X112721419Y-107804332D02*
X112721419Y-107185285D01*
X75096333Y-94623680D02*
X75048714Y-94671300D01*
X75048714Y-94671300D02*
X74905857Y-94718919D01*
X74905857Y-94718919D02*
X74810619Y-94718919D01*
X74810619Y-94718919D02*
X74667762Y-94671300D01*
X74667762Y-94671300D02*
X74572524Y-94576061D01*
X74572524Y-94576061D02*
X74524905Y-94480823D01*
X74524905Y-94480823D02*
X74477286Y-94290347D01*
X74477286Y-94290347D02*
X74477286Y-94147490D01*
X74477286Y-94147490D02*
X74524905Y-93957014D01*
X74524905Y-93957014D02*
X74572524Y-93861776D01*
X74572524Y-93861776D02*
X74667762Y-93766538D01*
X74667762Y-93766538D02*
X74810619Y-93718919D01*
X74810619Y-93718919D02*
X74905857Y-93718919D01*
X74905857Y-93718919D02*
X75048714Y-93766538D01*
X75048714Y-93766538D02*
X75096333Y-93814157D01*
X75429667Y-93718919D02*
X76096333Y-93718919D01*
X76096333Y-93718919D02*
X75667762Y-94718919D01*
X85293295Y-112385819D02*
X85293295Y-113195342D01*
X85293295Y-113195342D02*
X85340914Y-113290580D01*
X85340914Y-113290580D02*
X85388533Y-113338200D01*
X85388533Y-113338200D02*
X85483771Y-113385819D01*
X85483771Y-113385819D02*
X85674247Y-113385819D01*
X85674247Y-113385819D02*
X85769485Y-113338200D01*
X85769485Y-113338200D02*
X85817104Y-113290580D01*
X85817104Y-113290580D02*
X85864723Y-113195342D01*
X85864723Y-113195342D02*
X85864723Y-112385819D01*
X86245676Y-112385819D02*
X86912342Y-112385819D01*
X86912342Y-112385819D02*
X86483771Y-113385819D01*
X90892666Y-123420419D02*
X90892666Y-124134704D01*
X90892666Y-124134704D02*
X90845047Y-124277561D01*
X90845047Y-124277561D02*
X90749809Y-124372800D01*
X90749809Y-124372800D02*
X90606952Y-124420419D01*
X90606952Y-124420419D02*
X90511714Y-124420419D01*
X91321238Y-123515657D02*
X91368857Y-123468038D01*
X91368857Y-123468038D02*
X91464095Y-123420419D01*
X91464095Y-123420419D02*
X91702190Y-123420419D01*
X91702190Y-123420419D02*
X91797428Y-123468038D01*
X91797428Y-123468038D02*
X91845047Y-123515657D01*
X91845047Y-123515657D02*
X91892666Y-123610895D01*
X91892666Y-123610895D02*
X91892666Y-123706133D01*
X91892666Y-123706133D02*
X91845047Y-123848990D01*
X91845047Y-123848990D02*
X91273619Y-124420419D01*
X91273619Y-124420419D02*
X91892666Y-124420419D01*
X136857419Y-98742857D02*
X136381228Y-99076190D01*
X136857419Y-99314285D02*
X135857419Y-99314285D01*
X135857419Y-99314285D02*
X135857419Y-98933333D01*
X135857419Y-98933333D02*
X135905038Y-98838095D01*
X135905038Y-98838095D02*
X135952657Y-98790476D01*
X135952657Y-98790476D02*
X136047895Y-98742857D01*
X136047895Y-98742857D02*
X136190752Y-98742857D01*
X136190752Y-98742857D02*
X136285990Y-98790476D01*
X136285990Y-98790476D02*
X136333609Y-98838095D01*
X136333609Y-98838095D02*
X136381228Y-98933333D01*
X136381228Y-98933333D02*
X136381228Y-99314285D01*
X136857419Y-97790476D02*
X136857419Y-98361904D01*
X136857419Y-98076190D02*
X135857419Y-98076190D01*
X135857419Y-98076190D02*
X136000276Y-98171428D01*
X136000276Y-98171428D02*
X136095514Y-98266666D01*
X136095514Y-98266666D02*
X136143133Y-98361904D01*
X136190752Y-96933333D02*
X136857419Y-96933333D01*
X135809800Y-97171428D02*
X136524085Y-97409523D01*
X136524085Y-97409523D02*
X136524085Y-96790476D01*
X122428142Y-115610180D02*
X122380523Y-115657800D01*
X122380523Y-115657800D02*
X122237666Y-115705419D01*
X122237666Y-115705419D02*
X122142428Y-115705419D01*
X122142428Y-115705419D02*
X121999571Y-115657800D01*
X121999571Y-115657800D02*
X121904333Y-115562561D01*
X121904333Y-115562561D02*
X121856714Y-115467323D01*
X121856714Y-115467323D02*
X121809095Y-115276847D01*
X121809095Y-115276847D02*
X121809095Y-115133990D01*
X121809095Y-115133990D02*
X121856714Y-114943514D01*
X121856714Y-114943514D02*
X121904333Y-114848276D01*
X121904333Y-114848276D02*
X121999571Y-114753038D01*
X121999571Y-114753038D02*
X122142428Y-114705419D01*
X122142428Y-114705419D02*
X122237666Y-114705419D01*
X122237666Y-114705419D02*
X122380523Y-114753038D01*
X122380523Y-114753038D02*
X122428142Y-114800657D01*
X123380523Y-115705419D02*
X122809095Y-115705419D01*
X123094809Y-115705419D02*
X123094809Y-114705419D01*
X123094809Y-114705419D02*
X122999571Y-114848276D01*
X122999571Y-114848276D02*
X122904333Y-114943514D01*
X122904333Y-114943514D02*
X122809095Y-114991133D01*
X124237666Y-114705419D02*
X124047190Y-114705419D01*
X124047190Y-114705419D02*
X123951952Y-114753038D01*
X123951952Y-114753038D02*
X123904333Y-114800657D01*
X123904333Y-114800657D02*
X123809095Y-114943514D01*
X123809095Y-114943514D02*
X123761476Y-115133990D01*
X123761476Y-115133990D02*
X123761476Y-115514942D01*
X123761476Y-115514942D02*
X123809095Y-115610180D01*
X123809095Y-115610180D02*
X123856714Y-115657800D01*
X123856714Y-115657800D02*
X123951952Y-115705419D01*
X123951952Y-115705419D02*
X124142428Y-115705419D01*
X124142428Y-115705419D02*
X124237666Y-115657800D01*
X124237666Y-115657800D02*
X124285285Y-115610180D01*
X124285285Y-115610180D02*
X124332904Y-115514942D01*
X124332904Y-115514942D02*
X124332904Y-115276847D01*
X124332904Y-115276847D02*
X124285285Y-115181609D01*
X124285285Y-115181609D02*
X124237666Y-115133990D01*
X124237666Y-115133990D02*
X124142428Y-115086371D01*
X124142428Y-115086371D02*
X123951952Y-115086371D01*
X123951952Y-115086371D02*
X123856714Y-115133990D01*
X123856714Y-115133990D02*
X123809095Y-115181609D01*
X123809095Y-115181609D02*
X123761476Y-115276847D01*
X86275942Y-84893380D02*
X86228323Y-84941000D01*
X86228323Y-84941000D02*
X86085466Y-84988619D01*
X86085466Y-84988619D02*
X85990228Y-84988619D01*
X85990228Y-84988619D02*
X85847371Y-84941000D01*
X85847371Y-84941000D02*
X85752133Y-84845761D01*
X85752133Y-84845761D02*
X85704514Y-84750523D01*
X85704514Y-84750523D02*
X85656895Y-84560047D01*
X85656895Y-84560047D02*
X85656895Y-84417190D01*
X85656895Y-84417190D02*
X85704514Y-84226714D01*
X85704514Y-84226714D02*
X85752133Y-84131476D01*
X85752133Y-84131476D02*
X85847371Y-84036238D01*
X85847371Y-84036238D02*
X85990228Y-83988619D01*
X85990228Y-83988619D02*
X86085466Y-83988619D01*
X86085466Y-83988619D02*
X86228323Y-84036238D01*
X86228323Y-84036238D02*
X86275942Y-84083857D01*
X87228323Y-84988619D02*
X86656895Y-84988619D01*
X86942609Y-84988619D02*
X86942609Y-83988619D01*
X86942609Y-83988619D02*
X86847371Y-84131476D01*
X86847371Y-84131476D02*
X86752133Y-84226714D01*
X86752133Y-84226714D02*
X86656895Y-84274333D01*
X88180704Y-84988619D02*
X87609276Y-84988619D01*
X87894990Y-84988619D02*
X87894990Y-83988619D01*
X87894990Y-83988619D02*
X87799752Y-84131476D01*
X87799752Y-84131476D02*
X87704514Y-84226714D01*
X87704514Y-84226714D02*
X87609276Y-84274333D01*
X62802405Y-92747919D02*
X62802405Y-91747919D01*
X62802405Y-91747919D02*
X63040500Y-91747919D01*
X63040500Y-91747919D02*
X63183357Y-91795538D01*
X63183357Y-91795538D02*
X63278595Y-91890776D01*
X63278595Y-91890776D02*
X63326214Y-91986014D01*
X63326214Y-91986014D02*
X63373833Y-92176490D01*
X63373833Y-92176490D02*
X63373833Y-92319347D01*
X63373833Y-92319347D02*
X63326214Y-92509823D01*
X63326214Y-92509823D02*
X63278595Y-92605061D01*
X63278595Y-92605061D02*
X63183357Y-92700300D01*
X63183357Y-92700300D02*
X63040500Y-92747919D01*
X63040500Y-92747919D02*
X62802405Y-92747919D01*
X64326214Y-92747919D02*
X63754786Y-92747919D01*
X64040500Y-92747919D02*
X64040500Y-91747919D01*
X64040500Y-91747919D02*
X63945262Y-91890776D01*
X63945262Y-91890776D02*
X63850024Y-91986014D01*
X63850024Y-91986014D02*
X63754786Y-92033633D01*
X70174333Y-81345919D02*
X69698143Y-81345919D01*
X69698143Y-81345919D02*
X69698143Y-80345919D01*
X71031476Y-81345919D02*
X70460048Y-81345919D01*
X70745762Y-81345919D02*
X70745762Y-80345919D01*
X70745762Y-80345919D02*
X70650524Y-80488776D01*
X70650524Y-80488776D02*
X70555286Y-80584014D01*
X70555286Y-80584014D02*
X70460048Y-80631633D01*
X85361542Y-89008180D02*
X85313923Y-89055800D01*
X85313923Y-89055800D02*
X85171066Y-89103419D01*
X85171066Y-89103419D02*
X85075828Y-89103419D01*
X85075828Y-89103419D02*
X84932971Y-89055800D01*
X84932971Y-89055800D02*
X84837733Y-88960561D01*
X84837733Y-88960561D02*
X84790114Y-88865323D01*
X84790114Y-88865323D02*
X84742495Y-88674847D01*
X84742495Y-88674847D02*
X84742495Y-88531990D01*
X84742495Y-88531990D02*
X84790114Y-88341514D01*
X84790114Y-88341514D02*
X84837733Y-88246276D01*
X84837733Y-88246276D02*
X84932971Y-88151038D01*
X84932971Y-88151038D02*
X85075828Y-88103419D01*
X85075828Y-88103419D02*
X85171066Y-88103419D01*
X85171066Y-88103419D02*
X85313923Y-88151038D01*
X85313923Y-88151038D02*
X85361542Y-88198657D01*
X86313923Y-89103419D02*
X85742495Y-89103419D01*
X86028209Y-89103419D02*
X86028209Y-88103419D01*
X86028209Y-88103419D02*
X85932971Y-88246276D01*
X85932971Y-88246276D02*
X85837733Y-88341514D01*
X85837733Y-88341514D02*
X85742495Y-88389133D01*
X87171066Y-88436752D02*
X87171066Y-89103419D01*
X86932971Y-88055800D02*
X86694876Y-88770085D01*
X86694876Y-88770085D02*
X87313923Y-88770085D01*
X120384333Y-100776419D02*
X120051000Y-100300228D01*
X119812905Y-100776419D02*
X119812905Y-99776419D01*
X119812905Y-99776419D02*
X120193857Y-99776419D01*
X120193857Y-99776419D02*
X120289095Y-99824038D01*
X120289095Y-99824038D02*
X120336714Y-99871657D01*
X120336714Y-99871657D02*
X120384333Y-99966895D01*
X120384333Y-99966895D02*
X120384333Y-100109752D01*
X120384333Y-100109752D02*
X120336714Y-100204990D01*
X120336714Y-100204990D02*
X120289095Y-100252609D01*
X120289095Y-100252609D02*
X120193857Y-100300228D01*
X120193857Y-100300228D02*
X119812905Y-100300228D01*
X120955762Y-100204990D02*
X120860524Y-100157371D01*
X120860524Y-100157371D02*
X120812905Y-100109752D01*
X120812905Y-100109752D02*
X120765286Y-100014514D01*
X120765286Y-100014514D02*
X120765286Y-99966895D01*
X120765286Y-99966895D02*
X120812905Y-99871657D01*
X120812905Y-99871657D02*
X120860524Y-99824038D01*
X120860524Y-99824038D02*
X120955762Y-99776419D01*
X120955762Y-99776419D02*
X121146238Y-99776419D01*
X121146238Y-99776419D02*
X121241476Y-99824038D01*
X121241476Y-99824038D02*
X121289095Y-99871657D01*
X121289095Y-99871657D02*
X121336714Y-99966895D01*
X121336714Y-99966895D02*
X121336714Y-100014514D01*
X121336714Y-100014514D02*
X121289095Y-100109752D01*
X121289095Y-100109752D02*
X121241476Y-100157371D01*
X121241476Y-100157371D02*
X121146238Y-100204990D01*
X121146238Y-100204990D02*
X120955762Y-100204990D01*
X120955762Y-100204990D02*
X120860524Y-100252609D01*
X120860524Y-100252609D02*
X120812905Y-100300228D01*
X120812905Y-100300228D02*
X120765286Y-100395466D01*
X120765286Y-100395466D02*
X120765286Y-100585942D01*
X120765286Y-100585942D02*
X120812905Y-100681180D01*
X120812905Y-100681180D02*
X120860524Y-100728800D01*
X120860524Y-100728800D02*
X120955762Y-100776419D01*
X120955762Y-100776419D02*
X121146238Y-100776419D01*
X121146238Y-100776419D02*
X121241476Y-100728800D01*
X121241476Y-100728800D02*
X121289095Y-100681180D01*
X121289095Y-100681180D02*
X121336714Y-100585942D01*
X121336714Y-100585942D02*
X121336714Y-100395466D01*
X121336714Y-100395466D02*
X121289095Y-100300228D01*
X121289095Y-100300228D02*
X121241476Y-100252609D01*
X121241476Y-100252609D02*
X121146238Y-100204990D01*
X128798142Y-95950419D02*
X128464809Y-95474228D01*
X128226714Y-95950419D02*
X128226714Y-94950419D01*
X128226714Y-94950419D02*
X128607666Y-94950419D01*
X128607666Y-94950419D02*
X128702904Y-94998038D01*
X128702904Y-94998038D02*
X128750523Y-95045657D01*
X128750523Y-95045657D02*
X128798142Y-95140895D01*
X128798142Y-95140895D02*
X128798142Y-95283752D01*
X128798142Y-95283752D02*
X128750523Y-95378990D01*
X128750523Y-95378990D02*
X128702904Y-95426609D01*
X128702904Y-95426609D02*
X128607666Y-95474228D01*
X128607666Y-95474228D02*
X128226714Y-95474228D01*
X129750523Y-95950419D02*
X129179095Y-95950419D01*
X129464809Y-95950419D02*
X129464809Y-94950419D01*
X129464809Y-94950419D02*
X129369571Y-95093276D01*
X129369571Y-95093276D02*
X129274333Y-95188514D01*
X129274333Y-95188514D02*
X129179095Y-95236133D01*
X130655285Y-94950419D02*
X130179095Y-94950419D01*
X130179095Y-94950419D02*
X130131476Y-95426609D01*
X130131476Y-95426609D02*
X130179095Y-95378990D01*
X130179095Y-95378990D02*
X130274333Y-95331371D01*
X130274333Y-95331371D02*
X130512428Y-95331371D01*
X130512428Y-95331371D02*
X130607666Y-95378990D01*
X130607666Y-95378990D02*
X130655285Y-95426609D01*
X130655285Y-95426609D02*
X130702904Y-95521847D01*
X130702904Y-95521847D02*
X130702904Y-95759942D01*
X130702904Y-95759942D02*
X130655285Y-95855180D01*
X130655285Y-95855180D02*
X130607666Y-95902800D01*
X130607666Y-95902800D02*
X130512428Y-95950419D01*
X130512428Y-95950419D02*
X130274333Y-95950419D01*
X130274333Y-95950419D02*
X130179095Y-95902800D01*
X130179095Y-95902800D02*
X130131476Y-95855180D01*
X98842533Y-89414580D02*
X98794914Y-89462200D01*
X98794914Y-89462200D02*
X98652057Y-89509819D01*
X98652057Y-89509819D02*
X98556819Y-89509819D01*
X98556819Y-89509819D02*
X98413962Y-89462200D01*
X98413962Y-89462200D02*
X98318724Y-89366961D01*
X98318724Y-89366961D02*
X98271105Y-89271723D01*
X98271105Y-89271723D02*
X98223486Y-89081247D01*
X98223486Y-89081247D02*
X98223486Y-88938390D01*
X98223486Y-88938390D02*
X98271105Y-88747914D01*
X98271105Y-88747914D02*
X98318724Y-88652676D01*
X98318724Y-88652676D02*
X98413962Y-88557438D01*
X98413962Y-88557438D02*
X98556819Y-88509819D01*
X98556819Y-88509819D02*
X98652057Y-88509819D01*
X98652057Y-88509819D02*
X98794914Y-88557438D01*
X98794914Y-88557438D02*
X98842533Y-88605057D01*
X99747295Y-88509819D02*
X99271105Y-88509819D01*
X99271105Y-88509819D02*
X99223486Y-88986009D01*
X99223486Y-88986009D02*
X99271105Y-88938390D01*
X99271105Y-88938390D02*
X99366343Y-88890771D01*
X99366343Y-88890771D02*
X99604438Y-88890771D01*
X99604438Y-88890771D02*
X99699676Y-88938390D01*
X99699676Y-88938390D02*
X99747295Y-88986009D01*
X99747295Y-88986009D02*
X99794914Y-89081247D01*
X99794914Y-89081247D02*
X99794914Y-89319342D01*
X99794914Y-89319342D02*
X99747295Y-89414580D01*
X99747295Y-89414580D02*
X99699676Y-89462200D01*
X99699676Y-89462200D02*
X99604438Y-89509819D01*
X99604438Y-89509819D02*
X99366343Y-89509819D01*
X99366343Y-89509819D02*
X99271105Y-89462200D01*
X99271105Y-89462200D02*
X99223486Y-89414580D01*
X121293419Y-108584094D02*
X120293419Y-108584094D01*
X120293419Y-108584094D02*
X120293419Y-108345999D01*
X120293419Y-108345999D02*
X120341038Y-108203142D01*
X120341038Y-108203142D02*
X120436276Y-108107904D01*
X120436276Y-108107904D02*
X120531514Y-108060285D01*
X120531514Y-108060285D02*
X120721990Y-108012666D01*
X120721990Y-108012666D02*
X120864847Y-108012666D01*
X120864847Y-108012666D02*
X121055323Y-108060285D01*
X121055323Y-108060285D02*
X121150561Y-108107904D01*
X121150561Y-108107904D02*
X121245800Y-108203142D01*
X121245800Y-108203142D02*
X121293419Y-108345999D01*
X121293419Y-108345999D02*
X121293419Y-108584094D01*
X120293419Y-107107904D02*
X120293419Y-107584094D01*
X120293419Y-107584094D02*
X120769609Y-107631713D01*
X120769609Y-107631713D02*
X120721990Y-107584094D01*
X120721990Y-107584094D02*
X120674371Y-107488856D01*
X120674371Y-107488856D02*
X120674371Y-107250761D01*
X120674371Y-107250761D02*
X120721990Y-107155523D01*
X120721990Y-107155523D02*
X120769609Y-107107904D01*
X120769609Y-107107904D02*
X120864847Y-107060285D01*
X120864847Y-107060285D02*
X121102942Y-107060285D01*
X121102942Y-107060285D02*
X121198180Y-107107904D01*
X121198180Y-107107904D02*
X121245800Y-107155523D01*
X121245800Y-107155523D02*
X121293419Y-107250761D01*
X121293419Y-107250761D02*
X121293419Y-107488856D01*
X121293419Y-107488856D02*
X121245800Y-107584094D01*
X121245800Y-107584094D02*
X121198180Y-107631713D01*
X88409542Y-118167380D02*
X88361923Y-118215000D01*
X88361923Y-118215000D02*
X88219066Y-118262619D01*
X88219066Y-118262619D02*
X88123828Y-118262619D01*
X88123828Y-118262619D02*
X87980971Y-118215000D01*
X87980971Y-118215000D02*
X87885733Y-118119761D01*
X87885733Y-118119761D02*
X87838114Y-118024523D01*
X87838114Y-118024523D02*
X87790495Y-117834047D01*
X87790495Y-117834047D02*
X87790495Y-117691190D01*
X87790495Y-117691190D02*
X87838114Y-117500714D01*
X87838114Y-117500714D02*
X87885733Y-117405476D01*
X87885733Y-117405476D02*
X87980971Y-117310238D01*
X87980971Y-117310238D02*
X88123828Y-117262619D01*
X88123828Y-117262619D02*
X88219066Y-117262619D01*
X88219066Y-117262619D02*
X88361923Y-117310238D01*
X88361923Y-117310238D02*
X88409542Y-117357857D01*
X88790495Y-117357857D02*
X88838114Y-117310238D01*
X88838114Y-117310238D02*
X88933352Y-117262619D01*
X88933352Y-117262619D02*
X89171447Y-117262619D01*
X89171447Y-117262619D02*
X89266685Y-117310238D01*
X89266685Y-117310238D02*
X89314304Y-117357857D01*
X89314304Y-117357857D02*
X89361923Y-117453095D01*
X89361923Y-117453095D02*
X89361923Y-117548333D01*
X89361923Y-117548333D02*
X89314304Y-117691190D01*
X89314304Y-117691190D02*
X88742876Y-118262619D01*
X88742876Y-118262619D02*
X89361923Y-118262619D01*
X89695257Y-117262619D02*
X90314304Y-117262619D01*
X90314304Y-117262619D02*
X89980971Y-117643571D01*
X89980971Y-117643571D02*
X90123828Y-117643571D01*
X90123828Y-117643571D02*
X90219066Y-117691190D01*
X90219066Y-117691190D02*
X90266685Y-117738809D01*
X90266685Y-117738809D02*
X90314304Y-117834047D01*
X90314304Y-117834047D02*
X90314304Y-118072142D01*
X90314304Y-118072142D02*
X90266685Y-118167380D01*
X90266685Y-118167380D02*
X90219066Y-118215000D01*
X90219066Y-118215000D02*
X90123828Y-118262619D01*
X90123828Y-118262619D02*
X89838114Y-118262619D01*
X89838114Y-118262619D02*
X89742876Y-118215000D01*
X89742876Y-118215000D02*
X89695257Y-118167380D01*
X108119942Y-114503419D02*
X107786609Y-114027228D01*
X107548514Y-114503419D02*
X107548514Y-113503419D01*
X107548514Y-113503419D02*
X107929466Y-113503419D01*
X107929466Y-113503419D02*
X108024704Y-113551038D01*
X108024704Y-113551038D02*
X108072323Y-113598657D01*
X108072323Y-113598657D02*
X108119942Y-113693895D01*
X108119942Y-113693895D02*
X108119942Y-113836752D01*
X108119942Y-113836752D02*
X108072323Y-113931990D01*
X108072323Y-113931990D02*
X108024704Y-113979609D01*
X108024704Y-113979609D02*
X107929466Y-114027228D01*
X107929466Y-114027228D02*
X107548514Y-114027228D01*
X108500895Y-113598657D02*
X108548514Y-113551038D01*
X108548514Y-113551038D02*
X108643752Y-113503419D01*
X108643752Y-113503419D02*
X108881847Y-113503419D01*
X108881847Y-113503419D02*
X108977085Y-113551038D01*
X108977085Y-113551038D02*
X109024704Y-113598657D01*
X109024704Y-113598657D02*
X109072323Y-113693895D01*
X109072323Y-113693895D02*
X109072323Y-113789133D01*
X109072323Y-113789133D02*
X109024704Y-113931990D01*
X109024704Y-113931990D02*
X108453276Y-114503419D01*
X108453276Y-114503419D02*
X109072323Y-114503419D01*
X109691371Y-113503419D02*
X109786609Y-113503419D01*
X109786609Y-113503419D02*
X109881847Y-113551038D01*
X109881847Y-113551038D02*
X109929466Y-113598657D01*
X109929466Y-113598657D02*
X109977085Y-113693895D01*
X109977085Y-113693895D02*
X110024704Y-113884371D01*
X110024704Y-113884371D02*
X110024704Y-114122466D01*
X110024704Y-114122466D02*
X109977085Y-114312942D01*
X109977085Y-114312942D02*
X109929466Y-114408180D01*
X109929466Y-114408180D02*
X109881847Y-114455800D01*
X109881847Y-114455800D02*
X109786609Y-114503419D01*
X109786609Y-114503419D02*
X109691371Y-114503419D01*
X109691371Y-114503419D02*
X109596133Y-114455800D01*
X109596133Y-114455800D02*
X109548514Y-114408180D01*
X109548514Y-114408180D02*
X109500895Y-114312942D01*
X109500895Y-114312942D02*
X109453276Y-114122466D01*
X109453276Y-114122466D02*
X109453276Y-113884371D01*
X109453276Y-113884371D02*
X109500895Y-113693895D01*
X109500895Y-113693895D02*
X109548514Y-113598657D01*
X109548514Y-113598657D02*
X109596133Y-113551038D01*
X109596133Y-113551038D02*
X109691371Y-113503419D01*
X123156742Y-95688380D02*
X123109123Y-95736000D01*
X123109123Y-95736000D02*
X122966266Y-95783619D01*
X122966266Y-95783619D02*
X122871028Y-95783619D01*
X122871028Y-95783619D02*
X122728171Y-95736000D01*
X122728171Y-95736000D02*
X122632933Y-95640761D01*
X122632933Y-95640761D02*
X122585314Y-95545523D01*
X122585314Y-95545523D02*
X122537695Y-95355047D01*
X122537695Y-95355047D02*
X122537695Y-95212190D01*
X122537695Y-95212190D02*
X122585314Y-95021714D01*
X122585314Y-95021714D02*
X122632933Y-94926476D01*
X122632933Y-94926476D02*
X122728171Y-94831238D01*
X122728171Y-94831238D02*
X122871028Y-94783619D01*
X122871028Y-94783619D02*
X122966266Y-94783619D01*
X122966266Y-94783619D02*
X123109123Y-94831238D01*
X123109123Y-94831238D02*
X123156742Y-94878857D01*
X123537695Y-94878857D02*
X123585314Y-94831238D01*
X123585314Y-94831238D02*
X123680552Y-94783619D01*
X123680552Y-94783619D02*
X123918647Y-94783619D01*
X123918647Y-94783619D02*
X124013885Y-94831238D01*
X124013885Y-94831238D02*
X124061504Y-94878857D01*
X124061504Y-94878857D02*
X124109123Y-94974095D01*
X124109123Y-94974095D02*
X124109123Y-95069333D01*
X124109123Y-95069333D02*
X124061504Y-95212190D01*
X124061504Y-95212190D02*
X123490076Y-95783619D01*
X123490076Y-95783619D02*
X124109123Y-95783619D01*
X124728171Y-94783619D02*
X124823409Y-94783619D01*
X124823409Y-94783619D02*
X124918647Y-94831238D01*
X124918647Y-94831238D02*
X124966266Y-94878857D01*
X124966266Y-94878857D02*
X125013885Y-94974095D01*
X125013885Y-94974095D02*
X125061504Y-95164571D01*
X125061504Y-95164571D02*
X125061504Y-95402666D01*
X125061504Y-95402666D02*
X125013885Y-95593142D01*
X125013885Y-95593142D02*
X124966266Y-95688380D01*
X124966266Y-95688380D02*
X124918647Y-95736000D01*
X124918647Y-95736000D02*
X124823409Y-95783619D01*
X124823409Y-95783619D02*
X124728171Y-95783619D01*
X124728171Y-95783619D02*
X124632933Y-95736000D01*
X124632933Y-95736000D02*
X124585314Y-95688380D01*
X124585314Y-95688380D02*
X124537695Y-95593142D01*
X124537695Y-95593142D02*
X124490076Y-95402666D01*
X124490076Y-95402666D02*
X124490076Y-95164571D01*
X124490076Y-95164571D02*
X124537695Y-94974095D01*
X124537695Y-94974095D02*
X124585314Y-94878857D01*
X124585314Y-94878857D02*
X124632933Y-94831238D01*
X124632933Y-94831238D02*
X124728171Y-94783619D01*
X86072742Y-86976180D02*
X86025123Y-87023800D01*
X86025123Y-87023800D02*
X85882266Y-87071419D01*
X85882266Y-87071419D02*
X85787028Y-87071419D01*
X85787028Y-87071419D02*
X85644171Y-87023800D01*
X85644171Y-87023800D02*
X85548933Y-86928561D01*
X85548933Y-86928561D02*
X85501314Y-86833323D01*
X85501314Y-86833323D02*
X85453695Y-86642847D01*
X85453695Y-86642847D02*
X85453695Y-86499990D01*
X85453695Y-86499990D02*
X85501314Y-86309514D01*
X85501314Y-86309514D02*
X85548933Y-86214276D01*
X85548933Y-86214276D02*
X85644171Y-86119038D01*
X85644171Y-86119038D02*
X85787028Y-86071419D01*
X85787028Y-86071419D02*
X85882266Y-86071419D01*
X85882266Y-86071419D02*
X86025123Y-86119038D01*
X86025123Y-86119038D02*
X86072742Y-86166657D01*
X87025123Y-87071419D02*
X86453695Y-87071419D01*
X86739409Y-87071419D02*
X86739409Y-86071419D01*
X86739409Y-86071419D02*
X86644171Y-86214276D01*
X86644171Y-86214276D02*
X86548933Y-86309514D01*
X86548933Y-86309514D02*
X86453695Y-86357133D01*
X87644171Y-86071419D02*
X87739409Y-86071419D01*
X87739409Y-86071419D02*
X87834647Y-86119038D01*
X87834647Y-86119038D02*
X87882266Y-86166657D01*
X87882266Y-86166657D02*
X87929885Y-86261895D01*
X87929885Y-86261895D02*
X87977504Y-86452371D01*
X87977504Y-86452371D02*
X87977504Y-86690466D01*
X87977504Y-86690466D02*
X87929885Y-86880942D01*
X87929885Y-86880942D02*
X87882266Y-86976180D01*
X87882266Y-86976180D02*
X87834647Y-87023800D01*
X87834647Y-87023800D02*
X87739409Y-87071419D01*
X87739409Y-87071419D02*
X87644171Y-87071419D01*
X87644171Y-87071419D02*
X87548933Y-87023800D01*
X87548933Y-87023800D02*
X87501314Y-86976180D01*
X87501314Y-86976180D02*
X87453695Y-86880942D01*
X87453695Y-86880942D02*
X87406076Y-86690466D01*
X87406076Y-86690466D02*
X87406076Y-86452371D01*
X87406076Y-86452371D02*
X87453695Y-86261895D01*
X87453695Y-86261895D02*
X87501314Y-86166657D01*
X87501314Y-86166657D02*
X87548933Y-86119038D01*
X87548933Y-86119038D02*
X87644171Y-86071419D01*
X81931333Y-91011180D02*
X81883714Y-91058800D01*
X81883714Y-91058800D02*
X81740857Y-91106419D01*
X81740857Y-91106419D02*
X81645619Y-91106419D01*
X81645619Y-91106419D02*
X81502762Y-91058800D01*
X81502762Y-91058800D02*
X81407524Y-90963561D01*
X81407524Y-90963561D02*
X81359905Y-90868323D01*
X81359905Y-90868323D02*
X81312286Y-90677847D01*
X81312286Y-90677847D02*
X81312286Y-90534990D01*
X81312286Y-90534990D02*
X81359905Y-90344514D01*
X81359905Y-90344514D02*
X81407524Y-90249276D01*
X81407524Y-90249276D02*
X81502762Y-90154038D01*
X81502762Y-90154038D02*
X81645619Y-90106419D01*
X81645619Y-90106419D02*
X81740857Y-90106419D01*
X81740857Y-90106419D02*
X81883714Y-90154038D01*
X81883714Y-90154038D02*
X81931333Y-90201657D01*
X82502762Y-90534990D02*
X82407524Y-90487371D01*
X82407524Y-90487371D02*
X82359905Y-90439752D01*
X82359905Y-90439752D02*
X82312286Y-90344514D01*
X82312286Y-90344514D02*
X82312286Y-90296895D01*
X82312286Y-90296895D02*
X82359905Y-90201657D01*
X82359905Y-90201657D02*
X82407524Y-90154038D01*
X82407524Y-90154038D02*
X82502762Y-90106419D01*
X82502762Y-90106419D02*
X82693238Y-90106419D01*
X82693238Y-90106419D02*
X82788476Y-90154038D01*
X82788476Y-90154038D02*
X82836095Y-90201657D01*
X82836095Y-90201657D02*
X82883714Y-90296895D01*
X82883714Y-90296895D02*
X82883714Y-90344514D01*
X82883714Y-90344514D02*
X82836095Y-90439752D01*
X82836095Y-90439752D02*
X82788476Y-90487371D01*
X82788476Y-90487371D02*
X82693238Y-90534990D01*
X82693238Y-90534990D02*
X82502762Y-90534990D01*
X82502762Y-90534990D02*
X82407524Y-90582609D01*
X82407524Y-90582609D02*
X82359905Y-90630228D01*
X82359905Y-90630228D02*
X82312286Y-90725466D01*
X82312286Y-90725466D02*
X82312286Y-90915942D01*
X82312286Y-90915942D02*
X82359905Y-91011180D01*
X82359905Y-91011180D02*
X82407524Y-91058800D01*
X82407524Y-91058800D02*
X82502762Y-91106419D01*
X82502762Y-91106419D02*
X82693238Y-91106419D01*
X82693238Y-91106419D02*
X82788476Y-91058800D01*
X82788476Y-91058800D02*
X82836095Y-91011180D01*
X82836095Y-91011180D02*
X82883714Y-90915942D01*
X82883714Y-90915942D02*
X82883714Y-90725466D01*
X82883714Y-90725466D02*
X82836095Y-90630228D01*
X82836095Y-90630228D02*
X82788476Y-90582609D01*
X82788476Y-90582609D02*
X82693238Y-90534990D01*
X108515380Y-111894857D02*
X108563000Y-111942476D01*
X108563000Y-111942476D02*
X108610619Y-112085333D01*
X108610619Y-112085333D02*
X108610619Y-112180571D01*
X108610619Y-112180571D02*
X108563000Y-112323428D01*
X108563000Y-112323428D02*
X108467761Y-112418666D01*
X108467761Y-112418666D02*
X108372523Y-112466285D01*
X108372523Y-112466285D02*
X108182047Y-112513904D01*
X108182047Y-112513904D02*
X108039190Y-112513904D01*
X108039190Y-112513904D02*
X107848714Y-112466285D01*
X107848714Y-112466285D02*
X107753476Y-112418666D01*
X107753476Y-112418666D02*
X107658238Y-112323428D01*
X107658238Y-112323428D02*
X107610619Y-112180571D01*
X107610619Y-112180571D02*
X107610619Y-112085333D01*
X107610619Y-112085333D02*
X107658238Y-111942476D01*
X107658238Y-111942476D02*
X107705857Y-111894857D01*
X107705857Y-111513904D02*
X107658238Y-111466285D01*
X107658238Y-111466285D02*
X107610619Y-111371047D01*
X107610619Y-111371047D02*
X107610619Y-111132952D01*
X107610619Y-111132952D02*
X107658238Y-111037714D01*
X107658238Y-111037714D02*
X107705857Y-110990095D01*
X107705857Y-110990095D02*
X107801095Y-110942476D01*
X107801095Y-110942476D02*
X107896333Y-110942476D01*
X107896333Y-110942476D02*
X108039190Y-110990095D01*
X108039190Y-110990095D02*
X108610619Y-111561523D01*
X108610619Y-111561523D02*
X108610619Y-110942476D01*
X107610619Y-110085333D02*
X107610619Y-110275809D01*
X107610619Y-110275809D02*
X107658238Y-110371047D01*
X107658238Y-110371047D02*
X107705857Y-110418666D01*
X107705857Y-110418666D02*
X107848714Y-110513904D01*
X107848714Y-110513904D02*
X108039190Y-110561523D01*
X108039190Y-110561523D02*
X108420142Y-110561523D01*
X108420142Y-110561523D02*
X108515380Y-110513904D01*
X108515380Y-110513904D02*
X108563000Y-110466285D01*
X108563000Y-110466285D02*
X108610619Y-110371047D01*
X108610619Y-110371047D02*
X108610619Y-110180571D01*
X108610619Y-110180571D02*
X108563000Y-110085333D01*
X108563000Y-110085333D02*
X108515380Y-110037714D01*
X108515380Y-110037714D02*
X108420142Y-109990095D01*
X108420142Y-109990095D02*
X108182047Y-109990095D01*
X108182047Y-109990095D02*
X108086809Y-110037714D01*
X108086809Y-110037714D02*
X108039190Y-110085333D01*
X108039190Y-110085333D02*
X107991571Y-110180571D01*
X107991571Y-110180571D02*
X107991571Y-110371047D01*
X107991571Y-110371047D02*
X108039190Y-110466285D01*
X108039190Y-110466285D02*
X108086809Y-110513904D01*
X108086809Y-110513904D02*
X108182047Y-110561523D01*
X98530642Y-119989180D02*
X98483023Y-120036800D01*
X98483023Y-120036800D02*
X98340166Y-120084419D01*
X98340166Y-120084419D02*
X98244928Y-120084419D01*
X98244928Y-120084419D02*
X98102071Y-120036800D01*
X98102071Y-120036800D02*
X98006833Y-119941561D01*
X98006833Y-119941561D02*
X97959214Y-119846323D01*
X97959214Y-119846323D02*
X97911595Y-119655847D01*
X97911595Y-119655847D02*
X97911595Y-119512990D01*
X97911595Y-119512990D02*
X97959214Y-119322514D01*
X97959214Y-119322514D02*
X98006833Y-119227276D01*
X98006833Y-119227276D02*
X98102071Y-119132038D01*
X98102071Y-119132038D02*
X98244928Y-119084419D01*
X98244928Y-119084419D02*
X98340166Y-119084419D01*
X98340166Y-119084419D02*
X98483023Y-119132038D01*
X98483023Y-119132038D02*
X98530642Y-119179657D01*
X98911595Y-119179657D02*
X98959214Y-119132038D01*
X98959214Y-119132038D02*
X99054452Y-119084419D01*
X99054452Y-119084419D02*
X99292547Y-119084419D01*
X99292547Y-119084419D02*
X99387785Y-119132038D01*
X99387785Y-119132038D02*
X99435404Y-119179657D01*
X99435404Y-119179657D02*
X99483023Y-119274895D01*
X99483023Y-119274895D02*
X99483023Y-119370133D01*
X99483023Y-119370133D02*
X99435404Y-119512990D01*
X99435404Y-119512990D02*
X98863976Y-120084419D01*
X98863976Y-120084419D02*
X99483023Y-120084419D01*
X100387785Y-119084419D02*
X99911595Y-119084419D01*
X99911595Y-119084419D02*
X99863976Y-119560609D01*
X99863976Y-119560609D02*
X99911595Y-119512990D01*
X99911595Y-119512990D02*
X100006833Y-119465371D01*
X100006833Y-119465371D02*
X100244928Y-119465371D01*
X100244928Y-119465371D02*
X100340166Y-119512990D01*
X100340166Y-119512990D02*
X100387785Y-119560609D01*
X100387785Y-119560609D02*
X100435404Y-119655847D01*
X100435404Y-119655847D02*
X100435404Y-119893942D01*
X100435404Y-119893942D02*
X100387785Y-119989180D01*
X100387785Y-119989180D02*
X100340166Y-120036800D01*
X100340166Y-120036800D02*
X100244928Y-120084419D01*
X100244928Y-120084419D02*
X100006833Y-120084419D01*
X100006833Y-120084419D02*
X99911595Y-120036800D01*
X99911595Y-120036800D02*
X99863976Y-119989180D01*
X117257533Y-104724419D02*
X116924200Y-104248228D01*
X116686105Y-104724419D02*
X116686105Y-103724419D01*
X116686105Y-103724419D02*
X117067057Y-103724419D01*
X117067057Y-103724419D02*
X117162295Y-103772038D01*
X117162295Y-103772038D02*
X117209914Y-103819657D01*
X117209914Y-103819657D02*
X117257533Y-103914895D01*
X117257533Y-103914895D02*
X117257533Y-104057752D01*
X117257533Y-104057752D02*
X117209914Y-104152990D01*
X117209914Y-104152990D02*
X117162295Y-104200609D01*
X117162295Y-104200609D02*
X117067057Y-104248228D01*
X117067057Y-104248228D02*
X116686105Y-104248228D01*
X117590867Y-103724419D02*
X118257533Y-103724419D01*
X118257533Y-103724419D02*
X117828962Y-104724419D01*
X125476219Y-112225057D02*
X125000028Y-112558390D01*
X125476219Y-112796485D02*
X124476219Y-112796485D01*
X124476219Y-112796485D02*
X124476219Y-112415533D01*
X124476219Y-112415533D02*
X124523838Y-112320295D01*
X124523838Y-112320295D02*
X124571457Y-112272676D01*
X124571457Y-112272676D02*
X124666695Y-112225057D01*
X124666695Y-112225057D02*
X124809552Y-112225057D01*
X124809552Y-112225057D02*
X124904790Y-112272676D01*
X124904790Y-112272676D02*
X124952409Y-112320295D01*
X124952409Y-112320295D02*
X125000028Y-112415533D01*
X125000028Y-112415533D02*
X125000028Y-112796485D01*
X125476219Y-111272676D02*
X125476219Y-111844104D01*
X125476219Y-111558390D02*
X124476219Y-111558390D01*
X124476219Y-111558390D02*
X124619076Y-111653628D01*
X124619076Y-111653628D02*
X124714314Y-111748866D01*
X124714314Y-111748866D02*
X124761933Y-111844104D01*
X124476219Y-110939342D02*
X124476219Y-110272676D01*
X124476219Y-110272676D02*
X125476219Y-110701247D01*
X85106333Y-93871180D02*
X85058714Y-93918800D01*
X85058714Y-93918800D02*
X84915857Y-93966419D01*
X84915857Y-93966419D02*
X84820619Y-93966419D01*
X84820619Y-93966419D02*
X84677762Y-93918800D01*
X84677762Y-93918800D02*
X84582524Y-93823561D01*
X84582524Y-93823561D02*
X84534905Y-93728323D01*
X84534905Y-93728323D02*
X84487286Y-93537847D01*
X84487286Y-93537847D02*
X84487286Y-93394990D01*
X84487286Y-93394990D02*
X84534905Y-93204514D01*
X84534905Y-93204514D02*
X84582524Y-93109276D01*
X84582524Y-93109276D02*
X84677762Y-93014038D01*
X84677762Y-93014038D02*
X84820619Y-92966419D01*
X84820619Y-92966419D02*
X84915857Y-92966419D01*
X84915857Y-92966419D02*
X85058714Y-93014038D01*
X85058714Y-93014038D02*
X85106333Y-93061657D01*
X85582524Y-93966419D02*
X85773000Y-93966419D01*
X85773000Y-93966419D02*
X85868238Y-93918800D01*
X85868238Y-93918800D02*
X85915857Y-93871180D01*
X85915857Y-93871180D02*
X86011095Y-93728323D01*
X86011095Y-93728323D02*
X86058714Y-93537847D01*
X86058714Y-93537847D02*
X86058714Y-93156895D01*
X86058714Y-93156895D02*
X86011095Y-93061657D01*
X86011095Y-93061657D02*
X85963476Y-93014038D01*
X85963476Y-93014038D02*
X85868238Y-92966419D01*
X85868238Y-92966419D02*
X85677762Y-92966419D01*
X85677762Y-92966419D02*
X85582524Y-93014038D01*
X85582524Y-93014038D02*
X85534905Y-93061657D01*
X85534905Y-93061657D02*
X85487286Y-93156895D01*
X85487286Y-93156895D02*
X85487286Y-93394990D01*
X85487286Y-93394990D02*
X85534905Y-93490228D01*
X85534905Y-93490228D02*
X85582524Y-93537847D01*
X85582524Y-93537847D02*
X85677762Y-93585466D01*
X85677762Y-93585466D02*
X85868238Y-93585466D01*
X85868238Y-93585466D02*
X85963476Y-93537847D01*
X85963476Y-93537847D02*
X86011095Y-93490228D01*
X86011095Y-93490228D02*
X86058714Y-93394990D01*
X50636333Y-83730919D02*
X50303000Y-83254728D01*
X50064905Y-83730919D02*
X50064905Y-82730919D01*
X50064905Y-82730919D02*
X50445857Y-82730919D01*
X50445857Y-82730919D02*
X50541095Y-82778538D01*
X50541095Y-82778538D02*
X50588714Y-82826157D01*
X50588714Y-82826157D02*
X50636333Y-82921395D01*
X50636333Y-82921395D02*
X50636333Y-83064252D01*
X50636333Y-83064252D02*
X50588714Y-83159490D01*
X50588714Y-83159490D02*
X50541095Y-83207109D01*
X50541095Y-83207109D02*
X50445857Y-83254728D01*
X50445857Y-83254728D02*
X50064905Y-83254728D01*
X51588714Y-83730919D02*
X51017286Y-83730919D01*
X51303000Y-83730919D02*
X51303000Y-82730919D01*
X51303000Y-82730919D02*
X51207762Y-82873776D01*
X51207762Y-82873776D02*
X51112524Y-82969014D01*
X51112524Y-82969014D02*
X51017286Y-83016633D01*
X100990495Y-117211819D02*
X100990495Y-118021342D01*
X100990495Y-118021342D02*
X101038114Y-118116580D01*
X101038114Y-118116580D02*
X101085733Y-118164200D01*
X101085733Y-118164200D02*
X101180971Y-118211819D01*
X101180971Y-118211819D02*
X101371447Y-118211819D01*
X101371447Y-118211819D02*
X101466685Y-118164200D01*
X101466685Y-118164200D02*
X101514304Y-118116580D01*
X101514304Y-118116580D02*
X101561923Y-118021342D01*
X101561923Y-118021342D02*
X101561923Y-117211819D01*
X102466685Y-117211819D02*
X102276209Y-117211819D01*
X102276209Y-117211819D02*
X102180971Y-117259438D01*
X102180971Y-117259438D02*
X102133352Y-117307057D01*
X102133352Y-117307057D02*
X102038114Y-117449914D01*
X102038114Y-117449914D02*
X101990495Y-117640390D01*
X101990495Y-117640390D02*
X101990495Y-118021342D01*
X101990495Y-118021342D02*
X102038114Y-118116580D01*
X102038114Y-118116580D02*
X102085733Y-118164200D01*
X102085733Y-118164200D02*
X102180971Y-118211819D01*
X102180971Y-118211819D02*
X102371447Y-118211819D01*
X102371447Y-118211819D02*
X102466685Y-118164200D01*
X102466685Y-118164200D02*
X102514304Y-118116580D01*
X102514304Y-118116580D02*
X102561923Y-118021342D01*
X102561923Y-118021342D02*
X102561923Y-117783247D01*
X102561923Y-117783247D02*
X102514304Y-117688009D01*
X102514304Y-117688009D02*
X102466685Y-117640390D01*
X102466685Y-117640390D02*
X102371447Y-117592771D01*
X102371447Y-117592771D02*
X102180971Y-117592771D01*
X102180971Y-117592771D02*
X102085733Y-117640390D01*
X102085733Y-117640390D02*
X102038114Y-117688009D01*
X102038114Y-117688009D02*
X101990495Y-117783247D01*
X129718019Y-112174257D02*
X129241828Y-112507590D01*
X129718019Y-112745685D02*
X128718019Y-112745685D01*
X128718019Y-112745685D02*
X128718019Y-112364733D01*
X128718019Y-112364733D02*
X128765638Y-112269495D01*
X128765638Y-112269495D02*
X128813257Y-112221876D01*
X128813257Y-112221876D02*
X128908495Y-112174257D01*
X128908495Y-112174257D02*
X129051352Y-112174257D01*
X129051352Y-112174257D02*
X129146590Y-112221876D01*
X129146590Y-112221876D02*
X129194209Y-112269495D01*
X129194209Y-112269495D02*
X129241828Y-112364733D01*
X129241828Y-112364733D02*
X129241828Y-112745685D01*
X129718019Y-111221876D02*
X129718019Y-111793304D01*
X129718019Y-111507590D02*
X128718019Y-111507590D01*
X128718019Y-111507590D02*
X128860876Y-111602828D01*
X128860876Y-111602828D02*
X128956114Y-111698066D01*
X128956114Y-111698066D02*
X129003733Y-111793304D01*
X128718019Y-110888542D02*
X128718019Y-110269495D01*
X128718019Y-110269495D02*
X129098971Y-110602828D01*
X129098971Y-110602828D02*
X129098971Y-110459971D01*
X129098971Y-110459971D02*
X129146590Y-110364733D01*
X129146590Y-110364733D02*
X129194209Y-110317114D01*
X129194209Y-110317114D02*
X129289447Y-110269495D01*
X129289447Y-110269495D02*
X129527542Y-110269495D01*
X129527542Y-110269495D02*
X129622780Y-110317114D01*
X129622780Y-110317114D02*
X129670400Y-110364733D01*
X129670400Y-110364733D02*
X129718019Y-110459971D01*
X129718019Y-110459971D02*
X129718019Y-110745685D01*
X129718019Y-110745685D02*
X129670400Y-110840923D01*
X129670400Y-110840923D02*
X129622780Y-110888542D01*
X65113333Y-92051919D02*
X64780000Y-91575728D01*
X64541905Y-92051919D02*
X64541905Y-91051919D01*
X64541905Y-91051919D02*
X64922857Y-91051919D01*
X64922857Y-91051919D02*
X65018095Y-91099538D01*
X65018095Y-91099538D02*
X65065714Y-91147157D01*
X65065714Y-91147157D02*
X65113333Y-91242395D01*
X65113333Y-91242395D02*
X65113333Y-91385252D01*
X65113333Y-91385252D02*
X65065714Y-91480490D01*
X65065714Y-91480490D02*
X65018095Y-91528109D01*
X65018095Y-91528109D02*
X64922857Y-91575728D01*
X64922857Y-91575728D02*
X64541905Y-91575728D01*
X65970476Y-91385252D02*
X65970476Y-92051919D01*
X65732381Y-91004300D02*
X65494286Y-91718585D01*
X65494286Y-91718585D02*
X66113333Y-91718585D01*
X70270333Y-96528680D02*
X70222714Y-96576300D01*
X70222714Y-96576300D02*
X70079857Y-96623919D01*
X70079857Y-96623919D02*
X69984619Y-96623919D01*
X69984619Y-96623919D02*
X69841762Y-96576300D01*
X69841762Y-96576300D02*
X69746524Y-96481061D01*
X69746524Y-96481061D02*
X69698905Y-96385823D01*
X69698905Y-96385823D02*
X69651286Y-96195347D01*
X69651286Y-96195347D02*
X69651286Y-96052490D01*
X69651286Y-96052490D02*
X69698905Y-95862014D01*
X69698905Y-95862014D02*
X69746524Y-95766776D01*
X69746524Y-95766776D02*
X69841762Y-95671538D01*
X69841762Y-95671538D02*
X69984619Y-95623919D01*
X69984619Y-95623919D02*
X70079857Y-95623919D01*
X70079857Y-95623919D02*
X70222714Y-95671538D01*
X70222714Y-95671538D02*
X70270333Y-95719157D01*
X71127476Y-95957252D02*
X71127476Y-96623919D01*
X70889381Y-95576300D02*
X70651286Y-96290585D01*
X70651286Y-96290585D02*
X71270333Y-96290585D01*
X53048333Y-98401919D02*
X52715000Y-97925728D01*
X52476905Y-98401919D02*
X52476905Y-97401919D01*
X52476905Y-97401919D02*
X52857857Y-97401919D01*
X52857857Y-97401919D02*
X52953095Y-97449538D01*
X52953095Y-97449538D02*
X53000714Y-97497157D01*
X53000714Y-97497157D02*
X53048333Y-97592395D01*
X53048333Y-97592395D02*
X53048333Y-97735252D01*
X53048333Y-97735252D02*
X53000714Y-97830490D01*
X53000714Y-97830490D02*
X52953095Y-97878109D01*
X52953095Y-97878109D02*
X52857857Y-97925728D01*
X52857857Y-97925728D02*
X52476905Y-97925728D01*
X53429286Y-97497157D02*
X53476905Y-97449538D01*
X53476905Y-97449538D02*
X53572143Y-97401919D01*
X53572143Y-97401919D02*
X53810238Y-97401919D01*
X53810238Y-97401919D02*
X53905476Y-97449538D01*
X53905476Y-97449538D02*
X53953095Y-97497157D01*
X53953095Y-97497157D02*
X54000714Y-97592395D01*
X54000714Y-97592395D02*
X54000714Y-97687633D01*
X54000714Y-97687633D02*
X53953095Y-97830490D01*
X53953095Y-97830490D02*
X53381667Y-98401919D01*
X53381667Y-98401919D02*
X54000714Y-98401919D01*
X122030419Y-103083904D02*
X122839942Y-103083904D01*
X122839942Y-103083904D02*
X122935180Y-103036285D01*
X122935180Y-103036285D02*
X122982800Y-102988666D01*
X122982800Y-102988666D02*
X123030419Y-102893428D01*
X123030419Y-102893428D02*
X123030419Y-102702952D01*
X123030419Y-102702952D02*
X122982800Y-102607714D01*
X122982800Y-102607714D02*
X122935180Y-102560095D01*
X122935180Y-102560095D02*
X122839942Y-102512476D01*
X122839942Y-102512476D02*
X122030419Y-102512476D01*
X122030419Y-101560095D02*
X122030419Y-102036285D01*
X122030419Y-102036285D02*
X122506609Y-102083904D01*
X122506609Y-102083904D02*
X122458990Y-102036285D01*
X122458990Y-102036285D02*
X122411371Y-101941047D01*
X122411371Y-101941047D02*
X122411371Y-101702952D01*
X122411371Y-101702952D02*
X122458990Y-101607714D01*
X122458990Y-101607714D02*
X122506609Y-101560095D01*
X122506609Y-101560095D02*
X122601847Y-101512476D01*
X122601847Y-101512476D02*
X122839942Y-101512476D01*
X122839942Y-101512476D02*
X122935180Y-101560095D01*
X122935180Y-101560095D02*
X122982800Y-101607714D01*
X122982800Y-101607714D02*
X123030419Y-101702952D01*
X123030419Y-101702952D02*
X123030419Y-101941047D01*
X123030419Y-101941047D02*
X122982800Y-102036285D01*
X122982800Y-102036285D02*
X122935180Y-102083904D01*
X118237219Y-119159257D02*
X117761028Y-119492590D01*
X118237219Y-119730685D02*
X117237219Y-119730685D01*
X117237219Y-119730685D02*
X117237219Y-119349733D01*
X117237219Y-119349733D02*
X117284838Y-119254495D01*
X117284838Y-119254495D02*
X117332457Y-119206876D01*
X117332457Y-119206876D02*
X117427695Y-119159257D01*
X117427695Y-119159257D02*
X117570552Y-119159257D01*
X117570552Y-119159257D02*
X117665790Y-119206876D01*
X117665790Y-119206876D02*
X117713409Y-119254495D01*
X117713409Y-119254495D02*
X117761028Y-119349733D01*
X117761028Y-119349733D02*
X117761028Y-119730685D01*
X118237219Y-118206876D02*
X118237219Y-118778304D01*
X118237219Y-118492590D02*
X117237219Y-118492590D01*
X117237219Y-118492590D02*
X117380076Y-118587828D01*
X117380076Y-118587828D02*
X117475314Y-118683066D01*
X117475314Y-118683066D02*
X117522933Y-118778304D01*
X117665790Y-117635447D02*
X117618171Y-117730685D01*
X117618171Y-117730685D02*
X117570552Y-117778304D01*
X117570552Y-117778304D02*
X117475314Y-117825923D01*
X117475314Y-117825923D02*
X117427695Y-117825923D01*
X117427695Y-117825923D02*
X117332457Y-117778304D01*
X117332457Y-117778304D02*
X117284838Y-117730685D01*
X117284838Y-117730685D02*
X117237219Y-117635447D01*
X117237219Y-117635447D02*
X117237219Y-117444971D01*
X117237219Y-117444971D02*
X117284838Y-117349733D01*
X117284838Y-117349733D02*
X117332457Y-117302114D01*
X117332457Y-117302114D02*
X117427695Y-117254495D01*
X117427695Y-117254495D02*
X117475314Y-117254495D01*
X117475314Y-117254495D02*
X117570552Y-117302114D01*
X117570552Y-117302114D02*
X117618171Y-117349733D01*
X117618171Y-117349733D02*
X117665790Y-117444971D01*
X117665790Y-117444971D02*
X117665790Y-117635447D01*
X117665790Y-117635447D02*
X117713409Y-117730685D01*
X117713409Y-117730685D02*
X117761028Y-117778304D01*
X117761028Y-117778304D02*
X117856266Y-117825923D01*
X117856266Y-117825923D02*
X118046742Y-117825923D01*
X118046742Y-117825923D02*
X118141980Y-117778304D01*
X118141980Y-117778304D02*
X118189600Y-117730685D01*
X118189600Y-117730685D02*
X118237219Y-117635447D01*
X118237219Y-117635447D02*
X118237219Y-117444971D01*
X118237219Y-117444971D02*
X118189600Y-117349733D01*
X118189600Y-117349733D02*
X118141980Y-117302114D01*
X118141980Y-117302114D02*
X118046742Y-117254495D01*
X118046742Y-117254495D02*
X117856266Y-117254495D01*
X117856266Y-117254495D02*
X117761028Y-117302114D01*
X117761028Y-117302114D02*
X117713409Y-117349733D01*
X117713409Y-117349733D02*
X117665790Y-117444971D01*
X89781142Y-78695780D02*
X89733523Y-78743400D01*
X89733523Y-78743400D02*
X89590666Y-78791019D01*
X89590666Y-78791019D02*
X89495428Y-78791019D01*
X89495428Y-78791019D02*
X89352571Y-78743400D01*
X89352571Y-78743400D02*
X89257333Y-78648161D01*
X89257333Y-78648161D02*
X89209714Y-78552923D01*
X89209714Y-78552923D02*
X89162095Y-78362447D01*
X89162095Y-78362447D02*
X89162095Y-78219590D01*
X89162095Y-78219590D02*
X89209714Y-78029114D01*
X89209714Y-78029114D02*
X89257333Y-77933876D01*
X89257333Y-77933876D02*
X89352571Y-77838638D01*
X89352571Y-77838638D02*
X89495428Y-77791019D01*
X89495428Y-77791019D02*
X89590666Y-77791019D01*
X89590666Y-77791019D02*
X89733523Y-77838638D01*
X89733523Y-77838638D02*
X89781142Y-77886257D01*
X90733523Y-78791019D02*
X90162095Y-78791019D01*
X90447809Y-78791019D02*
X90447809Y-77791019D01*
X90447809Y-77791019D02*
X90352571Y-77933876D01*
X90352571Y-77933876D02*
X90257333Y-78029114D01*
X90257333Y-78029114D02*
X90162095Y-78076733D01*
X91638285Y-77791019D02*
X91162095Y-77791019D01*
X91162095Y-77791019D02*
X91114476Y-78267209D01*
X91114476Y-78267209D02*
X91162095Y-78219590D01*
X91162095Y-78219590D02*
X91257333Y-78171971D01*
X91257333Y-78171971D02*
X91495428Y-78171971D01*
X91495428Y-78171971D02*
X91590666Y-78219590D01*
X91590666Y-78219590D02*
X91638285Y-78267209D01*
X91638285Y-78267209D02*
X91685904Y-78362447D01*
X91685904Y-78362447D02*
X91685904Y-78600542D01*
X91685904Y-78600542D02*
X91638285Y-78695780D01*
X91638285Y-78695780D02*
X91590666Y-78743400D01*
X91590666Y-78743400D02*
X91495428Y-78791019D01*
X91495428Y-78791019D02*
X91257333Y-78791019D01*
X91257333Y-78791019D02*
X91162095Y-78743400D01*
X91162095Y-78743400D02*
X91114476Y-78695780D01*
X92547095Y-90569419D02*
X92547095Y-91378942D01*
X92547095Y-91378942D02*
X92594714Y-91474180D01*
X92594714Y-91474180D02*
X92642333Y-91521800D01*
X92642333Y-91521800D02*
X92737571Y-91569419D01*
X92737571Y-91569419D02*
X92928047Y-91569419D01*
X92928047Y-91569419D02*
X93023285Y-91521800D01*
X93023285Y-91521800D02*
X93070904Y-91474180D01*
X93070904Y-91474180D02*
X93118523Y-91378942D01*
X93118523Y-91378942D02*
X93118523Y-90569419D01*
X94023285Y-90902752D02*
X94023285Y-91569419D01*
X93785190Y-90521800D02*
X93547095Y-91236085D01*
X93547095Y-91236085D02*
X94166142Y-91236085D01*
X123723619Y-93505257D02*
X123247428Y-93838590D01*
X123723619Y-94076685D02*
X122723619Y-94076685D01*
X122723619Y-94076685D02*
X122723619Y-93695733D01*
X122723619Y-93695733D02*
X122771238Y-93600495D01*
X122771238Y-93600495D02*
X122818857Y-93552876D01*
X122818857Y-93552876D02*
X122914095Y-93505257D01*
X122914095Y-93505257D02*
X123056952Y-93505257D01*
X123056952Y-93505257D02*
X123152190Y-93552876D01*
X123152190Y-93552876D02*
X123199809Y-93600495D01*
X123199809Y-93600495D02*
X123247428Y-93695733D01*
X123247428Y-93695733D02*
X123247428Y-94076685D01*
X123723619Y-92552876D02*
X123723619Y-93124304D01*
X123723619Y-92838590D02*
X122723619Y-92838590D01*
X122723619Y-92838590D02*
X122866476Y-92933828D01*
X122866476Y-92933828D02*
X122961714Y-93029066D01*
X122961714Y-93029066D02*
X123009333Y-93124304D01*
X123723619Y-91600495D02*
X123723619Y-92171923D01*
X123723619Y-91886209D02*
X122723619Y-91886209D01*
X122723619Y-91886209D02*
X122866476Y-91981447D01*
X122866476Y-91981447D02*
X122961714Y-92076685D01*
X122961714Y-92076685D02*
X123009333Y-92171923D01*
X45691466Y-84395019D02*
X45691466Y-85109304D01*
X45691466Y-85109304D02*
X45643847Y-85252161D01*
X45643847Y-85252161D02*
X45548609Y-85347400D01*
X45548609Y-85347400D02*
X45405752Y-85395019D01*
X45405752Y-85395019D02*
X45310514Y-85395019D01*
X46072419Y-84395019D02*
X46691466Y-84395019D01*
X46691466Y-84395019D02*
X46358133Y-84775971D01*
X46358133Y-84775971D02*
X46500990Y-84775971D01*
X46500990Y-84775971D02*
X46596228Y-84823590D01*
X46596228Y-84823590D02*
X46643847Y-84871209D01*
X46643847Y-84871209D02*
X46691466Y-84966447D01*
X46691466Y-84966447D02*
X46691466Y-85204542D01*
X46691466Y-85204542D02*
X46643847Y-85299780D01*
X46643847Y-85299780D02*
X46596228Y-85347400D01*
X46596228Y-85347400D02*
X46500990Y-85395019D01*
X46500990Y-85395019D02*
X46215276Y-85395019D01*
X46215276Y-85395019D02*
X46120038Y-85347400D01*
X46120038Y-85347400D02*
X46072419Y-85299780D01*
X122448142Y-120842419D02*
X122114809Y-120366228D01*
X121876714Y-120842419D02*
X121876714Y-119842419D01*
X121876714Y-119842419D02*
X122257666Y-119842419D01*
X122257666Y-119842419D02*
X122352904Y-119890038D01*
X122352904Y-119890038D02*
X122400523Y-119937657D01*
X122400523Y-119937657D02*
X122448142Y-120032895D01*
X122448142Y-120032895D02*
X122448142Y-120175752D01*
X122448142Y-120175752D02*
X122400523Y-120270990D01*
X122400523Y-120270990D02*
X122352904Y-120318609D01*
X122352904Y-120318609D02*
X122257666Y-120366228D01*
X122257666Y-120366228D02*
X121876714Y-120366228D01*
X123400523Y-120842419D02*
X122829095Y-120842419D01*
X123114809Y-120842419D02*
X123114809Y-119842419D01*
X123114809Y-119842419D02*
X123019571Y-119985276D01*
X123019571Y-119985276D02*
X122924333Y-120080514D01*
X122924333Y-120080514D02*
X122829095Y-120128133D01*
X123876714Y-120842419D02*
X124067190Y-120842419D01*
X124067190Y-120842419D02*
X124162428Y-120794800D01*
X124162428Y-120794800D02*
X124210047Y-120747180D01*
X124210047Y-120747180D02*
X124305285Y-120604323D01*
X124305285Y-120604323D02*
X124352904Y-120413847D01*
X124352904Y-120413847D02*
X124352904Y-120032895D01*
X124352904Y-120032895D02*
X124305285Y-119937657D01*
X124305285Y-119937657D02*
X124257666Y-119890038D01*
X124257666Y-119890038D02*
X124162428Y-119842419D01*
X124162428Y-119842419D02*
X123971952Y-119842419D01*
X123971952Y-119842419D02*
X123876714Y-119890038D01*
X123876714Y-119890038D02*
X123829095Y-119937657D01*
X123829095Y-119937657D02*
X123781476Y-120032895D01*
X123781476Y-120032895D02*
X123781476Y-120270990D01*
X123781476Y-120270990D02*
X123829095Y-120366228D01*
X123829095Y-120366228D02*
X123876714Y-120413847D01*
X123876714Y-120413847D02*
X123971952Y-120461466D01*
X123971952Y-120461466D02*
X124162428Y-120461466D01*
X124162428Y-120461466D02*
X124257666Y-120413847D01*
X124257666Y-120413847D02*
X124305285Y-120366228D01*
X124305285Y-120366228D02*
X124352904Y-120270990D01*
X60807380Y-93508533D02*
X61283571Y-93175200D01*
X60807380Y-92937105D02*
X61807380Y-92937105D01*
X61807380Y-92937105D02*
X61807380Y-93318057D01*
X61807380Y-93318057D02*
X61759761Y-93413295D01*
X61759761Y-93413295D02*
X61712142Y-93460914D01*
X61712142Y-93460914D02*
X61616904Y-93508533D01*
X61616904Y-93508533D02*
X61474047Y-93508533D01*
X61474047Y-93508533D02*
X61378809Y-93460914D01*
X61378809Y-93460914D02*
X61331190Y-93413295D01*
X61331190Y-93413295D02*
X61283571Y-93318057D01*
X61283571Y-93318057D02*
X61283571Y-92937105D01*
X61807380Y-93841867D02*
X61807380Y-94460914D01*
X61807380Y-94460914D02*
X61426428Y-94127581D01*
X61426428Y-94127581D02*
X61426428Y-94270438D01*
X61426428Y-94270438D02*
X61378809Y-94365676D01*
X61378809Y-94365676D02*
X61331190Y-94413295D01*
X61331190Y-94413295D02*
X61235952Y-94460914D01*
X61235952Y-94460914D02*
X60997857Y-94460914D01*
X60997857Y-94460914D02*
X60902619Y-94413295D01*
X60902619Y-94413295D02*
X60855000Y-94365676D01*
X60855000Y-94365676D02*
X60807380Y-94270438D01*
X60807380Y-94270438D02*
X60807380Y-93984724D01*
X60807380Y-93984724D02*
X60855000Y-93889486D01*
X60855000Y-93889486D02*
X60902619Y-93841867D01*
X83024742Y-87687380D02*
X82977123Y-87735000D01*
X82977123Y-87735000D02*
X82834266Y-87782619D01*
X82834266Y-87782619D02*
X82739028Y-87782619D01*
X82739028Y-87782619D02*
X82596171Y-87735000D01*
X82596171Y-87735000D02*
X82500933Y-87639761D01*
X82500933Y-87639761D02*
X82453314Y-87544523D01*
X82453314Y-87544523D02*
X82405695Y-87354047D01*
X82405695Y-87354047D02*
X82405695Y-87211190D01*
X82405695Y-87211190D02*
X82453314Y-87020714D01*
X82453314Y-87020714D02*
X82500933Y-86925476D01*
X82500933Y-86925476D02*
X82596171Y-86830238D01*
X82596171Y-86830238D02*
X82739028Y-86782619D01*
X82739028Y-86782619D02*
X82834266Y-86782619D01*
X82834266Y-86782619D02*
X82977123Y-86830238D01*
X82977123Y-86830238D02*
X83024742Y-86877857D01*
X83977123Y-87782619D02*
X83405695Y-87782619D01*
X83691409Y-87782619D02*
X83691409Y-86782619D01*
X83691409Y-86782619D02*
X83596171Y-86925476D01*
X83596171Y-86925476D02*
X83500933Y-87020714D01*
X83500933Y-87020714D02*
X83405695Y-87068333D01*
X84310457Y-86782619D02*
X84929504Y-86782619D01*
X84929504Y-86782619D02*
X84596171Y-87163571D01*
X84596171Y-87163571D02*
X84739028Y-87163571D01*
X84739028Y-87163571D02*
X84834266Y-87211190D01*
X84834266Y-87211190D02*
X84881885Y-87258809D01*
X84881885Y-87258809D02*
X84929504Y-87354047D01*
X84929504Y-87354047D02*
X84929504Y-87592142D01*
X84929504Y-87592142D02*
X84881885Y-87687380D01*
X84881885Y-87687380D02*
X84834266Y-87735000D01*
X84834266Y-87735000D02*
X84739028Y-87782619D01*
X84739028Y-87782619D02*
X84453314Y-87782619D01*
X84453314Y-87782619D02*
X84358076Y-87735000D01*
X84358076Y-87735000D02*
X84310457Y-87687380D01*
X134643905Y-112725419D02*
X134643905Y-111725419D01*
X134643905Y-111725419D02*
X134882000Y-111725419D01*
X134882000Y-111725419D02*
X135024857Y-111773038D01*
X135024857Y-111773038D02*
X135120095Y-111868276D01*
X135120095Y-111868276D02*
X135167714Y-111963514D01*
X135167714Y-111963514D02*
X135215333Y-112153990D01*
X135215333Y-112153990D02*
X135215333Y-112296847D01*
X135215333Y-112296847D02*
X135167714Y-112487323D01*
X135167714Y-112487323D02*
X135120095Y-112582561D01*
X135120095Y-112582561D02*
X135024857Y-112677800D01*
X135024857Y-112677800D02*
X134882000Y-112725419D01*
X134882000Y-112725419D02*
X134643905Y-112725419D01*
X135548667Y-111725419D02*
X136167714Y-111725419D01*
X136167714Y-111725419D02*
X135834381Y-112106371D01*
X135834381Y-112106371D02*
X135977238Y-112106371D01*
X135977238Y-112106371D02*
X136072476Y-112153990D01*
X136072476Y-112153990D02*
X136120095Y-112201609D01*
X136120095Y-112201609D02*
X136167714Y-112296847D01*
X136167714Y-112296847D02*
X136167714Y-112534942D01*
X136167714Y-112534942D02*
X136120095Y-112630180D01*
X136120095Y-112630180D02*
X136072476Y-112677800D01*
X136072476Y-112677800D02*
X135977238Y-112725419D01*
X135977238Y-112725419D02*
X135691524Y-112725419D01*
X135691524Y-112725419D02*
X135596286Y-112677800D01*
X135596286Y-112677800D02*
X135548667Y-112630180D01*
X103617733Y-88855780D02*
X103570114Y-88903400D01*
X103570114Y-88903400D02*
X103427257Y-88951019D01*
X103427257Y-88951019D02*
X103332019Y-88951019D01*
X103332019Y-88951019D02*
X103189162Y-88903400D01*
X103189162Y-88903400D02*
X103093924Y-88808161D01*
X103093924Y-88808161D02*
X103046305Y-88712923D01*
X103046305Y-88712923D02*
X102998686Y-88522447D01*
X102998686Y-88522447D02*
X102998686Y-88379590D01*
X102998686Y-88379590D02*
X103046305Y-88189114D01*
X103046305Y-88189114D02*
X103093924Y-88093876D01*
X103093924Y-88093876D02*
X103189162Y-87998638D01*
X103189162Y-87998638D02*
X103332019Y-87951019D01*
X103332019Y-87951019D02*
X103427257Y-87951019D01*
X103427257Y-87951019D02*
X103570114Y-87998638D01*
X103570114Y-87998638D02*
X103617733Y-88046257D01*
X103951067Y-87951019D02*
X104570114Y-87951019D01*
X104570114Y-87951019D02*
X104236781Y-88331971D01*
X104236781Y-88331971D02*
X104379638Y-88331971D01*
X104379638Y-88331971D02*
X104474876Y-88379590D01*
X104474876Y-88379590D02*
X104522495Y-88427209D01*
X104522495Y-88427209D02*
X104570114Y-88522447D01*
X104570114Y-88522447D02*
X104570114Y-88760542D01*
X104570114Y-88760542D02*
X104522495Y-88855780D01*
X104522495Y-88855780D02*
X104474876Y-88903400D01*
X104474876Y-88903400D02*
X104379638Y-88951019D01*
X104379638Y-88951019D02*
X104093924Y-88951019D01*
X104093924Y-88951019D02*
X103998686Y-88903400D01*
X103998686Y-88903400D02*
X103951067Y-88855780D01*
X58216895Y-86935019D02*
X58216895Y-87744542D01*
X58216895Y-87744542D02*
X58264514Y-87839780D01*
X58264514Y-87839780D02*
X58312133Y-87887400D01*
X58312133Y-87887400D02*
X58407371Y-87935019D01*
X58407371Y-87935019D02*
X58597847Y-87935019D01*
X58597847Y-87935019D02*
X58693085Y-87887400D01*
X58693085Y-87887400D02*
X58740704Y-87839780D01*
X58740704Y-87839780D02*
X58788323Y-87744542D01*
X58788323Y-87744542D02*
X58788323Y-86935019D01*
X59216895Y-87030257D02*
X59264514Y-86982638D01*
X59264514Y-86982638D02*
X59359752Y-86935019D01*
X59359752Y-86935019D02*
X59597847Y-86935019D01*
X59597847Y-86935019D02*
X59693085Y-86982638D01*
X59693085Y-86982638D02*
X59740704Y-87030257D01*
X59740704Y-87030257D02*
X59788323Y-87125495D01*
X59788323Y-87125495D02*
X59788323Y-87220733D01*
X59788323Y-87220733D02*
X59740704Y-87363590D01*
X59740704Y-87363590D02*
X59169276Y-87935019D01*
X59169276Y-87935019D02*
X59788323Y-87935019D01*
X101978166Y-96617609D02*
X101644833Y-96617609D01*
X101644833Y-97141419D02*
X101644833Y-96141419D01*
X101644833Y-96141419D02*
X102121023Y-96141419D01*
X102835309Y-96617609D02*
X102978166Y-96665228D01*
X102978166Y-96665228D02*
X103025785Y-96712847D01*
X103025785Y-96712847D02*
X103073404Y-96808085D01*
X103073404Y-96808085D02*
X103073404Y-96950942D01*
X103073404Y-96950942D02*
X103025785Y-97046180D01*
X103025785Y-97046180D02*
X102978166Y-97093800D01*
X102978166Y-97093800D02*
X102882928Y-97141419D01*
X102882928Y-97141419D02*
X102501976Y-97141419D01*
X102501976Y-97141419D02*
X102501976Y-96141419D01*
X102501976Y-96141419D02*
X102835309Y-96141419D01*
X102835309Y-96141419D02*
X102930547Y-96189038D01*
X102930547Y-96189038D02*
X102978166Y-96236657D01*
X102978166Y-96236657D02*
X103025785Y-96331895D01*
X103025785Y-96331895D02*
X103025785Y-96427133D01*
X103025785Y-96427133D02*
X102978166Y-96522371D01*
X102978166Y-96522371D02*
X102930547Y-96569990D01*
X102930547Y-96569990D02*
X102835309Y-96617609D01*
X102835309Y-96617609D02*
X102501976Y-96617609D01*
X104025785Y-97141419D02*
X103454357Y-97141419D01*
X103740071Y-97141419D02*
X103740071Y-96141419D01*
X103740071Y-96141419D02*
X103644833Y-96284276D01*
X103644833Y-96284276D02*
X103549595Y-96379514D01*
X103549595Y-96379514D02*
X103454357Y-96427133D01*
X136907419Y-102092857D02*
X136431228Y-102426190D01*
X136907419Y-102664285D02*
X135907419Y-102664285D01*
X135907419Y-102664285D02*
X135907419Y-102283333D01*
X135907419Y-102283333D02*
X135955038Y-102188095D01*
X135955038Y-102188095D02*
X136002657Y-102140476D01*
X136002657Y-102140476D02*
X136097895Y-102092857D01*
X136097895Y-102092857D02*
X136240752Y-102092857D01*
X136240752Y-102092857D02*
X136335990Y-102140476D01*
X136335990Y-102140476D02*
X136383609Y-102188095D01*
X136383609Y-102188095D02*
X136431228Y-102283333D01*
X136431228Y-102283333D02*
X136431228Y-102664285D01*
X136907419Y-101140476D02*
X136907419Y-101711904D01*
X136907419Y-101426190D02*
X135907419Y-101426190D01*
X135907419Y-101426190D02*
X136050276Y-101521428D01*
X136050276Y-101521428D02*
X136145514Y-101616666D01*
X136145514Y-101616666D02*
X136193133Y-101711904D01*
X135907419Y-100283333D02*
X135907419Y-100473809D01*
X135907419Y-100473809D02*
X135955038Y-100569047D01*
X135955038Y-100569047D02*
X136002657Y-100616666D01*
X136002657Y-100616666D02*
X136145514Y-100711904D01*
X136145514Y-100711904D02*
X136335990Y-100759523D01*
X136335990Y-100759523D02*
X136716942Y-100759523D01*
X136716942Y-100759523D02*
X136812180Y-100711904D01*
X136812180Y-100711904D02*
X136859800Y-100664285D01*
X136859800Y-100664285D02*
X136907419Y-100569047D01*
X136907419Y-100569047D02*
X136907419Y-100378571D01*
X136907419Y-100378571D02*
X136859800Y-100283333D01*
X136859800Y-100283333D02*
X136812180Y-100235714D01*
X136812180Y-100235714D02*
X136716942Y-100188095D01*
X136716942Y-100188095D02*
X136478847Y-100188095D01*
X136478847Y-100188095D02*
X136383609Y-100235714D01*
X136383609Y-100235714D02*
X136335990Y-100283333D01*
X136335990Y-100283333D02*
X136288371Y-100378571D01*
X136288371Y-100378571D02*
X136288371Y-100569047D01*
X136288371Y-100569047D02*
X136335990Y-100664285D01*
X136335990Y-100664285D02*
X136383609Y-100711904D01*
X136383609Y-100711904D02*
X136478847Y-100759523D01*
X125468142Y-92005380D02*
X125420523Y-92053000D01*
X125420523Y-92053000D02*
X125277666Y-92100619D01*
X125277666Y-92100619D02*
X125182428Y-92100619D01*
X125182428Y-92100619D02*
X125039571Y-92053000D01*
X125039571Y-92053000D02*
X124944333Y-91957761D01*
X124944333Y-91957761D02*
X124896714Y-91862523D01*
X124896714Y-91862523D02*
X124849095Y-91672047D01*
X124849095Y-91672047D02*
X124849095Y-91529190D01*
X124849095Y-91529190D02*
X124896714Y-91338714D01*
X124896714Y-91338714D02*
X124944333Y-91243476D01*
X124944333Y-91243476D02*
X125039571Y-91148238D01*
X125039571Y-91148238D02*
X125182428Y-91100619D01*
X125182428Y-91100619D02*
X125277666Y-91100619D01*
X125277666Y-91100619D02*
X125420523Y-91148238D01*
X125420523Y-91148238D02*
X125468142Y-91195857D01*
X125849095Y-91195857D02*
X125896714Y-91148238D01*
X125896714Y-91148238D02*
X125991952Y-91100619D01*
X125991952Y-91100619D02*
X126230047Y-91100619D01*
X126230047Y-91100619D02*
X126325285Y-91148238D01*
X126325285Y-91148238D02*
X126372904Y-91195857D01*
X126372904Y-91195857D02*
X126420523Y-91291095D01*
X126420523Y-91291095D02*
X126420523Y-91386333D01*
X126420523Y-91386333D02*
X126372904Y-91529190D01*
X126372904Y-91529190D02*
X125801476Y-92100619D01*
X125801476Y-92100619D02*
X126420523Y-92100619D01*
X127372904Y-92100619D02*
X126801476Y-92100619D01*
X127087190Y-92100619D02*
X127087190Y-91100619D01*
X127087190Y-91100619D02*
X126991952Y-91243476D01*
X126991952Y-91243476D02*
X126896714Y-91338714D01*
X126896714Y-91338714D02*
X126801476Y-91386333D01*
X81775228Y-97381190D02*
X82251419Y-97381190D01*
X81251419Y-97714523D02*
X81775228Y-97381190D01*
X81775228Y-97381190D02*
X81251419Y-97047857D01*
X82251419Y-96190714D02*
X82251419Y-96762142D01*
X82251419Y-96476428D02*
X81251419Y-96476428D01*
X81251419Y-96476428D02*
X81394276Y-96571666D01*
X81394276Y-96571666D02*
X81489514Y-96666904D01*
X81489514Y-96666904D02*
X81537133Y-96762142D01*
X131767342Y-92862619D02*
X131434009Y-92386428D01*
X131195914Y-92862619D02*
X131195914Y-91862619D01*
X131195914Y-91862619D02*
X131576866Y-91862619D01*
X131576866Y-91862619D02*
X131672104Y-91910238D01*
X131672104Y-91910238D02*
X131719723Y-91957857D01*
X131719723Y-91957857D02*
X131767342Y-92053095D01*
X131767342Y-92053095D02*
X131767342Y-92195952D01*
X131767342Y-92195952D02*
X131719723Y-92291190D01*
X131719723Y-92291190D02*
X131672104Y-92338809D01*
X131672104Y-92338809D02*
X131576866Y-92386428D01*
X131576866Y-92386428D02*
X131195914Y-92386428D01*
X132719723Y-92862619D02*
X132148295Y-92862619D01*
X132434009Y-92862619D02*
X132434009Y-91862619D01*
X132434009Y-91862619D02*
X132338771Y-92005476D01*
X132338771Y-92005476D02*
X132243533Y-92100714D01*
X132243533Y-92100714D02*
X132148295Y-92148333D01*
X133100676Y-91957857D02*
X133148295Y-91910238D01*
X133148295Y-91910238D02*
X133243533Y-91862619D01*
X133243533Y-91862619D02*
X133481628Y-91862619D01*
X133481628Y-91862619D02*
X133576866Y-91910238D01*
X133576866Y-91910238D02*
X133624485Y-91957857D01*
X133624485Y-91957857D02*
X133672104Y-92053095D01*
X133672104Y-92053095D02*
X133672104Y-92148333D01*
X133672104Y-92148333D02*
X133624485Y-92291190D01*
X133624485Y-92291190D02*
X133053057Y-92862619D01*
X133053057Y-92862619D02*
X133672104Y-92862619D01*
X132357419Y-113088094D02*
X131357419Y-113088094D01*
X131357419Y-113088094D02*
X131357419Y-112849999D01*
X131357419Y-112849999D02*
X131405038Y-112707142D01*
X131405038Y-112707142D02*
X131500276Y-112611904D01*
X131500276Y-112611904D02*
X131595514Y-112564285D01*
X131595514Y-112564285D02*
X131785990Y-112516666D01*
X131785990Y-112516666D02*
X131928847Y-112516666D01*
X131928847Y-112516666D02*
X132119323Y-112564285D01*
X132119323Y-112564285D02*
X132214561Y-112611904D01*
X132214561Y-112611904D02*
X132309800Y-112707142D01*
X132309800Y-112707142D02*
X132357419Y-112849999D01*
X132357419Y-112849999D02*
X132357419Y-113088094D01*
X131690752Y-111659523D02*
X132357419Y-111659523D01*
X131309800Y-111897618D02*
X132024085Y-112135713D01*
X132024085Y-112135713D02*
X132024085Y-111516666D01*
X103674942Y-109505980D02*
X103627323Y-109553600D01*
X103627323Y-109553600D02*
X103484466Y-109601219D01*
X103484466Y-109601219D02*
X103389228Y-109601219D01*
X103389228Y-109601219D02*
X103246371Y-109553600D01*
X103246371Y-109553600D02*
X103151133Y-109458361D01*
X103151133Y-109458361D02*
X103103514Y-109363123D01*
X103103514Y-109363123D02*
X103055895Y-109172647D01*
X103055895Y-109172647D02*
X103055895Y-109029790D01*
X103055895Y-109029790D02*
X103103514Y-108839314D01*
X103103514Y-108839314D02*
X103151133Y-108744076D01*
X103151133Y-108744076D02*
X103246371Y-108648838D01*
X103246371Y-108648838D02*
X103389228Y-108601219D01*
X103389228Y-108601219D02*
X103484466Y-108601219D01*
X103484466Y-108601219D02*
X103627323Y-108648838D01*
X103627323Y-108648838D02*
X103674942Y-108696457D01*
X104055895Y-108696457D02*
X104103514Y-108648838D01*
X104103514Y-108648838D02*
X104198752Y-108601219D01*
X104198752Y-108601219D02*
X104436847Y-108601219D01*
X104436847Y-108601219D02*
X104532085Y-108648838D01*
X104532085Y-108648838D02*
X104579704Y-108696457D01*
X104579704Y-108696457D02*
X104627323Y-108791695D01*
X104627323Y-108791695D02*
X104627323Y-108886933D01*
X104627323Y-108886933D02*
X104579704Y-109029790D01*
X104579704Y-109029790D02*
X104008276Y-109601219D01*
X104008276Y-109601219D02*
X104627323Y-109601219D01*
X104960657Y-108601219D02*
X105627323Y-108601219D01*
X105627323Y-108601219D02*
X105198752Y-109601219D01*
X72200419Y-92343724D02*
X73009942Y-92343724D01*
X73009942Y-92343724D02*
X73105180Y-92296105D01*
X73105180Y-92296105D02*
X73152800Y-92248486D01*
X73152800Y-92248486D02*
X73200419Y-92153248D01*
X73200419Y-92153248D02*
X73200419Y-91962772D01*
X73200419Y-91962772D02*
X73152800Y-91867534D01*
X73152800Y-91867534D02*
X73105180Y-91819915D01*
X73105180Y-91819915D02*
X73009942Y-91772296D01*
X73009942Y-91772296D02*
X72200419Y-91772296D01*
X72200419Y-91391343D02*
X72200419Y-90772296D01*
X72200419Y-90772296D02*
X72581371Y-91105629D01*
X72581371Y-91105629D02*
X72581371Y-90962772D01*
X72581371Y-90962772D02*
X72628990Y-90867534D01*
X72628990Y-90867534D02*
X72676609Y-90819915D01*
X72676609Y-90819915D02*
X72771847Y-90772296D01*
X72771847Y-90772296D02*
X73009942Y-90772296D01*
X73009942Y-90772296D02*
X73105180Y-90819915D01*
X73105180Y-90819915D02*
X73152800Y-90867534D01*
X73152800Y-90867534D02*
X73200419Y-90962772D01*
X73200419Y-90962772D02*
X73200419Y-91248486D01*
X73200419Y-91248486D02*
X73152800Y-91343724D01*
X73152800Y-91343724D02*
X73105180Y-91391343D01*
X96480333Y-90278180D02*
X96432714Y-90325800D01*
X96432714Y-90325800D02*
X96289857Y-90373419D01*
X96289857Y-90373419D02*
X96194619Y-90373419D01*
X96194619Y-90373419D02*
X96051762Y-90325800D01*
X96051762Y-90325800D02*
X95956524Y-90230561D01*
X95956524Y-90230561D02*
X95908905Y-90135323D01*
X95908905Y-90135323D02*
X95861286Y-89944847D01*
X95861286Y-89944847D02*
X95861286Y-89801990D01*
X95861286Y-89801990D02*
X95908905Y-89611514D01*
X95908905Y-89611514D02*
X95956524Y-89516276D01*
X95956524Y-89516276D02*
X96051762Y-89421038D01*
X96051762Y-89421038D02*
X96194619Y-89373419D01*
X96194619Y-89373419D02*
X96289857Y-89373419D01*
X96289857Y-89373419D02*
X96432714Y-89421038D01*
X96432714Y-89421038D02*
X96480333Y-89468657D01*
X97337476Y-89373419D02*
X97147000Y-89373419D01*
X97147000Y-89373419D02*
X97051762Y-89421038D01*
X97051762Y-89421038D02*
X97004143Y-89468657D01*
X97004143Y-89468657D02*
X96908905Y-89611514D01*
X96908905Y-89611514D02*
X96861286Y-89801990D01*
X96861286Y-89801990D02*
X96861286Y-90182942D01*
X96861286Y-90182942D02*
X96908905Y-90278180D01*
X96908905Y-90278180D02*
X96956524Y-90325800D01*
X96956524Y-90325800D02*
X97051762Y-90373419D01*
X97051762Y-90373419D02*
X97242238Y-90373419D01*
X97242238Y-90373419D02*
X97337476Y-90325800D01*
X97337476Y-90325800D02*
X97385095Y-90278180D01*
X97385095Y-90278180D02*
X97432714Y-90182942D01*
X97432714Y-90182942D02*
X97432714Y-89944847D01*
X97432714Y-89944847D02*
X97385095Y-89849609D01*
X97385095Y-89849609D02*
X97337476Y-89801990D01*
X97337476Y-89801990D02*
X97242238Y-89754371D01*
X97242238Y-89754371D02*
X97051762Y-89754371D01*
X97051762Y-89754371D02*
X96956524Y-89801990D01*
X96956524Y-89801990D02*
X96908905Y-89849609D01*
X96908905Y-89849609D02*
X96861286Y-89944847D01*
X75146333Y-92051919D02*
X74813000Y-91575728D01*
X74574905Y-92051919D02*
X74574905Y-91051919D01*
X74574905Y-91051919D02*
X74955857Y-91051919D01*
X74955857Y-91051919D02*
X75051095Y-91099538D01*
X75051095Y-91099538D02*
X75098714Y-91147157D01*
X75098714Y-91147157D02*
X75146333Y-91242395D01*
X75146333Y-91242395D02*
X75146333Y-91385252D01*
X75146333Y-91385252D02*
X75098714Y-91480490D01*
X75098714Y-91480490D02*
X75051095Y-91528109D01*
X75051095Y-91528109D02*
X74955857Y-91575728D01*
X74955857Y-91575728D02*
X74574905Y-91575728D01*
X76051095Y-91051919D02*
X75574905Y-91051919D01*
X75574905Y-91051919D02*
X75527286Y-91528109D01*
X75527286Y-91528109D02*
X75574905Y-91480490D01*
X75574905Y-91480490D02*
X75670143Y-91432871D01*
X75670143Y-91432871D02*
X75908238Y-91432871D01*
X75908238Y-91432871D02*
X76003476Y-91480490D01*
X76003476Y-91480490D02*
X76051095Y-91528109D01*
X76051095Y-91528109D02*
X76098714Y-91623347D01*
X76098714Y-91623347D02*
X76098714Y-91861442D01*
X76098714Y-91861442D02*
X76051095Y-91956680D01*
X76051095Y-91956680D02*
X76003476Y-92004300D01*
X76003476Y-92004300D02*
X75908238Y-92051919D01*
X75908238Y-92051919D02*
X75670143Y-92051919D01*
X75670143Y-92051919D02*
X75574905Y-92004300D01*
X75574905Y-92004300D02*
X75527286Y-91956680D01*
X135275142Y-94299419D02*
X134941809Y-93823228D01*
X134703714Y-94299419D02*
X134703714Y-93299419D01*
X134703714Y-93299419D02*
X135084666Y-93299419D01*
X135084666Y-93299419D02*
X135179904Y-93347038D01*
X135179904Y-93347038D02*
X135227523Y-93394657D01*
X135227523Y-93394657D02*
X135275142Y-93489895D01*
X135275142Y-93489895D02*
X135275142Y-93632752D01*
X135275142Y-93632752D02*
X135227523Y-93727990D01*
X135227523Y-93727990D02*
X135179904Y-93775609D01*
X135179904Y-93775609D02*
X135084666Y-93823228D01*
X135084666Y-93823228D02*
X134703714Y-93823228D01*
X136227523Y-94299419D02*
X135656095Y-94299419D01*
X135941809Y-94299419D02*
X135941809Y-93299419D01*
X135941809Y-93299419D02*
X135846571Y-93442276D01*
X135846571Y-93442276D02*
X135751333Y-93537514D01*
X135751333Y-93537514D02*
X135656095Y-93585133D01*
X136846571Y-93299419D02*
X136941809Y-93299419D01*
X136941809Y-93299419D02*
X137037047Y-93347038D01*
X137037047Y-93347038D02*
X137084666Y-93394657D01*
X137084666Y-93394657D02*
X137132285Y-93489895D01*
X137132285Y-93489895D02*
X137179904Y-93680371D01*
X137179904Y-93680371D02*
X137179904Y-93918466D01*
X137179904Y-93918466D02*
X137132285Y-94108942D01*
X137132285Y-94108942D02*
X137084666Y-94204180D01*
X137084666Y-94204180D02*
X137037047Y-94251800D01*
X137037047Y-94251800D02*
X136941809Y-94299419D01*
X136941809Y-94299419D02*
X136846571Y-94299419D01*
X136846571Y-94299419D02*
X136751333Y-94251800D01*
X136751333Y-94251800D02*
X136703714Y-94204180D01*
X136703714Y-94204180D02*
X136656095Y-94108942D01*
X136656095Y-94108942D02*
X136608476Y-93918466D01*
X136608476Y-93918466D02*
X136608476Y-93680371D01*
X136608476Y-93680371D02*
X136656095Y-93489895D01*
X136656095Y-93489895D02*
X136703714Y-93394657D01*
X136703714Y-93394657D02*
X136751333Y-93347038D01*
X136751333Y-93347038D02*
X136846571Y-93299419D01*
X99452666Y-59140419D02*
X99452666Y-59854704D01*
X99452666Y-59854704D02*
X99405047Y-59997561D01*
X99405047Y-59997561D02*
X99309809Y-60092800D01*
X99309809Y-60092800D02*
X99166952Y-60140419D01*
X99166952Y-60140419D02*
X99071714Y-60140419D01*
X100452666Y-60140419D02*
X99881238Y-60140419D01*
X100166952Y-60140419D02*
X100166952Y-59140419D01*
X100166952Y-59140419D02*
X100071714Y-59283276D01*
X100071714Y-59283276D02*
X99976476Y-59378514D01*
X99976476Y-59378514D02*
X99881238Y-59426133D01*
D11*
%TO.C,C24*%
X100584080Y-109813000D02*
X100302920Y-109813000D01*
X100584080Y-110833000D02*
X100302920Y-110833000D01*
%TO.C,C1*%
X53900420Y-84193500D02*
X54181580Y-84193500D01*
X53900420Y-85213500D02*
X54181580Y-85213500D01*
%TO.C,C12*%
X90467580Y-82171000D02*
X90186420Y-82171000D01*
X90467580Y-83191000D02*
X90186420Y-83191000D01*
%TO.C,R9*%
X133426500Y-105097258D02*
X133426500Y-104622742D01*
X134471500Y-105097258D02*
X134471500Y-104622742D01*
%TO.C,C18*%
X126581000Y-107818420D02*
X126581000Y-108099580D01*
X127601000Y-107818420D02*
X127601000Y-108099580D01*
%TO.C,U1*%
X52227000Y-89635500D02*
X52277000Y-89635500D01*
X52227000Y-91455500D02*
X52227000Y-89635500D01*
X52277000Y-91455500D02*
X52227000Y-91455500D01*
X55297000Y-89635500D02*
X55347000Y-89635500D01*
X55347000Y-89635500D02*
X55347000Y-91455500D01*
X55347000Y-91455500D02*
X55297000Y-91455500D01*
X52277000Y-91995500D02*
X51947000Y-92235500D01*
X51947000Y-91755500D01*
X52277000Y-91995500D01*
G36*
X52277000Y-91995500D02*
G01*
X51947000Y-92235500D01*
X51947000Y-91755500D01*
X52277000Y-91995500D01*
G37*
%TO.C,C19*%
X121755000Y-107818420D02*
X121755000Y-108099580D01*
X122775000Y-107818420D02*
X122775000Y-108099580D01*
%TO.C,C17*%
X123000420Y-123972000D02*
X123281580Y-123972000D01*
X123000420Y-124992000D02*
X123281580Y-124992000D01*
%TO.C,D2*%
X113264000Y-110331000D02*
X113264000Y-106321000D01*
X113264000Y-110331000D02*
X115264000Y-110331000D01*
X115264000Y-110331000D02*
X115264000Y-106321000D01*
%TO.C,C7*%
X75403580Y-92321500D02*
X75122420Y-92321500D01*
X75403580Y-93341500D02*
X75122420Y-93341500D01*
%TO.C,U7*%
X88878000Y-109499000D02*
X89628000Y-109499000D01*
X88878000Y-110249000D02*
X88878000Y-109499000D01*
X88878000Y-115719000D02*
X88878000Y-114969000D01*
X89628000Y-115719000D02*
X88878000Y-115719000D01*
X94348000Y-109499000D02*
X95098000Y-109499000D01*
X95098000Y-109499000D02*
X95098000Y-110249000D01*
X95098000Y-114969000D02*
X95098000Y-115719000D01*
X95098000Y-115719000D02*
X94348000Y-115719000D01*
X95958000Y-114799000D02*
X95628000Y-114559000D01*
X95958000Y-114319000D01*
X95958000Y-114799000D01*
G36*
X95958000Y-114799000D02*
G01*
X95628000Y-114559000D01*
X95958000Y-114319000D01*
X95958000Y-114799000D01*
G37*
%TO.C,J2*%
X87076000Y-125013000D02*
X87076000Y-133313000D01*
X95376000Y-125013000D02*
X87076000Y-125013000D01*
X95376000Y-125013000D02*
X95376000Y-133313000D01*
X95376000Y-133313000D02*
X87076000Y-133313000D01*
%TO.C,R14*%
X133426500Y-97892742D02*
X133426500Y-98367258D01*
X134471500Y-97892742D02*
X134471500Y-98367258D01*
%TO.C,C16*%
X122930420Y-116168000D02*
X123211580Y-116168000D01*
X122930420Y-117188000D02*
X123211580Y-117188000D01*
%TO.C,C11*%
X90493580Y-84076000D02*
X90212420Y-84076000D01*
X90493580Y-85096000D02*
X90212420Y-85096000D01*
%TO.C,D1*%
X62055500Y-92985500D02*
X62055500Y-94455500D01*
X62055500Y-94455500D02*
X64340500Y-94455500D01*
X64340500Y-92985500D02*
X62055500Y-92985500D01*
%TO.C,L1*%
X67041000Y-82138500D02*
X73641000Y-82138500D01*
X67041000Y-83838500D02*
X67041000Y-82138500D01*
X67041000Y-88538500D02*
X67041000Y-86838500D01*
X73641000Y-82138500D02*
X73641000Y-83838500D01*
X73641000Y-86838500D02*
X73641000Y-88538500D01*
X73641000Y-88538500D02*
X67041000Y-88538500D01*
%TO.C,C14*%
X90449580Y-90002000D02*
X90168420Y-90002000D01*
X90449580Y-91022000D02*
X90168420Y-91022000D01*
%TO.C,R8*%
X120313742Y-101226500D02*
X120788258Y-101226500D01*
X120313742Y-102271500D02*
X120788258Y-102271500D01*
%TO.C,R15*%
X129203742Y-96400500D02*
X129678258Y-96400500D01*
X129203742Y-97445500D02*
X129678258Y-97445500D01*
%TO.C,R21*%
X105210242Y-115769500D02*
X105684758Y-115769500D01*
X105210242Y-116814500D02*
X105684758Y-116814500D01*
%TO.C,C5*%
X100752000Y-91597580D02*
X100752000Y-91316420D01*
X101772000Y-91597580D02*
X101772000Y-91316420D01*
%TO.C,D5*%
X117836000Y-105486000D02*
X117836000Y-109496000D01*
X119836000Y-105486000D02*
X117836000Y-105486000D01*
X119836000Y-105486000D02*
X119836000Y-109496000D01*
%TO.C,C23*%
X91894920Y-117306000D02*
X92176080Y-117306000D01*
X91894920Y-118326000D02*
X92176080Y-118326000D01*
%TO.C,R20*%
X105683758Y-113610500D02*
X105209242Y-113610500D01*
X105683758Y-114655500D02*
X105209242Y-114655500D01*
%TO.C,C20*%
X124069580Y-96540000D02*
X123788420Y-96540000D01*
X124069580Y-97560000D02*
X123788420Y-97560000D01*
%TO.C,C10*%
X90493580Y-85981000D02*
X90212420Y-85981000D01*
X90493580Y-87001000D02*
X90212420Y-87001000D01*
%TO.C,C8*%
X81957420Y-91569000D02*
X82238580Y-91569000D01*
X81957420Y-92589000D02*
X82238580Y-92589000D01*
%TO.C,C26*%
X105762500Y-111365580D02*
X105762500Y-111084420D01*
X106782500Y-111365580D02*
X106782500Y-111084420D01*
%TO.C,C25*%
X99314080Y-117687000D02*
X99032920Y-117687000D01*
X99314080Y-118707000D02*
X99032920Y-118707000D01*
%TO.C,R7*%
X120787258Y-103766500D02*
X120312742Y-103766500D01*
X120787258Y-104811500D02*
X120312742Y-104811500D01*
%TO.C,R17*%
X124536500Y-108272258D02*
X124536500Y-107797742D01*
X125581500Y-108272258D02*
X125581500Y-107797742D01*
%TO.C,C9*%
X85413580Y-91569000D02*
X85132420Y-91569000D01*
X85413580Y-92589000D02*
X85132420Y-92589000D01*
%TO.C,R1*%
X50565742Y-84181000D02*
X51040258Y-84181000D01*
X50565742Y-85226000D02*
X51040258Y-85226000D01*
%TO.C,U6*%
X98198500Y-111995000D02*
X98198500Y-112520000D01*
X98198500Y-111995000D02*
X98723500Y-111995000D01*
X98198500Y-116295000D02*
X98198500Y-115770000D01*
X98198500Y-116295000D02*
X98723500Y-116295000D01*
X101973500Y-116295000D02*
X102198500Y-116295000D01*
X102498500Y-111995000D02*
X101973500Y-111995000D01*
X102498500Y-111995000D02*
X102498500Y-112520000D01*
X102498500Y-115830000D02*
X102498500Y-116055000D01*
X102738500Y-116625000D02*
X102258500Y-116625000D01*
X102498500Y-116295000D01*
X102738500Y-116625000D01*
G36*
X102738500Y-116625000D02*
G01*
X102258500Y-116625000D01*
X102498500Y-116295000D01*
X102738500Y-116625000D01*
G37*
%TO.C,R13*%
X128600500Y-108272258D02*
X128600500Y-107797742D01*
X129645500Y-108272258D02*
X129645500Y-107797742D01*
%TO.C,R4*%
X65517258Y-89642000D02*
X65042742Y-89642000D01*
X65517258Y-90687000D02*
X65042742Y-90687000D01*
%TO.C,C4*%
X70577580Y-94226500D02*
X70296420Y-94226500D01*
X70577580Y-95246500D02*
X70296420Y-95246500D01*
%TO.C,R6*%
X92738500Y-89522258D02*
X92738500Y-89047742D01*
X93783500Y-89522258D02*
X93783500Y-89047742D01*
%TO.C,R2*%
X53452258Y-95992000D02*
X52977742Y-95992000D01*
X53452258Y-97037000D02*
X52977742Y-97037000D01*
%TO.C,U5*%
X123418000Y-100262000D02*
X123483000Y-100262000D01*
X123418000Y-104382000D02*
X123418000Y-100262000D01*
X123483000Y-104382000D02*
X123418000Y-104382000D01*
X132223000Y-100262000D02*
X132288000Y-100262000D01*
X132288000Y-100262000D02*
X132288000Y-104382000D01*
X132288000Y-104382000D02*
X132223000Y-104382000D01*
X123483000Y-104922000D02*
X123153000Y-105162000D01*
X123153000Y-104682000D01*
X123483000Y-104922000D01*
G36*
X123483000Y-104922000D02*
G01*
X123153000Y-105162000D01*
X123153000Y-104682000D01*
X123483000Y-104922000D01*
G37*
%TO.C,R18*%
X119329500Y-117450742D02*
X119329500Y-117925258D01*
X120374500Y-117450742D02*
X120374500Y-117925258D01*
%TO.C,C15*%
X90493580Y-80393000D02*
X90212420Y-80393000D01*
X90493580Y-81413000D02*
X90212420Y-81413000D01*
%TO.C,U4*%
X88199000Y-93402000D02*
X89149000Y-93402000D01*
X88199000Y-94352000D02*
X88199000Y-93402000D01*
X88199000Y-103622000D02*
X88199000Y-102672000D01*
X89149000Y-103622000D02*
X88199000Y-103622000D01*
X97469000Y-93402000D02*
X98419000Y-93402000D01*
X98419000Y-93402000D02*
X98419000Y-94352000D01*
X98419000Y-102672000D02*
X98419000Y-103622000D01*
X98419000Y-103622000D02*
X97469000Y-103622000D01*
X87559000Y-94352000D02*
X87219000Y-93882000D01*
X87899000Y-93882000D01*
X87559000Y-94352000D01*
G36*
X87559000Y-94352000D02*
G01*
X87219000Y-93882000D01*
X87899000Y-93882000D01*
X87559000Y-94352000D01*
G37*
%TO.C,R11*%
X126060500Y-96241742D02*
X126060500Y-96716258D01*
X127105500Y-96241742D02*
X127105500Y-96716258D01*
%TO.C,C22*%
X91894920Y-119338000D02*
X92176080Y-119338000D01*
X91894920Y-120358000D02*
X92176080Y-120358000D01*
%TO.C,J3*%
X42013000Y-86353500D02*
X42013000Y-95753500D01*
X43913000Y-86353500D02*
X42013000Y-86353500D01*
X43913000Y-95753500D02*
X42013000Y-95753500D01*
X47813000Y-86353500D02*
X45813000Y-86353500D01*
X47813000Y-95753500D02*
X45813000Y-95753500D01*
%TO.C,R19*%
X122853742Y-121292500D02*
X123328258Y-121292500D01*
X122853742Y-122337500D02*
X123328258Y-122337500D01*
%TO.C,R3*%
X58947742Y-93198000D02*
X59422258Y-93198000D01*
X58947742Y-94243000D02*
X59422258Y-94243000D01*
%TO.C,C13*%
X90449580Y-88002000D02*
X90168420Y-88002000D01*
X90449580Y-89022000D02*
X90168420Y-89022000D01*
%TO.C,D3*%
X134346000Y-111220000D02*
X134346000Y-107210000D01*
X134346000Y-111220000D02*
X136346000Y-111220000D01*
X136346000Y-111220000D02*
X136346000Y-107210000D01*
%TO.C,C3*%
X103038000Y-91597580D02*
X103038000Y-91316420D01*
X104058000Y-91597580D02*
X104058000Y-91316420D01*
%TO.C,U2*%
X57955000Y-92111500D02*
X57955000Y-88891500D01*
X60225000Y-89315932D02*
X60225000Y-92111500D01*
X60420000Y-89161500D02*
X60230000Y-89021500D01*
X60420000Y-88881500D01*
X60420000Y-89161500D01*
G36*
X60420000Y-89161500D02*
G01*
X60230000Y-89021500D01*
X60420000Y-88881500D01*
X60420000Y-89161500D01*
G37*
%TO.C,FB1*%
X102974279Y-94744000D02*
X102648721Y-94744000D01*
X102974279Y-95764000D02*
X102648721Y-95764000D01*
%TO.C,R16*%
X133426500Y-101795258D02*
X133426500Y-101320742D01*
X134471500Y-101795258D02*
X134471500Y-101320742D01*
%TO.C,C21*%
X126355580Y-92857000D02*
X126074420Y-92857000D01*
X126355580Y-93877000D02*
X126074420Y-93877000D01*
%TO.C,Y1*%
X82534000Y-98965000D02*
X85954000Y-98965000D01*
X85954000Y-98965000D02*
X85954000Y-94845000D01*
%TO.C,R12*%
X131997742Y-94749500D02*
X132472258Y-94749500D01*
X131997742Y-95794500D02*
X132472258Y-95794500D01*
%TO.C,D4*%
X130917000Y-111220000D02*
X130917000Y-107210000D01*
X130917000Y-111220000D02*
X132917000Y-111220000D01*
X132917000Y-111220000D02*
X132917000Y-107210000D01*
%TO.C,C27*%
X103730500Y-111365580D02*
X103730500Y-111084420D01*
X104750500Y-111365580D02*
X104750500Y-111084420D01*
%TO.C,U3*%
X68433000Y-89951500D02*
X68433000Y-90926500D01*
X68433000Y-92196500D02*
X68433000Y-93171500D01*
X68663000Y-89951500D02*
X68433000Y-89951500D01*
X68663000Y-93171500D02*
X68433000Y-93171500D01*
X71653000Y-90241500D02*
X71653000Y-90926500D01*
X71653000Y-92196500D02*
X71653000Y-93171500D01*
X71653000Y-93171500D02*
X71423000Y-93171500D01*
X71933000Y-89921500D02*
X71653000Y-89921500D01*
X71653000Y-89641500D01*
X71933000Y-89921500D01*
G36*
X71933000Y-89921500D02*
G01*
X71653000Y-89921500D01*
X71653000Y-89641500D01*
X71933000Y-89921500D01*
G37*
%TO.C,C6*%
X98593000Y-91571580D02*
X98593000Y-91290420D01*
X99613000Y-91571580D02*
X99613000Y-91290420D01*
%TO.C,R5*%
X75550258Y-89642000D02*
X75075742Y-89642000D01*
X75550258Y-90687000D02*
X75075742Y-90687000D01*
%TO.C,R10*%
X135680742Y-94749500D02*
X136155258Y-94749500D01*
X135680742Y-95794500D02*
X136155258Y-95794500D01*
%TO.C,J1*%
X98406000Y-60683000D02*
X99786000Y-60683000D01*
X98406000Y-62063000D02*
X98406000Y-60683000D01*
X98406000Y-63333000D02*
X98406000Y-73603000D01*
X98406000Y-63333000D02*
X101166000Y-63333000D01*
X98406000Y-73603000D02*
X101166000Y-73603000D01*
X101166000Y-63333000D02*
X101166000Y-73603000D01*
%TO.C,C2*%
X61278000Y-91207080D02*
X61278000Y-90925920D01*
X62298000Y-91207080D02*
X62298000Y-90925920D01*
%TD*%
M02*
