%TF.GenerationSoftware,KiCad,Pcbnew,9.0.6*%
%TF.CreationDate,2026-03-06T21:15:41+03:00*%
%TF.ProjectId,testsan_V2,74657374-7361-46e5-9f56-322e6b696361,rev?*%
%TF.SameCoordinates,Original*%
%TF.FileFunction,Copper,L1,Top*%
%TF.FilePolarity,Positive*%
%FSLAX46Y46*%
G04 Gerber Fmt 4.6, Leading zero omitted, Abs format (unit mm)*
G04 Created by KiCad (PCBNEW 9.0.6) date 2026-03-06 21:15:41*
%MOMM*%
%LPD*%
G01*
G04 APERTURE LIST*
G04 Aperture macros list*
%AMRoundRect*
0 Rectangle with rounded corners*
0 $1 Rounding radius*
0 $2 $3 $4 $5 $6 $7 $8 $9 X,Y pos of 4 corners*
0 Add a 4 corners polygon primitive as box body*
4,1,4,$2,$3,$4,$5,$6,$7,$8,$9,$2,$3,0*
0 Add four circle primitives for the rounded corners*
1,1,$1+$1,$2,$3*
1,1,$1+$1,$4,$5*
1,1,$1+$1,$6,$7*
1,1,$1+$1,$8,$9*
0 Add four rect primitives between the rounded corners*
20,1,$1+$1,$2,$3,$4,$5,0*
20,1,$1+$1,$4,$5,$6,$7,0*
20,1,$1+$1,$6,$7,$8,$9,0*
20,1,$1+$1,$8,$9,$2,$3,0*%
%AMFreePoly0*
4,1,21,-0.125000,1.200000,0.125000,1.200000,0.125000,1.700000,0.375000,1.700000,0.375000,1.200000,0.825000,1.200000,0.825000,-1.200000,0.375000,-1.200000,0.375000,-1.700000,0.125000,-1.700000,0.125000,-1.200000,-0.125000,-1.200000,-0.125000,-1.700000,-0.375000,-1.700000,-0.375000,-1.200000,-0.825000,-1.200000,-0.825000,1.200000,-0.375000,1.200000,-0.375000,1.700000,-0.125000,1.700000,
-0.125000,1.200000,-0.125000,1.200000,$1*%
G04 Aperture macros list end*
%ADD10C,0.300000*%
%TA.AperFunction,NonConductor*%
%ADD11C,0.300000*%
%TD*%
%TA.AperFunction,SMDPad,CuDef*%
%ADD12RoundRect,0.225000X0.225000X0.250000X-0.225000X0.250000X-0.225000X-0.250000X0.225000X-0.250000X0*%
%TD*%
%TA.AperFunction,SMDPad,CuDef*%
%ADD13RoundRect,0.225000X-0.225000X-0.250000X0.225000X-0.250000X0.225000X0.250000X-0.225000X0.250000X0*%
%TD*%
%TA.AperFunction,SMDPad,CuDef*%
%ADD14RoundRect,0.200000X0.275000X-0.200000X0.275000X0.200000X-0.275000X0.200000X-0.275000X-0.200000X0*%
%TD*%
%TA.AperFunction,SMDPad,CuDef*%
%ADD15RoundRect,0.225000X-0.250000X0.225000X-0.250000X-0.225000X0.250000X-0.225000X0.250000X0.225000X0*%
%TD*%
%TA.AperFunction,SMDPad,CuDef*%
%ADD16RoundRect,0.150000X0.150000X-0.512500X0.150000X0.512500X-0.150000X0.512500X-0.150000X-0.512500X0*%
%TD*%
%TA.AperFunction,SMDPad,CuDef*%
%ADD17RoundRect,0.225000X0.375000X-0.225000X0.375000X0.225000X-0.375000X0.225000X-0.375000X-0.225000X0*%
%TD*%
%TA.AperFunction,SMDPad,CuDef*%
%ADD18RoundRect,0.075000X0.312500X0.075000X-0.312500X0.075000X-0.312500X-0.075000X0.312500X-0.075000X0*%
%TD*%
%TA.AperFunction,SMDPad,CuDef*%
%ADD19RoundRect,0.075000X0.075000X0.312500X-0.075000X0.312500X-0.075000X-0.312500X0.075000X-0.312500X0*%
%TD*%
%TA.AperFunction,HeatsinkPad*%
%ADD20R,4.800000X4.800000*%
%TD*%
%TA.AperFunction,ComponentPad*%
%ADD21C,2.250000*%
%TD*%
%TA.AperFunction,SMDPad,CuDef*%
%ADD22RoundRect,0.200000X-0.275000X0.200000X-0.275000X-0.200000X0.275000X-0.200000X0.275000X0.200000X0*%
%TD*%
%TA.AperFunction,SMDPad,CuDef*%
%ADD23RoundRect,0.218750X-0.218750X-0.256250X0.218750X-0.256250X0.218750X0.256250X-0.218750X0.256250X0*%
%TD*%
%TA.AperFunction,SMDPad,CuDef*%
%ADD24R,1.500000X2.400000*%
%TD*%
%TA.AperFunction,ComponentPad*%
%ADD25C,5.700000*%
%TD*%
%TA.AperFunction,SMDPad,CuDef*%
%ADD26RoundRect,0.200000X-0.200000X-0.275000X0.200000X-0.275000X0.200000X0.275000X-0.200000X0.275000X0*%
%TD*%
%TA.AperFunction,SMDPad,CuDef*%
%ADD27RoundRect,0.225000X0.250000X-0.225000X0.250000X0.225000X-0.250000X0.225000X-0.250000X-0.225000X0*%
%TD*%
%TA.AperFunction,SMDPad,CuDef*%
%ADD28RoundRect,0.225000X-0.375000X0.225000X-0.375000X-0.225000X0.375000X-0.225000X0.375000X0.225000X0*%
%TD*%
%TA.AperFunction,SMDPad,CuDef*%
%ADD29RoundRect,0.200000X0.200000X0.275000X-0.200000X0.275000X-0.200000X-0.275000X0.200000X-0.275000X0*%
%TD*%
%TA.AperFunction,SMDPad,CuDef*%
%ADD30RoundRect,0.075000X0.350000X0.075000X-0.350000X0.075000X-0.350000X-0.075000X0.350000X-0.075000X0*%
%TD*%
%TA.AperFunction,SMDPad,CuDef*%
%ADD31RoundRect,0.075000X-0.075000X0.350000X-0.075000X-0.350000X0.075000X-0.350000X0.075000X0.350000X0*%
%TD*%
%TA.AperFunction,SMDPad,CuDef*%
%ADD32RoundRect,0.150000X0.150000X-0.825000X0.150000X0.825000X-0.150000X0.825000X-0.150000X-0.825000X0*%
%TD*%
%TA.AperFunction,SMDPad,CuDef*%
%ADD33RoundRect,0.075000X-0.700000X-0.075000X0.700000X-0.075000X0.700000X0.075000X-0.700000X0.075000X0*%
%TD*%
%TA.AperFunction,SMDPad,CuDef*%
%ADD34RoundRect,0.075000X-0.075000X-0.700000X0.075000X-0.700000X0.075000X0.700000X-0.075000X0.700000X0*%
%TD*%
%TA.AperFunction,SMDPad,CuDef*%
%ADD35R,1.450000X0.600000*%
%TD*%
%TA.AperFunction,SMDPad,CuDef*%
%ADD36R,1.450000X0.300000*%
%TD*%
%TA.AperFunction,HeatsinkPad*%
%ADD37O,2.100000X1.000000*%
%TD*%
%TA.AperFunction,HeatsinkPad*%
%ADD38O,1.600000X1.000000*%
%TD*%
%TA.AperFunction,SMDPad,CuDef*%
%ADD39RoundRect,0.062500X-0.062500X0.337500X-0.062500X-0.337500X0.062500X-0.337500X0.062500X0.337500X0*%
%TD*%
%TA.AperFunction,HeatsinkPad*%
%ADD40R,1.400000X1.700000*%
%TD*%
%TA.AperFunction,SMDPad,CuDef*%
%ADD41RoundRect,0.218750X0.218750X0.256250X-0.218750X0.256250X-0.218750X-0.256250X0.218750X-0.256250X0*%
%TD*%
%TA.AperFunction,SMDPad,CuDef*%
%ADD42RoundRect,0.250000X0.350000X-0.450000X0.350000X0.450000X-0.350000X0.450000X-0.350000X-0.450000X0*%
%TD*%
%TA.AperFunction,ComponentPad*%
%ADD43C,0.500000*%
%TD*%
%TA.AperFunction,SMDPad,CuDef*%
%ADD44RoundRect,0.060000X-0.060000X0.240000X-0.060000X-0.240000X0.060000X-0.240000X0.060000X0.240000X0*%
%TD*%
%TA.AperFunction,SMDPad,CuDef*%
%ADD45FreePoly0,270.000000*%
%TD*%
%TA.AperFunction,ComponentPad*%
%ADD46R,1.700000X1.700000*%
%TD*%
%TA.AperFunction,ComponentPad*%
%ADD47C,1.700000*%
%TD*%
%TA.AperFunction,ViaPad*%
%ADD48C,0.600000*%
%TD*%
%TA.AperFunction,Conductor*%
%ADD49C,0.200000*%
%TD*%
G04 APERTURE END LIST*
D10*
D11*
X54790225Y-131622257D02*
X54647368Y-131550828D01*
X54647368Y-131550828D02*
X54433082Y-131550828D01*
X54433082Y-131550828D02*
X54218796Y-131622257D01*
X54218796Y-131622257D02*
X54075939Y-131765114D01*
X54075939Y-131765114D02*
X54004510Y-131907971D01*
X54004510Y-131907971D02*
X53933082Y-132193685D01*
X53933082Y-132193685D02*
X53933082Y-132407971D01*
X53933082Y-132407971D02*
X54004510Y-132693685D01*
X54004510Y-132693685D02*
X54075939Y-132836542D01*
X54075939Y-132836542D02*
X54218796Y-132979400D01*
X54218796Y-132979400D02*
X54433082Y-133050828D01*
X54433082Y-133050828D02*
X54575939Y-133050828D01*
X54575939Y-133050828D02*
X54790225Y-132979400D01*
X54790225Y-132979400D02*
X54861653Y-132907971D01*
X54861653Y-132907971D02*
X54861653Y-132407971D01*
X54861653Y-132407971D02*
X54575939Y-132407971D01*
X55718796Y-133050828D02*
X55575939Y-132979400D01*
X55575939Y-132979400D02*
X55504510Y-132907971D01*
X55504510Y-132907971D02*
X55433082Y-132765114D01*
X55433082Y-132765114D02*
X55433082Y-132336542D01*
X55433082Y-132336542D02*
X55504510Y-132193685D01*
X55504510Y-132193685D02*
X55575939Y-132122257D01*
X55575939Y-132122257D02*
X55718796Y-132050828D01*
X55718796Y-132050828D02*
X55933082Y-132050828D01*
X55933082Y-132050828D02*
X56075939Y-132122257D01*
X56075939Y-132122257D02*
X56147368Y-132193685D01*
X56147368Y-132193685D02*
X56218796Y-132336542D01*
X56218796Y-132336542D02*
X56218796Y-132765114D01*
X56218796Y-132765114D02*
X56147368Y-132907971D01*
X56147368Y-132907971D02*
X56075939Y-132979400D01*
X56075939Y-132979400D02*
X55933082Y-133050828D01*
X55933082Y-133050828D02*
X55718796Y-133050828D01*
X55575939Y-131550828D02*
X55647368Y-131622257D01*
X55647368Y-131622257D02*
X55575939Y-131693685D01*
X55575939Y-131693685D02*
X55504510Y-131622257D01*
X55504510Y-131622257D02*
X55575939Y-131550828D01*
X55575939Y-131550828D02*
X55575939Y-131693685D01*
X56147368Y-131550828D02*
X56218796Y-131622257D01*
X56218796Y-131622257D02*
X56147368Y-131693685D01*
X56147368Y-131693685D02*
X56075939Y-131622257D01*
X56075939Y-131622257D02*
X56147368Y-131550828D01*
X56147368Y-131550828D02*
X56147368Y-131693685D01*
X56861653Y-133050828D02*
X56861653Y-131550828D01*
X57004511Y-132479400D02*
X57433082Y-133050828D01*
X57433082Y-132050828D02*
X56861653Y-132622257D01*
X57861654Y-132050828D02*
X58433082Y-132050828D01*
X58075939Y-131550828D02*
X58075939Y-132836542D01*
X58075939Y-132836542D02*
X58147368Y-132979400D01*
X58147368Y-132979400D02*
X58290225Y-133050828D01*
X58290225Y-133050828D02*
X58433082Y-133050828D01*
X59575940Y-133050828D02*
X59575940Y-132265114D01*
X59575940Y-132265114D02*
X59504511Y-132122257D01*
X59504511Y-132122257D02*
X59361654Y-132050828D01*
X59361654Y-132050828D02*
X59075940Y-132050828D01*
X59075940Y-132050828D02*
X58933082Y-132122257D01*
X59575940Y-132979400D02*
X59433082Y-133050828D01*
X59433082Y-133050828D02*
X59075940Y-133050828D01*
X59075940Y-133050828D02*
X58933082Y-132979400D01*
X58933082Y-132979400D02*
X58861654Y-132836542D01*
X58861654Y-132836542D02*
X58861654Y-132693685D01*
X58861654Y-132693685D02*
X58933082Y-132550828D01*
X58933082Y-132550828D02*
X59075940Y-132479400D01*
X59075940Y-132479400D02*
X59433082Y-132479400D01*
X59433082Y-132479400D02*
X59575940Y-132407971D01*
X60290225Y-132050828D02*
X60290225Y-133050828D01*
X60290225Y-132193685D02*
X60361654Y-132122257D01*
X60361654Y-132122257D02*
X60504511Y-132050828D01*
X60504511Y-132050828D02*
X60718797Y-132050828D01*
X60718797Y-132050828D02*
X60861654Y-132122257D01*
X60861654Y-132122257D02*
X60933083Y-132265114D01*
X60933083Y-132265114D02*
X60933083Y-133050828D01*
X62718797Y-132979400D02*
X62933083Y-133050828D01*
X62933083Y-133050828D02*
X63290225Y-133050828D01*
X63290225Y-133050828D02*
X63433083Y-132979400D01*
X63433083Y-132979400D02*
X63504511Y-132907971D01*
X63504511Y-132907971D02*
X63575940Y-132765114D01*
X63575940Y-132765114D02*
X63575940Y-132622257D01*
X63575940Y-132622257D02*
X63504511Y-132479400D01*
X63504511Y-132479400D02*
X63433083Y-132407971D01*
X63433083Y-132407971D02*
X63290225Y-132336542D01*
X63290225Y-132336542D02*
X63004511Y-132265114D01*
X63004511Y-132265114D02*
X62861654Y-132193685D01*
X62861654Y-132193685D02*
X62790225Y-132122257D01*
X62790225Y-132122257D02*
X62718797Y-131979400D01*
X62718797Y-131979400D02*
X62718797Y-131836542D01*
X62718797Y-131836542D02*
X62790225Y-131693685D01*
X62790225Y-131693685D02*
X62861654Y-131622257D01*
X62861654Y-131622257D02*
X63004511Y-131550828D01*
X63004511Y-131550828D02*
X63361654Y-131550828D01*
X63361654Y-131550828D02*
X63575940Y-131622257D01*
X64861654Y-133050828D02*
X64861654Y-132265114D01*
X64861654Y-132265114D02*
X64790225Y-132122257D01*
X64790225Y-132122257D02*
X64647368Y-132050828D01*
X64647368Y-132050828D02*
X64361654Y-132050828D01*
X64361654Y-132050828D02*
X64218796Y-132122257D01*
X64861654Y-132979400D02*
X64718796Y-133050828D01*
X64718796Y-133050828D02*
X64361654Y-133050828D01*
X64361654Y-133050828D02*
X64218796Y-132979400D01*
X64218796Y-132979400D02*
X64147368Y-132836542D01*
X64147368Y-132836542D02*
X64147368Y-132693685D01*
X64147368Y-132693685D02*
X64218796Y-132550828D01*
X64218796Y-132550828D02*
X64361654Y-132479400D01*
X64361654Y-132479400D02*
X64718796Y-132479400D01*
X64718796Y-132479400D02*
X64861654Y-132407971D01*
X65575939Y-133050828D02*
X65575939Y-132050828D01*
X65575939Y-132336542D02*
X65647368Y-132193685D01*
X65647368Y-132193685D02*
X65718797Y-132122257D01*
X65718797Y-132122257D02*
X65861654Y-132050828D01*
X65861654Y-132050828D02*
X66004511Y-132050828D01*
X66504510Y-133050828D02*
X66504510Y-132050828D01*
X67218796Y-133050828D02*
X67218796Y-131550828D01*
X67361654Y-132479400D02*
X67790225Y-133050828D01*
X67790225Y-132050828D02*
X67218796Y-132622257D01*
X69075940Y-133050828D02*
X69075940Y-132265114D01*
X69075940Y-132265114D02*
X69004511Y-132122257D01*
X69004511Y-132122257D02*
X68861654Y-132050828D01*
X68861654Y-132050828D02*
X68575940Y-132050828D01*
X68575940Y-132050828D02*
X68433082Y-132122257D01*
X69075940Y-132979400D02*
X68933082Y-133050828D01*
X68933082Y-133050828D02*
X68575940Y-133050828D01*
X68575940Y-133050828D02*
X68433082Y-132979400D01*
X68433082Y-132979400D02*
X68361654Y-132836542D01*
X68361654Y-132836542D02*
X68361654Y-132693685D01*
X68361654Y-132693685D02*
X68433082Y-132550828D01*
X68433082Y-132550828D02*
X68575940Y-132479400D01*
X68575940Y-132479400D02*
X68933082Y-132479400D01*
X68933082Y-132479400D02*
X69075940Y-132407971D01*
X69790225Y-132050828D02*
X69790225Y-133050828D01*
X69790225Y-132193685D02*
X69861654Y-132122257D01*
X69861654Y-132122257D02*
X70004511Y-132050828D01*
X70004511Y-132050828D02*
X70218797Y-132050828D01*
X70218797Y-132050828D02*
X70361654Y-132122257D01*
X70361654Y-132122257D02*
X70433083Y-132265114D01*
X70433083Y-132265114D02*
X70433083Y-133050828D01*
D10*
D11*
X44572710Y-97259228D02*
X44572710Y-98473514D01*
X44572710Y-98473514D02*
X44644139Y-98616371D01*
X44644139Y-98616371D02*
X44715568Y-98687800D01*
X44715568Y-98687800D02*
X44858425Y-98759228D01*
X44858425Y-98759228D02*
X45144139Y-98759228D01*
X45144139Y-98759228D02*
X45286996Y-98687800D01*
X45286996Y-98687800D02*
X45358425Y-98616371D01*
X45358425Y-98616371D02*
X45429853Y-98473514D01*
X45429853Y-98473514D02*
X45429853Y-97259228D01*
X46072711Y-98687800D02*
X46286997Y-98759228D01*
X46286997Y-98759228D02*
X46644139Y-98759228D01*
X46644139Y-98759228D02*
X46786997Y-98687800D01*
X46786997Y-98687800D02*
X46858425Y-98616371D01*
X46858425Y-98616371D02*
X46929854Y-98473514D01*
X46929854Y-98473514D02*
X46929854Y-98330657D01*
X46929854Y-98330657D02*
X46858425Y-98187800D01*
X46858425Y-98187800D02*
X46786997Y-98116371D01*
X46786997Y-98116371D02*
X46644139Y-98044942D01*
X46644139Y-98044942D02*
X46358425Y-97973514D01*
X46358425Y-97973514D02*
X46215568Y-97902085D01*
X46215568Y-97902085D02*
X46144139Y-97830657D01*
X46144139Y-97830657D02*
X46072711Y-97687800D01*
X46072711Y-97687800D02*
X46072711Y-97544942D01*
X46072711Y-97544942D02*
X46144139Y-97402085D01*
X46144139Y-97402085D02*
X46215568Y-97330657D01*
X46215568Y-97330657D02*
X46358425Y-97259228D01*
X46358425Y-97259228D02*
X46715568Y-97259228D01*
X46715568Y-97259228D02*
X46929854Y-97330657D01*
X48072710Y-97973514D02*
X48286996Y-98044942D01*
X48286996Y-98044942D02*
X48358425Y-98116371D01*
X48358425Y-98116371D02*
X48429853Y-98259228D01*
X48429853Y-98259228D02*
X48429853Y-98473514D01*
X48429853Y-98473514D02*
X48358425Y-98616371D01*
X48358425Y-98616371D02*
X48286996Y-98687800D01*
X48286996Y-98687800D02*
X48144139Y-98759228D01*
X48144139Y-98759228D02*
X47572710Y-98759228D01*
X47572710Y-98759228D02*
X47572710Y-97259228D01*
X47572710Y-97259228D02*
X48072710Y-97259228D01*
X48072710Y-97259228D02*
X48215568Y-97330657D01*
X48215568Y-97330657D02*
X48286996Y-97402085D01*
X48286996Y-97402085D02*
X48358425Y-97544942D01*
X48358425Y-97544942D02*
X48358425Y-97687800D01*
X48358425Y-97687800D02*
X48286996Y-97830657D01*
X48286996Y-97830657D02*
X48215568Y-97902085D01*
X48215568Y-97902085D02*
X48072710Y-97973514D01*
X48072710Y-97973514D02*
X47572710Y-97973514D01*
D10*
D11*
X90983082Y-65229400D02*
X91197368Y-65300828D01*
X91197368Y-65300828D02*
X91554510Y-65300828D01*
X91554510Y-65300828D02*
X91697368Y-65229400D01*
X91697368Y-65229400D02*
X91768796Y-65157971D01*
X91768796Y-65157971D02*
X91840225Y-65015114D01*
X91840225Y-65015114D02*
X91840225Y-64872257D01*
X91840225Y-64872257D02*
X91768796Y-64729400D01*
X91768796Y-64729400D02*
X91697368Y-64657971D01*
X91697368Y-64657971D02*
X91554510Y-64586542D01*
X91554510Y-64586542D02*
X91268796Y-64515114D01*
X91268796Y-64515114D02*
X91125939Y-64443685D01*
X91125939Y-64443685D02*
X91054510Y-64372257D01*
X91054510Y-64372257D02*
X90983082Y-64229400D01*
X90983082Y-64229400D02*
X90983082Y-64086542D01*
X90983082Y-64086542D02*
X91054510Y-63943685D01*
X91054510Y-63943685D02*
X91125939Y-63872257D01*
X91125939Y-63872257D02*
X91268796Y-63800828D01*
X91268796Y-63800828D02*
X91625939Y-63800828D01*
X91625939Y-63800828D02*
X91840225Y-63872257D01*
X92340224Y-63800828D02*
X92697367Y-65300828D01*
X92697367Y-65300828D02*
X92983081Y-64229400D01*
X92983081Y-64229400D02*
X93268796Y-65300828D01*
X93268796Y-65300828D02*
X93625939Y-63800828D01*
X94197367Y-65300828D02*
X94197367Y-63800828D01*
X94197367Y-63800828D02*
X94554510Y-63800828D01*
X94554510Y-63800828D02*
X94768796Y-63872257D01*
X94768796Y-63872257D02*
X94911653Y-64015114D01*
X94911653Y-64015114D02*
X94983082Y-64157971D01*
X94983082Y-64157971D02*
X95054510Y-64443685D01*
X95054510Y-64443685D02*
X95054510Y-64657971D01*
X95054510Y-64657971D02*
X94983082Y-64943685D01*
X94983082Y-64943685D02*
X94911653Y-65086542D01*
X94911653Y-65086542D02*
X94768796Y-65229400D01*
X94768796Y-65229400D02*
X94554510Y-65300828D01*
X94554510Y-65300828D02*
X94197367Y-65300828D01*
X95697367Y-65300828D02*
X95697367Y-63800828D01*
X96697368Y-63800828D02*
X96983082Y-63800828D01*
X96983082Y-63800828D02*
X97125939Y-63872257D01*
X97125939Y-63872257D02*
X97268796Y-64015114D01*
X97268796Y-64015114D02*
X97340225Y-64300828D01*
X97340225Y-64300828D02*
X97340225Y-64800828D01*
X97340225Y-64800828D02*
X97268796Y-65086542D01*
X97268796Y-65086542D02*
X97125939Y-65229400D01*
X97125939Y-65229400D02*
X96983082Y-65300828D01*
X96983082Y-65300828D02*
X96697368Y-65300828D01*
X96697368Y-65300828D02*
X96554511Y-65229400D01*
X96554511Y-65229400D02*
X96411653Y-65086542D01*
X96411653Y-65086542D02*
X96340225Y-64800828D01*
X96340225Y-64800828D02*
X96340225Y-64300828D01*
X96340225Y-64300828D02*
X96411653Y-64015114D01*
X96411653Y-64015114D02*
X96554511Y-63872257D01*
X96554511Y-63872257D02*
X96697368Y-63800828D01*
D10*
D11*
X93796225Y-69492257D02*
X93653368Y-69420828D01*
X93653368Y-69420828D02*
X93439082Y-69420828D01*
X93439082Y-69420828D02*
X93224796Y-69492257D01*
X93224796Y-69492257D02*
X93081939Y-69635114D01*
X93081939Y-69635114D02*
X93010510Y-69777971D01*
X93010510Y-69777971D02*
X92939082Y-70063685D01*
X92939082Y-70063685D02*
X92939082Y-70277971D01*
X92939082Y-70277971D02*
X93010510Y-70563685D01*
X93010510Y-70563685D02*
X93081939Y-70706542D01*
X93081939Y-70706542D02*
X93224796Y-70849400D01*
X93224796Y-70849400D02*
X93439082Y-70920828D01*
X93439082Y-70920828D02*
X93581939Y-70920828D01*
X93581939Y-70920828D02*
X93796225Y-70849400D01*
X93796225Y-70849400D02*
X93867653Y-70777971D01*
X93867653Y-70777971D02*
X93867653Y-70277971D01*
X93867653Y-70277971D02*
X93581939Y-70277971D01*
X94510510Y-70920828D02*
X94510510Y-69420828D01*
X94510510Y-69420828D02*
X95367653Y-70920828D01*
X95367653Y-70920828D02*
X95367653Y-69420828D01*
X96081939Y-70920828D02*
X96081939Y-69420828D01*
X96081939Y-69420828D02*
X96439082Y-69420828D01*
X96439082Y-69420828D02*
X96653368Y-69492257D01*
X96653368Y-69492257D02*
X96796225Y-69635114D01*
X96796225Y-69635114D02*
X96867654Y-69777971D01*
X96867654Y-69777971D02*
X96939082Y-70063685D01*
X96939082Y-70063685D02*
X96939082Y-70277971D01*
X96939082Y-70277971D02*
X96867654Y-70563685D01*
X96867654Y-70563685D02*
X96796225Y-70706542D01*
X96796225Y-70706542D02*
X96653368Y-70849400D01*
X96653368Y-70849400D02*
X96439082Y-70920828D01*
X96439082Y-70920828D02*
X96081939Y-70920828D01*
D10*
D11*
X92054510Y-73800828D02*
X92054510Y-72300828D01*
X92054510Y-72300828D02*
X92911653Y-73800828D01*
X92911653Y-73800828D02*
X92911653Y-72300828D01*
X94483082Y-73800828D02*
X93983082Y-73086542D01*
X93625939Y-73800828D02*
X93625939Y-72300828D01*
X93625939Y-72300828D02*
X94197368Y-72300828D01*
X94197368Y-72300828D02*
X94340225Y-72372257D01*
X94340225Y-72372257D02*
X94411654Y-72443685D01*
X94411654Y-72443685D02*
X94483082Y-72586542D01*
X94483082Y-72586542D02*
X94483082Y-72800828D01*
X94483082Y-72800828D02*
X94411654Y-72943685D01*
X94411654Y-72943685D02*
X94340225Y-73015114D01*
X94340225Y-73015114D02*
X94197368Y-73086542D01*
X94197368Y-73086542D02*
X93625939Y-73086542D01*
X95054511Y-73729400D02*
X95268797Y-73800828D01*
X95268797Y-73800828D02*
X95625939Y-73800828D01*
X95625939Y-73800828D02*
X95768797Y-73729400D01*
X95768797Y-73729400D02*
X95840225Y-73657971D01*
X95840225Y-73657971D02*
X95911654Y-73515114D01*
X95911654Y-73515114D02*
X95911654Y-73372257D01*
X95911654Y-73372257D02*
X95840225Y-73229400D01*
X95840225Y-73229400D02*
X95768797Y-73157971D01*
X95768797Y-73157971D02*
X95625939Y-73086542D01*
X95625939Y-73086542D02*
X95340225Y-73015114D01*
X95340225Y-73015114D02*
X95197368Y-72943685D01*
X95197368Y-72943685D02*
X95125939Y-72872257D01*
X95125939Y-72872257D02*
X95054511Y-72729400D01*
X95054511Y-72729400D02*
X95054511Y-72586542D01*
X95054511Y-72586542D02*
X95125939Y-72443685D01*
X95125939Y-72443685D02*
X95197368Y-72372257D01*
X95197368Y-72372257D02*
X95340225Y-72300828D01*
X95340225Y-72300828D02*
X95697368Y-72300828D01*
X95697368Y-72300828D02*
X95911654Y-72372257D01*
X96340225Y-72300828D02*
X97197368Y-72300828D01*
X96768796Y-73800828D02*
X96768796Y-72300828D01*
D10*
D11*
X117054510Y-133300828D02*
X117054510Y-131800828D01*
X117054510Y-131800828D02*
X117554510Y-132872257D01*
X117554510Y-132872257D02*
X118054510Y-131800828D01*
X118054510Y-131800828D02*
X118054510Y-133300828D01*
X119411654Y-133300828D02*
X119411654Y-132515114D01*
X119411654Y-132515114D02*
X119340225Y-132372257D01*
X119340225Y-132372257D02*
X119197368Y-132300828D01*
X119197368Y-132300828D02*
X118911654Y-132300828D01*
X118911654Y-132300828D02*
X118768796Y-132372257D01*
X119411654Y-133229400D02*
X119268796Y-133300828D01*
X119268796Y-133300828D02*
X118911654Y-133300828D01*
X118911654Y-133300828D02*
X118768796Y-133229400D01*
X118768796Y-133229400D02*
X118697368Y-133086542D01*
X118697368Y-133086542D02*
X118697368Y-132943685D01*
X118697368Y-132943685D02*
X118768796Y-132800828D01*
X118768796Y-132800828D02*
X118911654Y-132729400D01*
X118911654Y-132729400D02*
X119268796Y-132729400D01*
X119268796Y-132729400D02*
X119411654Y-132657971D01*
X120125939Y-133300828D02*
X120125939Y-132300828D01*
X120125939Y-132586542D02*
X120197368Y-132443685D01*
X120197368Y-132443685D02*
X120268797Y-132372257D01*
X120268797Y-132372257D02*
X120411654Y-132300828D01*
X120411654Y-132300828D02*
X120554511Y-132300828D01*
X121697368Y-133229400D02*
X121554510Y-133300828D01*
X121554510Y-133300828D02*
X121268796Y-133300828D01*
X121268796Y-133300828D02*
X121125939Y-133229400D01*
X121125939Y-133229400D02*
X121054510Y-133157971D01*
X121054510Y-133157971D02*
X120983082Y-133015114D01*
X120983082Y-133015114D02*
X120983082Y-132586542D01*
X120983082Y-132586542D02*
X121054510Y-132443685D01*
X121054510Y-132443685D02*
X121125939Y-132372257D01*
X121125939Y-132372257D02*
X121268796Y-132300828D01*
X121268796Y-132300828D02*
X121554510Y-132300828D01*
X121554510Y-132300828D02*
X121697368Y-132372257D01*
X122340224Y-133300828D02*
X122340224Y-131800828D01*
X122983082Y-133300828D02*
X122983082Y-132515114D01*
X122983082Y-132515114D02*
X122911653Y-132372257D01*
X122911653Y-132372257D02*
X122768796Y-132300828D01*
X122768796Y-132300828D02*
X122554510Y-132300828D01*
X122554510Y-132300828D02*
X122411653Y-132372257D01*
X122411653Y-132372257D02*
X122340224Y-132443685D01*
X124768796Y-131943685D02*
X124840224Y-131872257D01*
X124840224Y-131872257D02*
X124983082Y-131800828D01*
X124983082Y-131800828D02*
X125340224Y-131800828D01*
X125340224Y-131800828D02*
X125483082Y-131872257D01*
X125483082Y-131872257D02*
X125554510Y-131943685D01*
X125554510Y-131943685D02*
X125625939Y-132086542D01*
X125625939Y-132086542D02*
X125625939Y-132229400D01*
X125625939Y-132229400D02*
X125554510Y-132443685D01*
X125554510Y-132443685D02*
X124697367Y-133300828D01*
X124697367Y-133300828D02*
X125625939Y-133300828D01*
X126554510Y-131800828D02*
X126697367Y-131800828D01*
X126697367Y-131800828D02*
X126840224Y-131872257D01*
X126840224Y-131872257D02*
X126911653Y-131943685D01*
X126911653Y-131943685D02*
X126983081Y-132086542D01*
X126983081Y-132086542D02*
X127054510Y-132372257D01*
X127054510Y-132372257D02*
X127054510Y-132729400D01*
X127054510Y-132729400D02*
X126983081Y-133015114D01*
X126983081Y-133015114D02*
X126911653Y-133157971D01*
X126911653Y-133157971D02*
X126840224Y-133229400D01*
X126840224Y-133229400D02*
X126697367Y-133300828D01*
X126697367Y-133300828D02*
X126554510Y-133300828D01*
X126554510Y-133300828D02*
X126411653Y-133229400D01*
X126411653Y-133229400D02*
X126340224Y-133157971D01*
X126340224Y-133157971D02*
X126268795Y-133015114D01*
X126268795Y-133015114D02*
X126197367Y-132729400D01*
X126197367Y-132729400D02*
X126197367Y-132372257D01*
X126197367Y-132372257D02*
X126268795Y-132086542D01*
X126268795Y-132086542D02*
X126340224Y-131943685D01*
X126340224Y-131943685D02*
X126411653Y-131872257D01*
X126411653Y-131872257D02*
X126554510Y-131800828D01*
X127625938Y-131943685D02*
X127697366Y-131872257D01*
X127697366Y-131872257D02*
X127840224Y-131800828D01*
X127840224Y-131800828D02*
X128197366Y-131800828D01*
X128197366Y-131800828D02*
X128340224Y-131872257D01*
X128340224Y-131872257D02*
X128411652Y-131943685D01*
X128411652Y-131943685D02*
X128483081Y-132086542D01*
X128483081Y-132086542D02*
X128483081Y-132229400D01*
X128483081Y-132229400D02*
X128411652Y-132443685D01*
X128411652Y-132443685D02*
X127554509Y-133300828D01*
X127554509Y-133300828D02*
X128483081Y-133300828D01*
X129768795Y-131800828D02*
X129483080Y-131800828D01*
X129483080Y-131800828D02*
X129340223Y-131872257D01*
X129340223Y-131872257D02*
X129268795Y-131943685D01*
X129268795Y-131943685D02*
X129125937Y-132157971D01*
X129125937Y-132157971D02*
X129054509Y-132443685D01*
X129054509Y-132443685D02*
X129054509Y-133015114D01*
X129054509Y-133015114D02*
X129125937Y-133157971D01*
X129125937Y-133157971D02*
X129197366Y-133229400D01*
X129197366Y-133229400D02*
X129340223Y-133300828D01*
X129340223Y-133300828D02*
X129625937Y-133300828D01*
X129625937Y-133300828D02*
X129768795Y-133229400D01*
X129768795Y-133229400D02*
X129840223Y-133157971D01*
X129840223Y-133157971D02*
X129911652Y-133015114D01*
X129911652Y-133015114D02*
X129911652Y-132657971D01*
X129911652Y-132657971D02*
X129840223Y-132515114D01*
X129840223Y-132515114D02*
X129768795Y-132443685D01*
X129768795Y-132443685D02*
X129625937Y-132372257D01*
X129625937Y-132372257D02*
X129340223Y-132372257D01*
X129340223Y-132372257D02*
X129197366Y-132443685D01*
X129197366Y-132443685D02*
X129125937Y-132515114D01*
X129125937Y-132515114D02*
X129054509Y-132657971D01*
D10*
D11*
X92867653Y-61292828D02*
X93796225Y-61292828D01*
X93796225Y-61292828D02*
X93296225Y-61864257D01*
X93296225Y-61864257D02*
X93510510Y-61864257D01*
X93510510Y-61864257D02*
X93653368Y-61935685D01*
X93653368Y-61935685D02*
X93724796Y-62007114D01*
X93724796Y-62007114D02*
X93796225Y-62149971D01*
X93796225Y-62149971D02*
X93796225Y-62507114D01*
X93796225Y-62507114D02*
X93724796Y-62649971D01*
X93724796Y-62649971D02*
X93653368Y-62721400D01*
X93653368Y-62721400D02*
X93510510Y-62792828D01*
X93510510Y-62792828D02*
X93081939Y-62792828D01*
X93081939Y-62792828D02*
X92939082Y-62721400D01*
X92939082Y-62721400D02*
X92867653Y-62649971D01*
X94439081Y-62649971D02*
X94510510Y-62721400D01*
X94510510Y-62721400D02*
X94439081Y-62792828D01*
X94439081Y-62792828D02*
X94367653Y-62721400D01*
X94367653Y-62721400D02*
X94439081Y-62649971D01*
X94439081Y-62649971D02*
X94439081Y-62792828D01*
X95010510Y-61292828D02*
X95939082Y-61292828D01*
X95939082Y-61292828D02*
X95439082Y-61864257D01*
X95439082Y-61864257D02*
X95653367Y-61864257D01*
X95653367Y-61864257D02*
X95796225Y-61935685D01*
X95796225Y-61935685D02*
X95867653Y-62007114D01*
X95867653Y-62007114D02*
X95939082Y-62149971D01*
X95939082Y-62149971D02*
X95939082Y-62507114D01*
X95939082Y-62507114D02*
X95867653Y-62649971D01*
X95867653Y-62649971D02*
X95796225Y-62721400D01*
X95796225Y-62721400D02*
X95653367Y-62792828D01*
X95653367Y-62792828D02*
X95224796Y-62792828D01*
X95224796Y-62792828D02*
X95081939Y-62721400D01*
X95081939Y-62721400D02*
X95010510Y-62649971D01*
X96367653Y-61292828D02*
X96867653Y-62792828D01*
X96867653Y-62792828D02*
X97367653Y-61292828D01*
D10*
D11*
X90483082Y-67814484D02*
X90697368Y-67885912D01*
X90697368Y-67885912D02*
X91054510Y-67885912D01*
X91054510Y-67885912D02*
X91197368Y-67814484D01*
X91197368Y-67814484D02*
X91268796Y-67743055D01*
X91268796Y-67743055D02*
X91340225Y-67600198D01*
X91340225Y-67600198D02*
X91340225Y-67457341D01*
X91340225Y-67457341D02*
X91268796Y-67314484D01*
X91268796Y-67314484D02*
X91197368Y-67243055D01*
X91197368Y-67243055D02*
X91054510Y-67171626D01*
X91054510Y-67171626D02*
X90768796Y-67100198D01*
X90768796Y-67100198D02*
X90625939Y-67028769D01*
X90625939Y-67028769D02*
X90554510Y-66957341D01*
X90554510Y-66957341D02*
X90483082Y-66814484D01*
X90483082Y-66814484D02*
X90483082Y-66671626D01*
X90483082Y-66671626D02*
X90554510Y-66528769D01*
X90554510Y-66528769D02*
X90625939Y-66457341D01*
X90625939Y-66457341D02*
X90768796Y-66385912D01*
X90768796Y-66385912D02*
X91125939Y-66385912D01*
X91125939Y-66385912D02*
X91340225Y-66457341D01*
X91840224Y-66385912D02*
X92197367Y-67885912D01*
X92197367Y-67885912D02*
X92483081Y-66814484D01*
X92483081Y-66814484D02*
X92768796Y-67885912D01*
X92768796Y-67885912D02*
X93125939Y-66385912D01*
X94554510Y-67743055D02*
X94483082Y-67814484D01*
X94483082Y-67814484D02*
X94268796Y-67885912D01*
X94268796Y-67885912D02*
X94125939Y-67885912D01*
X94125939Y-67885912D02*
X93911653Y-67814484D01*
X93911653Y-67814484D02*
X93768796Y-67671626D01*
X93768796Y-67671626D02*
X93697367Y-67528769D01*
X93697367Y-67528769D02*
X93625939Y-67243055D01*
X93625939Y-67243055D02*
X93625939Y-67028769D01*
X93625939Y-67028769D02*
X93697367Y-66743055D01*
X93697367Y-66743055D02*
X93768796Y-66600198D01*
X93768796Y-66600198D02*
X93911653Y-66457341D01*
X93911653Y-66457341D02*
X94125939Y-66385912D01*
X94125939Y-66385912D02*
X94268796Y-66385912D01*
X94268796Y-66385912D02*
X94483082Y-66457341D01*
X94483082Y-66457341D02*
X94554510Y-66528769D01*
X95911653Y-67885912D02*
X95197367Y-67885912D01*
X95197367Y-67885912D02*
X95197367Y-66385912D01*
X96411653Y-67885912D02*
X96411653Y-66385912D01*
X97268796Y-67885912D02*
X96625939Y-67028769D01*
X97268796Y-66385912D02*
X96411653Y-67243055D01*
D12*
%TO.P,C24,1*%
%TO.N,GND*%
X101218500Y-110323000D03*
%TO.P,C24,2*%
%TO.N,Net-(U6-REGOUT)*%
X99668500Y-110323000D03*
%TD*%
D13*
%TO.P,C1,1*%
%TO.N,GND*%
X53266000Y-84703500D03*
%TO.P,C1,2*%
%TO.N,/VBus*%
X54816000Y-84703500D03*
%TD*%
D12*
%TO.P,C12,1*%
%TO.N,GND*%
X91102000Y-82681000D03*
%TO.P,C12,2*%
%TO.N,/3.3V*%
X89552000Y-82681000D03*
%TD*%
D14*
%TO.P,R9,1*%
%TO.N,Net-(U5B--)*%
X133949000Y-105685000D03*
%TO.P,R9,2*%
%TO.N,Net-(R16-Pad1)*%
X133949000Y-104035000D03*
%TD*%
D15*
%TO.P,C18,1*%
%TO.N,Net-(D3-A)*%
X127091000Y-107184000D03*
%TO.P,C18,2*%
%TO.N,GND*%
X127091000Y-108734000D03*
%TD*%
D16*
%TO.P,U1,1,I/O1*%
%TO.N,Net-(J3-D--PadA7)*%
X52837000Y-91683000D03*
%TO.P,U1,2,GND*%
%TO.N,GND*%
X53787000Y-91683000D03*
%TO.P,U1,3,I/O2*%
%TO.N,Net-(J3-D+-PadA6)*%
X54737000Y-91683000D03*
%TO.P,U1,4,I/O2*%
%TO.N,unconnected-(U1-I{slash}O2-Pad4)*%
X54737000Y-89408000D03*
%TO.P,U1,5,VBUS*%
%TO.N,/VBus*%
X53787000Y-89408000D03*
%TO.P,U1,6,I/O1*%
%TO.N,unconnected-(U1-I{slash}O1-Pad6)*%
X52837000Y-89408000D03*
%TD*%
D15*
%TO.P,C19,1*%
%TO.N,Net-(D2-A)*%
X122265000Y-107184000D03*
%TO.P,C19,2*%
%TO.N,GND*%
X122265000Y-108734000D03*
%TD*%
D13*
%TO.P,C17,1*%
%TO.N,/ANALOG_FRONT_END/IN_RL*%
X122366000Y-124482000D03*
%TO.P,C17,2*%
%TO.N,GND*%
X123916000Y-124482000D03*
%TD*%
D17*
%TO.P,D2,1,K*%
%TO.N,+3.3VA*%
X114264000Y-109621000D03*
%TO.P,D2,2,A*%
%TO.N,Net-(D2-A)*%
X114264000Y-106321000D03*
%TD*%
D12*
%TO.P,C7,1*%
%TO.N,GND*%
X76038000Y-92831500D03*
%TO.P,C7,2*%
%TO.N,Net-(J1-Pin_5)*%
X74488000Y-92831500D03*
%TD*%
D18*
%TO.P,U7,1,RFI_LF*%
%TO.N,unconnected-(U7-RFI_LF-Pad1)*%
X94975500Y-114559000D03*
%TO.P,U7,2,VR_ANA*%
%TO.N,unconnected-(U7-VR_ANA-Pad2)*%
X94975500Y-113909000D03*
%TO.P,U7,3,VBAT_ANA*%
%TO.N,+3.3VA*%
X94975500Y-113259000D03*
%TO.P,U7,4,VR_DIG*%
%TO.N,unconnected-(U7-VR_DIG-Pad4)*%
X94975500Y-112609000D03*
%TO.P,U7,5,XTA*%
%TO.N,unconnected-(U7-XTA-Pad5)*%
X94975500Y-111959000D03*
%TO.P,U7,6,XTB*%
%TO.N,unconnected-(U7-XTB-Pad6)*%
X94975500Y-111309000D03*
%TO.P,U7,7,~{RESET}*%
%TO.N,/RF Sensors/LORA_RST*%
X94975500Y-110659000D03*
D19*
%TO.P,U7,8,DIO0*%
%TO.N,/RF Sensors/LORA_DIO0*%
X93938000Y-109621500D03*
%TO.P,U7,9,DIO1*%
%TO.N,unconnected-(U7-DIO1-Pad9)*%
X93288000Y-109621500D03*
%TO.P,U7,10,DIO2*%
%TO.N,unconnected-(U7-DIO2-Pad10)*%
X92638000Y-109621500D03*
%TO.P,U7,11,DIO3*%
%TO.N,unconnected-(U7-DIO3-Pad11)*%
X91988000Y-109621500D03*
%TO.P,U7,12,DIO4*%
%TO.N,unconnected-(U7-DIO4-Pad12)*%
X91338000Y-109621500D03*
%TO.P,U7,13,DIO5*%
%TO.N,unconnected-(U7-DIO5-Pad13)*%
X90688000Y-109621500D03*
%TO.P,U7,14,VBAT_DIG*%
%TO.N,+3.3VA*%
X90038000Y-109621500D03*
D18*
%TO.P,U7,15,GND*%
%TO.N,GND*%
X89000500Y-110659000D03*
%TO.P,U7,16,SCK*%
%TO.N,/RF Sensors/SPI1_SCK*%
X89000500Y-111309000D03*
%TO.P,U7,17,MISO*%
%TO.N,/RF Sensors/SPI1_MISO*%
X89000500Y-111959000D03*
%TO.P,U7,18,MOSI*%
%TO.N,/RF Sensors/SPI1_MOSI*%
X89000500Y-112609000D03*
%TO.P,U7,19,NSS*%
%TO.N,/RF Sensors/LORA_CS*%
X89000500Y-113259000D03*
%TO.P,U7,20,RXTX/RF_MOD*%
%TO.N,Net-(J2-In)*%
X89000500Y-113909000D03*
%TO.P,U7,21,GND*%
%TO.N,GND*%
X89000500Y-114559000D03*
D19*
%TO.P,U7,22,GND*%
X90038000Y-115596500D03*
%TO.P,U7,23,GND*%
X90688000Y-115596500D03*
%TO.P,U7,24,VBAT_RF*%
%TO.N,+3.3VA*%
X91338000Y-115596500D03*
%TO.P,U7,25,VR_PA*%
%TO.N,unconnected-(U7-VR_PA-Pad25)*%
X91988000Y-115596500D03*
%TO.P,U7,26,GND*%
%TO.N,GND*%
X92638000Y-115596500D03*
%TO.P,U7,27,PA_BOOST*%
%TO.N,unconnected-(U7-PA_BOOST-Pad27)*%
X93288000Y-115596500D03*
%TO.P,U7,28,RFO_LF*%
%TO.N,unconnected-(U7-RFO_LF-Pad28)*%
X93938000Y-115596500D03*
D20*
%TO.P,U7,29,GND*%
%TO.N,GND*%
X91988000Y-112609000D03*
%TD*%
D21*
%TO.P,J2,1,In*%
%TO.N,Net-(J2-In)*%
X91226000Y-129163000D03*
%TO.P,J2,2,Ext*%
%TO.N,GND*%
X93766000Y-126623000D03*
X88686000Y-126623000D03*
X93766000Y-131703000D03*
X88686000Y-131703000D03*
%TD*%
D22*
%TO.P,R14,1*%
%TO.N,/ANALOG_FRONT_END/IN_RL*%
X133949000Y-97305000D03*
%TO.P,R14,2*%
%TO.N,Net-(U5C-+)*%
X133949000Y-98955000D03*
%TD*%
D13*
%TO.P,C16,1*%
%TO.N,+3.3VA*%
X122296000Y-116678000D03*
%TO.P,C16,2*%
%TO.N,GND*%
X123846000Y-116678000D03*
%TD*%
D12*
%TO.P,C11,1*%
%TO.N,GND*%
X91128000Y-84586000D03*
%TO.P,C11,2*%
%TO.N,/3.3V*%
X89578000Y-84586000D03*
%TD*%
D23*
%TO.P,D1,1,K*%
%TO.N,Net-(D1-K)*%
X62753000Y-93720500D03*
%TO.P,D1,2,A*%
%TO.N,Net-(D1-A)*%
X64328000Y-93720500D03*
%TD*%
D24*
%TO.P,L1,1,1*%
%TO.N,Net-(U3-L1)*%
X67591000Y-85338500D03*
%TO.P,L1,2,2*%
%TO.N,Net-(U3-L2)*%
X73091000Y-85338500D03*
%TD*%
D12*
%TO.P,C14,1*%
%TO.N,GND*%
X91084000Y-90512000D03*
%TO.P,C14,2*%
%TO.N,/3.3V*%
X89534000Y-90512000D03*
%TD*%
D25*
%TO.P,REF\u002A\u002A,1*%
%TO.N,N/C*%
X135450000Y-61300000D03*
%TD*%
D26*
%TO.P,R8,1*%
%TO.N,Net-(D2-A)*%
X119726000Y-101749000D03*
%TO.P,R8,2*%
%TO.N,Net-(U5B--)*%
X121376000Y-101749000D03*
%TD*%
D25*
%TO.P,REF\u002A\u002A,1*%
%TO.N,N/C*%
X46000000Y-132200000D03*
%TD*%
D26*
%TO.P,R15,1*%
%TO.N,Net-(R15-Pad1)*%
X128616000Y-96923000D03*
%TO.P,R15,2*%
%TO.N,Net-(U5C--)*%
X130266000Y-96923000D03*
%TD*%
%TO.P,R21,1*%
%TO.N,/RF Sensors/I2C1_SDA*%
X104622500Y-116292000D03*
%TO.P,R21,2*%
%TO.N,+3.3VA*%
X106272500Y-116292000D03*
%TD*%
D27*
%TO.P,C5,1*%
%TO.N,/3.3V*%
X101262000Y-92232000D03*
%TO.P,C5,2*%
%TO.N,GND*%
X101262000Y-90682000D03*
%TD*%
D28*
%TO.P,D5,1,K*%
%TO.N,Net-(D2-A)*%
X118836000Y-106196000D03*
%TO.P,D5,2,A*%
%TO.N,GND*%
X118836000Y-109496000D03*
%TD*%
D25*
%TO.P,REF\u002A\u002A,1*%
%TO.N,N/C*%
X46050000Y-61300000D03*
%TD*%
D13*
%TO.P,C23,1*%
%TO.N,+3.3VA*%
X91260500Y-117816000D03*
%TO.P,C23,2*%
%TO.N,GND*%
X92810500Y-117816000D03*
%TD*%
D29*
%TO.P,R20,1*%
%TO.N,+3.3VA*%
X106271500Y-114133000D03*
%TO.P,R20,2*%
%TO.N,/RF Sensors/I2C1_SCL*%
X104621500Y-114133000D03*
%TD*%
D12*
%TO.P,C20,1*%
%TO.N,Net-(U5D-+)*%
X124704000Y-97050000D03*
%TO.P,C20,2*%
%TO.N,GND*%
X123154000Y-97050000D03*
%TD*%
D25*
%TO.P,REF\u002A\u002A,1*%
%TO.N,N/C*%
X135450000Y-132200000D03*
%TD*%
D12*
%TO.P,C10,1*%
%TO.N,GND*%
X91128000Y-86491000D03*
%TO.P,C10,2*%
%TO.N,/3.3V*%
X89578000Y-86491000D03*
%TD*%
D13*
%TO.P,C8,1*%
%TO.N,Net-(U4-PH0)*%
X81323000Y-92079000D03*
%TO.P,C8,2*%
%TO.N,GND*%
X82873000Y-92079000D03*
%TD*%
D27*
%TO.P,C26,1*%
%TO.N,+3.3VA*%
X106272500Y-112000000D03*
%TO.P,C26,2*%
%TO.N,GND*%
X106272500Y-110450000D03*
%TD*%
D12*
%TO.P,C25,1*%
%TO.N,Net-(U6-CPOUT)*%
X99948500Y-118197000D03*
%TO.P,C25,2*%
%TO.N,GND*%
X98398500Y-118197000D03*
%TD*%
D29*
%TO.P,R7,1*%
%TO.N,Net-(R15-Pad1)*%
X121375000Y-104289000D03*
%TO.P,R7,2*%
%TO.N,Net-(D2-A)*%
X119725000Y-104289000D03*
%TD*%
D14*
%TO.P,R17,1*%
%TO.N,/ANALOG_FRONT_END/IN_RA*%
X125059000Y-108860000D03*
%TO.P,R17,2*%
%TO.N,Net-(D2-A)*%
X125059000Y-107210000D03*
%TD*%
D12*
%TO.P,C9,1*%
%TO.N,GND*%
X86048000Y-92079000D03*
%TO.P,C9,2*%
%TO.N,Net-(U4-PH1)*%
X84498000Y-92079000D03*
%TD*%
D26*
%TO.P,R1,1*%
%TO.N,Net-(J3-CC1)*%
X49978000Y-84703500D03*
%TO.P,R1,2*%
%TO.N,GND*%
X51628000Y-84703500D03*
%TD*%
D30*
%TO.P,U6,1,CLKIN*%
%TO.N,unconnected-(U6-CLKIN-Pad1)*%
X102298500Y-115395000D03*
%TO.P,U6,2,NC*%
%TO.N,unconnected-(U6-NC-Pad2)*%
X102298500Y-114895000D03*
%TO.P,U6,3,NC*%
%TO.N,unconnected-(U6-NC-Pad3)*%
X102298500Y-114395000D03*
%TO.P,U6,4,NC*%
%TO.N,unconnected-(U6-NC-Pad4)*%
X102298500Y-113895000D03*
%TO.P,U6,5,NC*%
%TO.N,unconnected-(U6-NC-Pad5)*%
X102298500Y-113395000D03*
%TO.P,U6,6,AUX_DA*%
%TO.N,unconnected-(U6-AUX_DA-Pad6)*%
X102298500Y-112895000D03*
D31*
%TO.P,U6,7,AUX_CL*%
%TO.N,unconnected-(U6-AUX_CL-Pad7)*%
X101598500Y-112195000D03*
%TO.P,U6,8,VLOGIC*%
%TO.N,+3.3VA*%
X101098500Y-112195000D03*
%TO.P,U6,9,AD0*%
%TO.N,GND*%
X100598500Y-112195000D03*
%TO.P,U6,10,REGOUT*%
%TO.N,Net-(U6-REGOUT)*%
X100098500Y-112195000D03*
%TO.P,U6,11,FSYNC*%
%TO.N,unconnected-(U6-FSYNC-Pad11)*%
X99598500Y-112195000D03*
%TO.P,U6,12,INT*%
%TO.N,unconnected-(U6-INT-Pad12)*%
X99098500Y-112195000D03*
D30*
%TO.P,U6,13,VDD*%
%TO.N,+3.3VA*%
X98398500Y-112895000D03*
%TO.P,U6,14,NC*%
%TO.N,unconnected-(U6-NC-Pad14)*%
X98398500Y-113395000D03*
%TO.P,U6,15,NC*%
%TO.N,unconnected-(U6-NC-Pad15)*%
X98398500Y-113895000D03*
%TO.P,U6,16,NC*%
%TO.N,unconnected-(U6-NC-Pad16)*%
X98398500Y-114395000D03*
%TO.P,U6,17,NC*%
%TO.N,unconnected-(U6-NC-Pad17)*%
X98398500Y-114895000D03*
%TO.P,U6,18,GND*%
%TO.N,GND*%
X98398500Y-115395000D03*
D31*
%TO.P,U6,19,RESV*%
%TO.N,unconnected-(U6-RESV-Pad19)*%
X99098500Y-116095000D03*
%TO.P,U6,20,CPOUT*%
%TO.N,Net-(U6-CPOUT)*%
X99598500Y-116095000D03*
%TO.P,U6,21,RESV*%
%TO.N,unconnected-(U6-RESV-Pad21)*%
X100098500Y-116095000D03*
%TO.P,U6,22,RESV*%
%TO.N,unconnected-(U6-RESV-Pad22)*%
X100598500Y-116095000D03*
%TO.P,U6,23,SCL*%
%TO.N,/RF Sensors/I2C1_SCL*%
X101098500Y-116095000D03*
%TO.P,U6,24,SDA*%
%TO.N,/RF Sensors/I2C1_SDA*%
X101598500Y-116095000D03*
%TD*%
D14*
%TO.P,R13,1*%
%TO.N,/3.3V*%
X129123000Y-108860000D03*
%TO.P,R13,2*%
%TO.N,Net-(D3-A)*%
X129123000Y-107210000D03*
%TD*%
D29*
%TO.P,R4,1*%
%TO.N,/VBat*%
X66105000Y-90164500D03*
%TO.P,R4,2*%
%TO.N,Net-(D1-A)*%
X64455000Y-90164500D03*
%TD*%
D12*
%TO.P,C4,1*%
%TO.N,GND*%
X71212000Y-94736500D03*
%TO.P,C4,2*%
%TO.N,/VBat*%
X69662000Y-94736500D03*
%TD*%
D14*
%TO.P,R6,1*%
%TO.N,Net-(U4-PH3)*%
X93261000Y-90110000D03*
%TO.P,R6,2*%
%TO.N,GND*%
X93261000Y-88460000D03*
%TD*%
D29*
%TO.P,R2,1*%
%TO.N,Net-(J3-CC2)*%
X54040000Y-96514500D03*
%TO.P,R2,2*%
%TO.N,GND*%
X52390000Y-96514500D03*
%TD*%
D32*
%TO.P,U5,1*%
%TO.N,Net-(R15-Pad1)*%
X124043000Y-104797000D03*
%TO.P,U5,2,-*%
%TO.N,Net-(D2-A)*%
X125313000Y-104797000D03*
%TO.P,U5,3,+*%
X126583000Y-104797000D03*
%TO.P,U5,4,V+*%
%TO.N,+3.3VA*%
X127853000Y-104797000D03*
%TO.P,U5,5,+*%
%TO.N,Net-(D3-A)*%
X129123000Y-104797000D03*
%TO.P,U5,6,-*%
%TO.N,Net-(U5B--)*%
X130393000Y-104797000D03*
%TO.P,U5,7*%
%TO.N,Net-(R16-Pad1)*%
X131663000Y-104797000D03*
%TO.P,U5,8*%
%TO.N,Net-(R10-Pad1)*%
X131663000Y-99847000D03*
%TO.P,U5,9,-*%
%TO.N,Net-(U5C--)*%
X130393000Y-99847000D03*
%TO.P,U5,10,+*%
%TO.N,Net-(U5C-+)*%
X129123000Y-99847000D03*
%TO.P,U5,11,V-*%
%TO.N,GND*%
X127853000Y-99847000D03*
%TO.P,U5,12,+*%
%TO.N,Net-(U5D-+)*%
X126583000Y-99847000D03*
%TO.P,U5,13,-*%
%TO.N,/ANALOG_FRONT_END/ECG_OUT*%
X125313000Y-99847000D03*
%TO.P,U5,14*%
X124043000Y-99847000D03*
%TD*%
D22*
%TO.P,R18,1*%
%TO.N,+3.3VA*%
X119852000Y-116863000D03*
%TO.P,R18,2*%
%TO.N,/ANALOG_FRONT_END/IN_RL*%
X119852000Y-118513000D03*
%TD*%
D12*
%TO.P,C15,1*%
%TO.N,GND*%
X91128000Y-80903000D03*
%TO.P,C15,2*%
%TO.N,/3.3V*%
X89578000Y-80903000D03*
%TD*%
D33*
%TO.P,U4,1,VBAT*%
%TO.N,/3.3V*%
X87634000Y-94762000D03*
%TO.P,U4,2,PC13*%
%TO.N,unconnected-(U4-PC13-Pad2)*%
X87634000Y-95262000D03*
%TO.P,U4,3,PC14*%
%TO.N,unconnected-(U4-PC14-Pad3)*%
X87634000Y-95762000D03*
%TO.P,U4,4,PC15*%
%TO.N,unconnected-(U4-PC15-Pad4)*%
X87634000Y-96262000D03*
%TO.P,U4,5,PH0*%
%TO.N,Net-(U4-PH0)*%
X87634000Y-96762000D03*
%TO.P,U4,6,PH1*%
%TO.N,Net-(U4-PH1)*%
X87634000Y-97262000D03*
%TO.P,U4,7,NRST*%
%TO.N,Net-(J1-Pin_5)*%
X87634000Y-97762000D03*
%TO.P,U4,8,PC0*%
%TO.N,unconnected-(U4-PC0-Pad8)*%
X87634000Y-98262000D03*
%TO.P,U4,9,PC1*%
%TO.N,unconnected-(U4-PC1-Pad9)*%
X87634000Y-98762000D03*
%TO.P,U4,10,PC2*%
%TO.N,unconnected-(U4-PC2-Pad10)*%
X87634000Y-99262000D03*
%TO.P,U4,11,PC3*%
%TO.N,unconnected-(U4-PC3-Pad11)*%
X87634000Y-99762000D03*
%TO.P,U4,12,VSSA*%
%TO.N,/3.3VA*%
X87634000Y-100262000D03*
%TO.P,U4,13,VDDA*%
%TO.N,/3.3V*%
X87634000Y-100762000D03*
%TO.P,U4,14,PA0*%
%TO.N,unconnected-(U4-PA0-Pad14)*%
X87634000Y-101262000D03*
%TO.P,U4,15,PA1*%
%TO.N,/ANALOG_FRONT_END/ECG_OUT*%
X87634000Y-101762000D03*
%TO.P,U4,16,PA2*%
%TO.N,unconnected-(U4-PA2-Pad16)*%
X87634000Y-102262000D03*
D34*
%TO.P,U4,17,PA3*%
%TO.N,unconnected-(U4-PA3-Pad17)*%
X89559000Y-104187000D03*
%TO.P,U4,18,VSS*%
%TO.N,/3.3VA*%
X90059000Y-104187000D03*
%TO.P,U4,19,VDD*%
%TO.N,/3.3V*%
X90559000Y-104187000D03*
%TO.P,U4,20,PA4*%
%TO.N,/RF Sensors/LORA_CS*%
X91059000Y-104187000D03*
%TO.P,U4,21,PA5*%
%TO.N,/RF Sensors/SPI1_SCK*%
X91559000Y-104187000D03*
%TO.P,U4,22,PA6*%
%TO.N,/RF Sensors/SPI1_MISO*%
X92059000Y-104187000D03*
%TO.P,U4,23,PA7*%
%TO.N,/RF Sensors/SPI1_MOSI*%
X92559000Y-104187000D03*
%TO.P,U4,24,PC4*%
%TO.N,/RF Sensors/LORA_RST*%
X93059000Y-104187000D03*
%TO.P,U4,25,PC5*%
%TO.N,unconnected-(U4-PC5-Pad25)*%
X93559000Y-104187000D03*
%TO.P,U4,26,PB0*%
%TO.N,/RF Sensors/LORA_DIO0*%
X94059000Y-104187000D03*
%TO.P,U4,27,PB1*%
%TO.N,unconnected-(U4-PB1-Pad27)*%
X94559000Y-104187000D03*
%TO.P,U4,28,PB2*%
%TO.N,unconnected-(U4-PB2-Pad28)*%
X95059000Y-104187000D03*
%TO.P,U4,29,PB10*%
%TO.N,unconnected-(U4-PB10-Pad29)*%
X95559000Y-104187000D03*
%TO.P,U4,30,PB11*%
%TO.N,unconnected-(U4-PB11-Pad30)*%
X96059000Y-104187000D03*
%TO.P,U4,31,VSS*%
%TO.N,/3.3VA*%
X96559000Y-104187000D03*
%TO.P,U4,32,VDD*%
%TO.N,/3.3V*%
X97059000Y-104187000D03*
D33*
%TO.P,U4,33,PB12*%
%TO.N,unconnected-(U4-PB12-Pad33)*%
X98984000Y-102262000D03*
%TO.P,U4,34,PB13*%
%TO.N,unconnected-(U4-PB13-Pad34)*%
X98984000Y-101762000D03*
%TO.P,U4,35,PB14*%
%TO.N,unconnected-(U4-PB14-Pad35)*%
X98984000Y-101262000D03*
%TO.P,U4,36,PB15*%
%TO.N,unconnected-(U4-PB15-Pad36)*%
X98984000Y-100762000D03*
%TO.P,U4,37,PC6*%
%TO.N,unconnected-(U4-PC6-Pad37)*%
X98984000Y-100262000D03*
%TO.P,U4,38,PC7*%
%TO.N,unconnected-(U4-PC7-Pad38)*%
X98984000Y-99762000D03*
%TO.P,U4,39,PC8*%
%TO.N,unconnected-(U4-PC8-Pad39)*%
X98984000Y-99262000D03*
%TO.P,U4,40,PC9*%
%TO.N,unconnected-(U4-PC9-Pad40)*%
X98984000Y-98762000D03*
%TO.P,U4,41,PA8*%
%TO.N,unconnected-(U4-PA8-Pad41)*%
X98984000Y-98262000D03*
%TO.P,U4,42,PA9*%
%TO.N,unconnected-(U4-PA9-Pad42)*%
X98984000Y-97762000D03*
%TO.P,U4,43,PA10*%
%TO.N,unconnected-(U4-PA10-Pad43)*%
X98984000Y-97262000D03*
%TO.P,U4,44,PA11*%
%TO.N,unconnected-(U4-PA11-Pad44)*%
X98984000Y-96762000D03*
%TO.P,U4,45,PA12*%
%TO.N,unconnected-(U4-PA12-Pad45)*%
X98984000Y-96262000D03*
%TO.P,U4,46,PA13*%
%TO.N,/ANALOG_FRONT_END/IN_RA*%
X98984000Y-95762000D03*
%TO.P,U4,47,VSS*%
%TO.N,/3.3VA*%
X98984000Y-95262000D03*
%TO.P,U4,48,VDD*%
%TO.N,/3.3V*%
X98984000Y-94762000D03*
D34*
%TO.P,U4,49,PA14*%
%TO.N,/ANALOG_FRONT_END/IN_RL*%
X97059000Y-92837000D03*
%TO.P,U4,50,PA15*%
%TO.N,unconnected-(U4-PA15-Pad50)*%
X96559000Y-92837000D03*
%TO.P,U4,51,PC10*%
%TO.N,unconnected-(U4-PC10-Pad51)*%
X96059000Y-92837000D03*
%TO.P,U4,52,PC11*%
%TO.N,unconnected-(U4-PC11-Pad52)*%
X95559000Y-92837000D03*
%TO.P,U4,53,PC12*%
%TO.N,unconnected-(U4-PC12-Pad53)*%
X95059000Y-92837000D03*
%TO.P,U4,54,PD2*%
%TO.N,unconnected-(U4-PD2-Pad54)*%
X94559000Y-92837000D03*
%TO.P,U4,55,PB3*%
%TO.N,unconnected-(U4-PB3-Pad55)*%
X94059000Y-92837000D03*
%TO.P,U4,56,PB4*%
%TO.N,unconnected-(U4-PB4-Pad56)*%
X93559000Y-92837000D03*
%TO.P,U4,57,PB5*%
%TO.N,unconnected-(U4-PB5-Pad57)*%
X93059000Y-92837000D03*
%TO.P,U4,58,PB6*%
%TO.N,/RF Sensors/I2C1_SCL*%
X92559000Y-92837000D03*
%TO.P,U4,59,PB7*%
%TO.N,/RF Sensors/I2C1_SDA*%
X92059000Y-92837000D03*
%TO.P,U4,60,PH3*%
%TO.N,Net-(U4-PH3)*%
X91559000Y-92837000D03*
%TO.P,U4,61,PB8*%
%TO.N,unconnected-(U4-PB8-Pad61)*%
X91059000Y-92837000D03*
%TO.P,U4,62,PB9*%
%TO.N,unconnected-(U4-PB9-Pad62)*%
X90559000Y-92837000D03*
%TO.P,U4,63,VSS*%
%TO.N,/3.3VA*%
X90059000Y-92837000D03*
%TO.P,U4,64,VDD*%
%TO.N,/3.3V*%
X89559000Y-92837000D03*
%TD*%
D22*
%TO.P,R11,1*%
%TO.N,Net-(C21-Pad1)*%
X126583000Y-95654000D03*
%TO.P,R11,2*%
%TO.N,Net-(U5D-+)*%
X126583000Y-97304000D03*
%TD*%
D13*
%TO.P,C22,1*%
%TO.N,+3.3VA*%
X91260500Y-119848000D03*
%TO.P,C22,2*%
%TO.N,GND*%
X92810500Y-119848000D03*
%TD*%
D35*
%TO.P,J3,A1,GND*%
%TO.N,GND*%
X49958000Y-87803500D03*
%TO.P,J3,A4,VBUS*%
%TO.N,/VBus*%
X49958000Y-88603500D03*
D36*
%TO.P,J3,A5,CC1*%
%TO.N,Net-(J3-CC1)*%
X49958000Y-89803500D03*
%TO.P,J3,A6,D+*%
%TO.N,Net-(J3-D+-PadA6)*%
X49958000Y-90803500D03*
%TO.P,J3,A7,D-*%
%TO.N,Net-(J3-D--PadA7)*%
X49958000Y-91303500D03*
%TO.P,J3,A8*%
%TO.N,N/C*%
X49958000Y-92303500D03*
D35*
%TO.P,J3,A9,VBUS*%
%TO.N,/VBus*%
X49958000Y-93503500D03*
%TO.P,J3,A12,GND*%
%TO.N,GND*%
X49958000Y-94303500D03*
%TO.P,J3,B1,GND*%
X49958000Y-94303500D03*
%TO.P,J3,B4,VBUS*%
%TO.N,/VBus*%
X49958000Y-93503500D03*
D36*
%TO.P,J3,B5,CC2*%
%TO.N,Net-(J3-CC2)*%
X49958000Y-92803500D03*
%TO.P,J3,B6,D+*%
%TO.N,unconnected-(J3-D+-PadB6)*%
X49958000Y-91803500D03*
%TO.P,J3,B7,D-*%
%TO.N,unconnected-(J3-D--PadB7)*%
X49958000Y-90303500D03*
%TO.P,J3,B8*%
%TO.N,N/C*%
X49958000Y-89303500D03*
D35*
%TO.P,J3,B9,VBUS*%
%TO.N,/VBus*%
X49958000Y-88603500D03*
%TO.P,J3,B12,GND*%
%TO.N,GND*%
X49958000Y-87803500D03*
D37*
%TO.P,J3,S1,SHIELD*%
X49043000Y-86733500D03*
D38*
X44863000Y-86733500D03*
D37*
X49043000Y-95373500D03*
D38*
X44863000Y-95373500D03*
%TD*%
D26*
%TO.P,R19,1*%
%TO.N,/ANALOG_FRONT_END/IN_RL*%
X122266000Y-121815000D03*
%TO.P,R19,2*%
%TO.N,GND*%
X123916000Y-121815000D03*
%TD*%
%TO.P,R3,1*%
%TO.N,GND*%
X58360000Y-93720500D03*
%TO.P,R3,2*%
%TO.N,Net-(U2-PROG)*%
X60010000Y-93720500D03*
%TD*%
D12*
%TO.P,C13,1*%
%TO.N,GND*%
X91084000Y-88512000D03*
%TO.P,C13,2*%
%TO.N,/3.3V*%
X89534000Y-88512000D03*
%TD*%
D17*
%TO.P,D3,1,K*%
%TO.N,+3.3VA*%
X135346000Y-110510000D03*
%TO.P,D3,2,A*%
%TO.N,Net-(D3-A)*%
X135346000Y-107210000D03*
%TD*%
D27*
%TO.P,C3,1*%
%TO.N,/3.3V*%
X103548000Y-92232000D03*
%TO.P,C3,2*%
%TO.N,GND*%
X103548000Y-90682000D03*
%TD*%
D39*
%TO.P,U2,1,V_{DD}*%
%TO.N,/VBus*%
X59840000Y-89051500D03*
%TO.P,U2,2,V_{DD}*%
X59340000Y-89051500D03*
%TO.P,U2,3,V_{BAT}*%
%TO.N,/VBat*%
X58840000Y-89051500D03*
%TO.P,U2,4,V_{BAT}*%
X58340000Y-89051500D03*
%TO.P,U2,5,STAT*%
%TO.N,Net-(D1-K)*%
X58340000Y-91951500D03*
%TO.P,U2,6,V_{SS}*%
%TO.N,GND*%
X58840000Y-91951500D03*
%TO.P,U2,7,NC*%
%TO.N,unconnected-(U2-NC-Pad7)*%
X59340000Y-91951500D03*
%TO.P,U2,8,PROG*%
%TO.N,Net-(U2-PROG)*%
X59840000Y-91951500D03*
D40*
%TO.P,U2,9*%
%TO.N,N/C*%
X59090000Y-90501500D03*
%TD*%
D41*
%TO.P,FB1,1*%
%TO.N,/3.3V*%
X103599000Y-95254000D03*
%TO.P,FB1,2*%
%TO.N,/3.3VA*%
X102024000Y-95254000D03*
%TD*%
D14*
%TO.P,R16,1*%
%TO.N,Net-(R16-Pad1)*%
X133949000Y-102383000D03*
%TO.P,R16,2*%
%TO.N,Net-(U5C-+)*%
X133949000Y-100733000D03*
%TD*%
D12*
%TO.P,C21,1*%
%TO.N,Net-(C21-Pad1)*%
X126990000Y-93367000D03*
%TO.P,C21,2*%
%TO.N,/ANALOG_FRONT_END/ECG_OUT*%
X125440000Y-93367000D03*
%TD*%
D42*
%TO.P,Y1,1,1*%
%TO.N,Net-(U4-PH1)*%
X85094000Y-98005000D03*
%TO.P,Y1,2,2*%
%TO.N,Net-(U4-PH0)*%
X85094000Y-95805000D03*
%TO.P,Y1,3*%
%TO.N,N/C*%
X83394000Y-95805000D03*
%TO.P,Y1,4*%
X83394000Y-98005000D03*
%TD*%
D26*
%TO.P,R12,1*%
%TO.N,Net-(U5C--)*%
X131410000Y-95272000D03*
%TO.P,R12,2*%
%TO.N,Net-(R10-Pad1)*%
X133060000Y-95272000D03*
%TD*%
D17*
%TO.P,D4,1,K*%
%TO.N,GND*%
X131917000Y-110510000D03*
%TO.P,D4,2,A*%
%TO.N,Net-(D3-A)*%
X131917000Y-107210000D03*
%TD*%
D27*
%TO.P,C27,1*%
%TO.N,+3.3VA*%
X104240500Y-112000000D03*
%TO.P,C27,2*%
%TO.N,GND*%
X104240500Y-110450000D03*
%TD*%
D43*
%TO.P,U3,*%
%TO.N,GND*%
X70043000Y-92136500D03*
D44*
%TO.P,U3,1,VOUT*%
%TO.N,/3.3V*%
X71043000Y-90161500D03*
%TO.P,U3,2,L2*%
%TO.N,Net-(U3-L2)*%
X70543000Y-90161500D03*
%TO.P,U3,3,PGND*%
%TO.N,GND*%
X70043000Y-90161500D03*
%TO.P,U3,4,L1*%
%TO.N,Net-(U3-L1)*%
X69543000Y-90161500D03*
%TO.P,U3,5,VIN*%
%TO.N,/VBat*%
X69043000Y-90161500D03*
%TO.P,U3,6,EN*%
X69043000Y-92961500D03*
%TO.P,U3,7,PS/SYNC*%
%TO.N,unconnected-(U3-PS{slash}SYNC-Pad7)*%
X69543000Y-92961500D03*
%TO.P,U3,8,VINA*%
%TO.N,/VBat*%
X70043000Y-92961500D03*
%TO.P,U3,9,GND*%
%TO.N,GND*%
X70543000Y-92961500D03*
%TO.P,U3,10,FB*%
%TO.N,/3.3V*%
X71043000Y-92961500D03*
D43*
%TO.P,U3,11,PGND*%
%TO.N,GND*%
X70043000Y-90986500D03*
X70993000Y-91561500D03*
D45*
X70043000Y-91561500D03*
D43*
X69093000Y-91561500D03*
%TD*%
D27*
%TO.P,C6,1*%
%TO.N,/3.3VA*%
X99103000Y-92206000D03*
%TO.P,C6,2*%
%TO.N,GND*%
X99103000Y-90656000D03*
%TD*%
D29*
%TO.P,R5,1*%
%TO.N,/3.3V*%
X76138000Y-90164500D03*
%TO.P,R5,2*%
%TO.N,Net-(J1-Pin_5)*%
X74488000Y-90164500D03*
%TD*%
D26*
%TO.P,R10,1*%
%TO.N,Net-(R10-Pad1)*%
X135093000Y-95272000D03*
%TO.P,R10,2*%
%TO.N,Net-(C21-Pad1)*%
X136743000Y-95272000D03*
%TD*%
D46*
%TO.P,J1,1,Pin_1*%
%TO.N,/3.3V*%
X99786000Y-62063000D03*
D47*
%TO.P,J1,2,Pin_2*%
%TO.N,/ANALOG_FRONT_END/IN_RA*%
X99786000Y-64603000D03*
%TO.P,J1,3,Pin_3*%
%TO.N,/ANALOG_FRONT_END/IN_RL*%
X99786000Y-67143000D03*
%TO.P,J1,4,Pin_4*%
%TO.N,GND*%
X99786000Y-69683000D03*
%TO.P,J1,5,Pin_5*%
%TO.N,Net-(J1-Pin_5)*%
X99786000Y-72223000D03*
%TD*%
D27*
%TO.P,C2,1*%
%TO.N,GND*%
X61788000Y-91841500D03*
%TO.P,C2,2*%
%TO.N,/VBat*%
X61788000Y-90291500D03*
%TD*%
D48*
%TO.N,GND*%
X54509000Y-94128000D03*
X124825800Y-123973000D03*
X100769271Y-111076871D03*
X78351600Y-94173400D03*
X123638000Y-108525200D03*
X92351400Y-84536400D03*
X133005500Y-110399700D03*
X93182000Y-85363000D03*
X50940900Y-97246800D03*
X92237100Y-88512000D03*
X126028000Y-117480500D03*
X108176700Y-109694500D03*
X88234400Y-115668700D03*
X61119900Y-93574200D03*
X89137000Y-110015900D03*
X120020100Y-109270800D03*
X126075000Y-108525200D03*
X100266500Y-90656000D03*
X92192700Y-90956400D03*
X53883600Y-85533300D03*
X82048400Y-90760200D03*
X93968200Y-119854700D03*
X72718000Y-94273000D03*
X87598800Y-91303000D03*
X93968200Y-118240800D03*
X97491900Y-118033000D03*
X60638700Y-91765200D03*
X122126100Y-96575700D03*
X93182000Y-82393000D03*
X96821841Y-115095321D03*
X127211000Y-101056100D03*
X126579800Y-121003000D03*
%TO.N,/3.3V*%
X90196000Y-79182500D03*
%TO.N,/3.3VA*%
X96168000Y-100289800D03*
X96168000Y-105447200D03*
%TO.N,Net-(J1-Pin_5)*%
X96435200Y-94870700D03*
X86287900Y-99419800D03*
%TO.N,+3.3VA*%
X90978400Y-108760400D03*
X90978400Y-116546300D03*
%TO.N,/ANALOG_FRONT_END/IN_RL*%
X102419500Y-90894400D03*
X132000000Y-118033000D03*
X132000000Y-70513000D03*
X135451900Y-97156100D03*
%TO.N,/ANALOG_FRONT_END/ECG_OUT*%
X89814900Y-101922600D03*
X97673800Y-104474900D03*
%TO.N,/ANALOG_FRONT_END/IN_RA*%
X101864900Y-106153000D03*
X100380300Y-95700400D03*
%TO.N,Net-(J2-In)*%
X87748000Y-115063000D03*
%TO.N,Net-(R15-Pad1)*%
X128023000Y-102983900D03*
X128693100Y-98063400D03*
%TO.N,/RF Sensors/I2C1_SCL*%
X101229900Y-108947000D03*
X97098100Y-90939800D03*
%TO.N,/RF Sensors/I2C1_SDA*%
X98530000Y-93798000D03*
X102690900Y-116130900D03*
%TO.N,/RF Sensors/SPI1_MOSI*%
X89396800Y-109262100D03*
X87942900Y-109799200D03*
%TO.N,/RF Sensors/LORA_DIO0*%
X94776900Y-109598800D03*
X95271500Y-105895500D03*
%TO.N,/RF Sensors/SPI1_MISO*%
X88132900Y-111552900D03*
X91426200Y-107333600D03*
%TD*%
D49*
%TO.N,GND*%
X72718000Y-94273000D02*
X71675500Y-94273000D01*
X86824000Y-91303000D02*
X86048000Y-92079000D01*
X100598500Y-112195000D02*
X100598500Y-111247642D01*
X126882200Y-108525200D02*
X127091000Y-108734000D01*
X93968200Y-118240800D02*
X93235300Y-118240800D01*
X101218500Y-110323000D02*
X101218500Y-110798000D01*
X102191100Y-90342700D02*
X101851900Y-90681900D01*
X97121520Y-115395000D02*
X96821841Y-115095321D01*
X122126100Y-96575700D02*
X122679700Y-96575700D01*
X91128000Y-82393000D02*
X91102000Y-82419000D01*
X93968200Y-119854700D02*
X92817200Y-119854700D01*
X82048400Y-90760200D02*
X82873000Y-91584800D01*
X107028000Y-109694500D02*
X106272500Y-110450000D01*
X49043000Y-95373500D02*
X50344700Y-95373500D01*
X124728000Y-121003000D02*
X123916000Y-121815000D01*
X127211000Y-101056100D02*
X127853000Y-100414100D01*
X89137000Y-110522500D02*
X89000500Y-110659000D01*
X93182000Y-85363000D02*
X92256000Y-85363000D01*
X61119900Y-93734700D02*
X60394100Y-94460500D01*
X97491900Y-118033000D02*
X98234500Y-118033000D01*
X100939629Y-111076871D02*
X100769271Y-111076871D01*
X100266500Y-90656000D02*
X101236000Y-90656000D01*
X122473800Y-108525200D02*
X122265000Y-108734000D01*
X54509000Y-94128000D02*
X53787000Y-93406000D01*
X90038000Y-114559000D02*
X91988000Y-112609000D01*
X69093000Y-91561500D02*
X70043000Y-91561500D01*
X58360000Y-93720500D02*
X58840000Y-93240500D01*
X53787000Y-93406000D02*
X53787000Y-91683000D01*
X53266000Y-84703500D02*
X51628000Y-84703500D01*
X77379900Y-94173400D02*
X76038000Y-92831500D01*
X78351600Y-94173400D02*
X77379900Y-94173400D01*
X91528400Y-90956400D02*
X91084000Y-90512000D01*
X91128000Y-82393000D02*
X91128000Y-80903000D01*
X124648500Y-117480500D02*
X123846000Y-116678000D01*
X98234500Y-118033000D02*
X98398500Y-118197000D01*
X119061200Y-109270800D02*
X118836000Y-109496000D01*
X101218500Y-110798000D02*
X100939629Y-111076871D01*
X90688000Y-115596500D02*
X90038000Y-115596500D01*
X127853000Y-100414100D02*
X127853000Y-99847000D01*
X89137000Y-110015900D02*
X89137000Y-110522500D01*
X70543000Y-94067500D02*
X70543000Y-92961500D01*
X126579800Y-121003000D02*
X124728000Y-121003000D01*
X126028000Y-117480500D02*
X124648500Y-117480500D01*
X126075000Y-108525200D02*
X126882200Y-108525200D01*
X103548000Y-90682000D02*
X103208700Y-90342700D01*
X91209000Y-90512000D02*
X91084000Y-90512000D01*
X108176700Y-109694500D02*
X107028000Y-109694500D01*
X70472400Y-91707100D02*
X70484600Y-91707100D01*
X51657700Y-97246800D02*
X52390000Y-96514500D01*
X60394100Y-94460500D02*
X59100000Y-94460500D01*
X89000500Y-115596500D02*
X90038000Y-115596500D01*
X123638000Y-108525200D02*
X122473800Y-108525200D01*
X89775500Y-114559000D02*
X91838000Y-114559000D01*
X92192700Y-90956400D02*
X91528400Y-90956400D01*
X92237100Y-88512000D02*
X93209000Y-88512000D01*
X92638000Y-115359000D02*
X92638000Y-115596500D01*
X70543000Y-91765500D02*
X70543000Y-92961500D01*
X70043000Y-92136500D02*
X70472400Y-91707100D01*
X93182000Y-82393000D02*
X91128000Y-82393000D01*
X93209000Y-88512000D02*
X93261000Y-88460000D01*
X53266000Y-84915700D02*
X53883600Y-85533300D01*
X132027300Y-110399700D02*
X131917000Y-110510000D01*
X49958000Y-94303500D02*
X50934700Y-94303500D01*
X89775500Y-114559000D02*
X90038000Y-114559000D01*
X99103000Y-90656000D02*
X100266500Y-90656000D01*
X101851900Y-90682000D02*
X101262000Y-90682000D01*
X92817200Y-119854700D02*
X92810500Y-119848000D01*
X87598800Y-91303000D02*
X86824000Y-91303000D01*
X61711700Y-91765200D02*
X61788000Y-91841500D01*
X101851900Y-90681900D02*
X101851900Y-90682000D01*
X98398500Y-115395000D02*
X97121520Y-115395000D01*
X71675500Y-94273000D02*
X71212000Y-94736500D01*
X106272500Y-110450000D02*
X104240500Y-110450000D01*
X133005500Y-110399700D02*
X132027300Y-110399700D01*
X89000500Y-115596500D02*
X89000500Y-114559000D01*
X101236000Y-90656000D02*
X101262000Y-90682000D01*
X100598500Y-111247642D02*
X100769271Y-111076871D01*
X59100000Y-94460500D02*
X58360000Y-93720500D01*
X93261000Y-88460000D02*
X96907000Y-88460000D01*
X49043000Y-86733500D02*
X49958000Y-87648500D01*
X122679700Y-96575700D02*
X123154000Y-97050000D01*
X58840000Y-93240500D02*
X58840000Y-91951500D01*
X91177600Y-84536400D02*
X91128000Y-84586000D01*
X88928300Y-115668700D02*
X89000500Y-115596500D01*
X70484600Y-91707100D02*
X70543000Y-91765500D01*
X92351400Y-84536400D02*
X91177600Y-84536400D01*
X70043000Y-90986500D02*
X70043000Y-90161500D01*
X120020100Y-109270800D02*
X119061200Y-109270800D01*
X91838000Y-114559000D02*
X92638000Y-115359000D01*
X89000500Y-114559000D02*
X89775500Y-114559000D01*
X92256000Y-85363000D02*
X91128000Y-86491000D01*
X123916000Y-124482000D02*
X124425000Y-123973000D01*
X82873000Y-91584800D02*
X82873000Y-92079000D01*
X103208700Y-90342700D02*
X102191100Y-90342700D01*
X61119900Y-93574200D02*
X61119900Y-93734700D01*
X124425000Y-123973000D02*
X124825800Y-123973000D01*
X53266000Y-84703500D02*
X53266000Y-84915700D01*
X71212000Y-94736500D02*
X70543000Y-94067500D01*
X93261000Y-88460000D02*
X91209000Y-90512000D01*
X60638700Y-91765200D02*
X61711700Y-91765200D01*
X96907000Y-88460000D02*
X99103000Y-90656000D01*
X91102000Y-82419000D02*
X91102000Y-82681000D01*
X50934700Y-94783500D02*
X50934700Y-94303500D01*
X91084000Y-88512000D02*
X92237100Y-88512000D01*
X93235300Y-118240800D02*
X92810500Y-117816000D01*
X88234400Y-115668700D02*
X88928300Y-115668700D01*
X50344700Y-95373500D02*
X50934700Y-94783500D01*
X49958000Y-87648500D02*
X49958000Y-87803500D01*
X50940900Y-97246800D02*
X51657700Y-97246800D01*
%TO.N,/VBus*%
X50934700Y-88603500D02*
X50934700Y-86931600D01*
X59840000Y-89051500D02*
X59340000Y-89051500D01*
X49353900Y-93503500D02*
X49958000Y-93503500D01*
X47686300Y-86477100D02*
X47686300Y-91835900D01*
X49246200Y-84302600D02*
X49577400Y-83971400D01*
X59041400Y-88360300D02*
X54816000Y-88360300D01*
X48181600Y-85981800D02*
X47686300Y-86477100D01*
X59340000Y-88658900D02*
X59041400Y-88360300D01*
X49958000Y-88603500D02*
X50934700Y-88603500D01*
X49246200Y-85981800D02*
X49246200Y-84302600D01*
X53787000Y-89112900D02*
X53787000Y-89408000D01*
X49246200Y-85981800D02*
X48181600Y-85981800D01*
X54816000Y-88360300D02*
X54539600Y-88360300D01*
X54539600Y-88360300D02*
X53787000Y-89112900D01*
X47686300Y-91835900D02*
X49353900Y-93503500D01*
X50934700Y-86931600D02*
X49984900Y-85981800D01*
X59340000Y-89051500D02*
X59340000Y-88658900D01*
X49577400Y-83971400D02*
X54083900Y-83971400D01*
X54083900Y-83971400D02*
X54816000Y-84703500D01*
X49984900Y-85981800D02*
X49246200Y-85981800D01*
X54816000Y-88360300D02*
X54816000Y-84703500D01*
%TO.N,/VBat*%
X69120400Y-94194800D02*
X69553900Y-93761300D01*
X65347900Y-89407400D02*
X62672100Y-89407400D01*
X68066200Y-92071700D02*
X68956000Y-92961500D01*
X68066200Y-90164500D02*
X68066200Y-92071700D01*
X58340000Y-89051500D02*
X58840000Y-89051500D01*
X57339600Y-94371400D02*
X58132100Y-95163900D01*
X69043000Y-93250500D02*
X69553900Y-93761300D01*
X57339600Y-90051900D02*
X57339600Y-94371400D01*
X69553900Y-93761300D02*
X70043000Y-93272200D01*
X69043000Y-90161500D02*
X68069200Y-90161500D01*
X68069200Y-90161500D02*
X68066200Y-90164500D01*
X68066200Y-90164500D02*
X66105000Y-90164500D01*
X58340000Y-89051500D02*
X57339600Y-90051900D01*
X58132100Y-95163900D02*
X61166300Y-95163900D01*
X62672100Y-89407400D02*
X61788000Y-90291500D01*
X61166300Y-95163900D02*
X61449900Y-94880300D01*
X61449900Y-94880300D02*
X68434900Y-94880300D01*
X68434900Y-94880300D02*
X69120400Y-94194800D01*
X69120400Y-94194800D02*
X69662000Y-94736500D01*
X68956000Y-92961500D02*
X69043000Y-92961500D01*
X69043000Y-92961500D02*
X69043000Y-93250500D01*
X66105000Y-90164500D02*
X65347900Y-89407400D01*
X70043000Y-93272200D02*
X70043000Y-92961500D01*
%TO.N,/3.3V*%
X73682900Y-89371200D02*
X72014900Y-91039200D01*
X88534000Y-89512000D02*
X89534000Y-88512000D01*
X76138000Y-90164500D02*
X75344700Y-89371200D01*
X101806400Y-87786000D02*
X90655600Y-87786000D01*
X120445900Y-108681100D02*
X121341200Y-109576400D01*
X72881200Y-92961500D02*
X72014900Y-92961500D01*
X89534000Y-86535000D02*
X89534000Y-88512000D01*
X104325300Y-91454700D02*
X104325300Y-90304900D01*
X101879900Y-108681100D02*
X120445900Y-108681100D01*
X89797000Y-89250000D02*
X89534000Y-88987000D01*
X89578000Y-86491000D02*
X89578000Y-84586000D01*
X83759600Y-90164500D02*
X84412100Y-89512000D01*
X89552000Y-84560000D02*
X89552000Y-82681000D01*
X89552000Y-82681000D02*
X89578000Y-82655000D01*
X101441800Y-101112000D02*
X98630600Y-103923200D01*
X104325300Y-90304900D02*
X101806400Y-87786000D01*
X102539000Y-93241000D02*
X103548000Y-92232000D01*
X103599000Y-94301000D02*
X102539000Y-93241000D01*
X90334575Y-89250000D02*
X89797000Y-89250000D01*
X90196000Y-79182500D02*
X89578000Y-79800500D01*
X83759600Y-92505000D02*
X83759600Y-90164500D01*
X121341200Y-109576400D02*
X128406600Y-109576400D01*
X100960661Y-108297000D02*
X101499139Y-108297000D01*
X100838231Y-108419431D02*
X100960661Y-108297000D01*
X98630600Y-103923200D02*
X97385900Y-103923200D01*
X98984000Y-94762000D02*
X100222300Y-94762000D01*
X97385900Y-103923200D02*
X97122100Y-104187000D01*
X75344700Y-89371200D02*
X73682900Y-89371200D01*
X89559000Y-90537000D02*
X89534000Y-90512000D01*
X90558900Y-104187000D02*
X90559000Y-104187000D01*
X101530000Y-92232000D02*
X101262000Y-92232000D01*
X89578000Y-86491000D02*
X89534000Y-86535000D01*
X100222300Y-94762000D02*
X101441800Y-95981500D01*
X89578000Y-79800500D02*
X89578000Y-80903000D01*
X90383000Y-89201575D02*
X90334575Y-89250000D01*
X90269400Y-105214000D02*
X90558900Y-104924500D01*
X90558900Y-104924500D02*
X90558900Y-104187000D01*
X84412100Y-89512000D02*
X88534000Y-89512000D01*
X101441800Y-95981500D02*
X102871500Y-95981500D01*
X86569200Y-102500200D02*
X89283000Y-105214000D01*
X87634000Y-94762000D02*
X86016600Y-94762000D01*
X89578000Y-82655000D02*
X89578000Y-80903000D01*
X90383000Y-88058600D02*
X90383000Y-89201575D01*
X80681700Y-100762000D02*
X72881200Y-92961500D01*
X103599000Y-95254000D02*
X103599000Y-94301000D01*
X86016600Y-94762000D02*
X83759600Y-92505000D01*
X97122100Y-104187000D02*
X97122100Y-104703300D01*
X89283000Y-105214000D02*
X90269400Y-105214000D01*
X97122100Y-104187000D02*
X97059000Y-104187000D01*
X88534000Y-89512000D02*
X89534000Y-90512000D01*
X101879900Y-108677761D02*
X101879900Y-108681100D01*
X72014900Y-92961500D02*
X71043000Y-92961500D01*
X89559000Y-92837000D02*
X89559000Y-90537000D01*
X103548000Y-92232000D02*
X104325300Y-91454700D01*
X101499139Y-108297000D02*
X101879900Y-108677761D01*
X90655600Y-87786000D02*
X90383000Y-88058600D01*
X102539000Y-93241000D02*
X101530000Y-92232000D01*
X76138000Y-90164500D02*
X83759600Y-90164500D01*
X71137200Y-90161500D02*
X71043000Y-90161500D01*
X89534000Y-88987000D02*
X89534000Y-88512000D01*
X87634000Y-100762000D02*
X86569200Y-100762000D01*
X89578000Y-84586000D02*
X89552000Y-84560000D01*
X86569200Y-100762000D02*
X80681700Y-100762000D01*
X128406600Y-109576400D02*
X129123000Y-108860000D01*
X102871500Y-95981500D02*
X103599000Y-95254000D01*
X86569200Y-100762000D02*
X86569200Y-102500200D01*
X72014900Y-92961500D02*
X72014900Y-91039200D01*
X72014900Y-91039200D02*
X71137200Y-90161500D01*
X101441800Y-95981500D02*
X101441800Y-101112000D01*
X97122100Y-104703300D02*
X100838231Y-108419431D01*
%TO.N,/3.3VA*%
X90059000Y-93591600D02*
X90786300Y-94318900D01*
X90366600Y-101694100D02*
X88934500Y-100262000D01*
X97957000Y-94513100D02*
X97957000Y-94972400D01*
X90366600Y-103121600D02*
X90366600Y-101694100D01*
X96559000Y-103440200D02*
X96559000Y-104187000D01*
X96559000Y-105056200D02*
X96559000Y-104187000D01*
X96168000Y-100289800D02*
X96168000Y-97323800D01*
X90786300Y-94318900D02*
X97762800Y-94318900D01*
X88934500Y-100262000D02*
X87634000Y-100262000D01*
X90059000Y-92837000D02*
X90059000Y-93591600D01*
X99103000Y-94360000D02*
X98110100Y-94360000D01*
X90059000Y-104187000D02*
X90059000Y-103429200D01*
X101130000Y-94360000D02*
X99103000Y-94360000D01*
X96240400Y-103121600D02*
X96559000Y-103440200D01*
X90366600Y-103121600D02*
X96240400Y-103121600D01*
X97957000Y-94972400D02*
X98246600Y-95262000D01*
X98246600Y-95262000D02*
X98615300Y-95262000D01*
X98229800Y-95262000D02*
X98615300Y-95262000D01*
X97762800Y-94318900D02*
X97957000Y-94513100D01*
X98615300Y-95262000D02*
X98984000Y-95262000D01*
X102024000Y-95254000D02*
X101130000Y-94360000D01*
X99103000Y-92206000D02*
X99103000Y-94360000D01*
X96168000Y-105447200D02*
X96559000Y-105056200D01*
X96168000Y-97323800D02*
X98229800Y-95262000D01*
X98110100Y-94360000D02*
X97957000Y-94513100D01*
X90059000Y-103429200D02*
X90366600Y-103121600D01*
%TO.N,Net-(J1-Pin_5)*%
X81076300Y-99419800D02*
X74488000Y-92831500D01*
X93543900Y-97762000D02*
X96435200Y-94870700D01*
X87634000Y-97762000D02*
X93543900Y-97762000D01*
X74488000Y-92831500D02*
X74488000Y-90164500D01*
X86287900Y-99419800D02*
X81076300Y-99419800D01*
%TO.N,Net-(U4-PH1)*%
X85399500Y-92980500D02*
X87114300Y-92980500D01*
X85094000Y-98005000D02*
X85837000Y-97262000D01*
X87114300Y-92980500D02*
X88718900Y-94585100D01*
X88718900Y-96927900D02*
X88384800Y-97262000D01*
X88718900Y-94585100D02*
X88718900Y-96927900D01*
X84498000Y-92079000D02*
X85399500Y-92980500D01*
X85837000Y-97262000D02*
X87634000Y-97262000D01*
X88384800Y-97262000D02*
X87634000Y-97262000D01*
%TO.N,+3.3VA*%
X126352600Y-106586000D02*
X126352600Y-107643100D01*
X106843500Y-116863000D02*
X106308200Y-116327700D01*
X95185800Y-113259000D02*
X94975500Y-113259000D01*
X127853000Y-105085600D02*
X126352600Y-106586000D01*
X90978400Y-116546300D02*
X91008300Y-116576200D01*
X106271500Y-116291000D02*
X106271500Y-114133000D01*
X134064400Y-109228400D02*
X135346000Y-110510000D01*
X129418500Y-107972000D02*
X129889600Y-108443100D01*
X120037000Y-116678000D02*
X119852000Y-116863000D01*
X90038000Y-109621500D02*
X90038000Y-109416000D01*
X106271500Y-112001000D02*
X106272500Y-112000000D01*
X128902300Y-110215700D02*
X129889600Y-109228400D01*
X95631300Y-114832900D02*
X95631300Y-113704500D01*
X94217700Y-116246500D02*
X95631300Y-114832900D01*
X98398500Y-110438600D02*
X99240100Y-109597000D01*
X91260500Y-117816000D02*
X91260500Y-119848000D01*
X94975500Y-113259000D02*
X96267100Y-113259000D01*
X129889600Y-108443100D02*
X129889600Y-109228400D01*
X98398500Y-112895000D02*
X98398500Y-110438600D01*
X106272500Y-116292000D02*
X106271500Y-116291000D01*
X91338000Y-116246500D02*
X91338000Y-115596500D01*
X112479700Y-112000000D02*
X114264000Y-110215700D01*
X114264000Y-110215700D02*
X114264000Y-109621000D01*
X104240500Y-112000000D02*
X106272500Y-112000000D01*
X91008300Y-116576200D02*
X91338000Y-116246500D01*
X96267100Y-113259000D02*
X96631100Y-112895000D01*
X126352600Y-107643100D02*
X126681500Y-107972000D01*
X91260500Y-117088400D02*
X91260500Y-116828400D01*
X99240100Y-109597000D02*
X101646900Y-109597000D01*
X91260500Y-116828400D02*
X91008300Y-116576200D01*
X96255000Y-118975600D02*
X94367800Y-117088400D01*
X119852000Y-116863000D02*
X106843500Y-116863000D01*
X91260500Y-117816000D02*
X91260500Y-117088400D01*
X122296000Y-116678000D02*
X120037000Y-116678000D01*
X129889600Y-109228400D02*
X134064400Y-109228400D01*
X101098500Y-111666881D02*
X101098500Y-112195000D01*
X96631100Y-112895000D02*
X98398500Y-112895000D01*
X101919500Y-110845881D02*
X101098500Y-111666881D01*
X103660300Y-118975600D02*
X96255000Y-118975600D01*
X106308200Y-116327700D02*
X103660300Y-118975600D01*
X90038000Y-109416000D02*
X90693600Y-108760400D01*
X95631300Y-113704500D02*
X95185800Y-113259000D01*
X91338000Y-116246500D02*
X94217700Y-116246500D01*
X90693600Y-108760400D02*
X90978400Y-108760400D01*
X101646900Y-109597000D02*
X101919500Y-109869600D01*
X94367800Y-117088400D02*
X91260500Y-117088400D01*
X106272500Y-112000000D02*
X112479700Y-112000000D01*
X126681500Y-107972000D02*
X129418500Y-107972000D01*
X101919500Y-109869600D02*
X101919500Y-110845881D01*
X106271500Y-114133000D02*
X106271500Y-112001000D01*
X106308200Y-116327700D02*
X106272500Y-116292000D01*
X114264000Y-110215700D02*
X128902300Y-110215700D01*
X127853000Y-104797000D02*
X127853000Y-105085600D01*
%TO.N,/ANALOG_FRONT_END/IN_RL*%
X119852000Y-118513000D02*
X131520000Y-118513000D01*
X103156000Y-70513000D02*
X99786000Y-67143000D01*
X119852000Y-118513000D02*
X122266000Y-120927000D01*
X102419500Y-90894400D02*
X101882900Y-91431000D01*
X98465000Y-91431000D02*
X97059000Y-92837000D01*
X132000000Y-70513000D02*
X103156000Y-70513000D01*
X122366000Y-124482000D02*
X122266000Y-124382000D01*
X134097900Y-97156100D02*
X133949000Y-97305000D01*
X135451900Y-97156100D02*
X134097900Y-97156100D01*
X122266000Y-120927000D02*
X122266000Y-121815000D01*
X101882900Y-91431000D02*
X98465000Y-91431000D01*
X131520000Y-118513000D02*
X132000000Y-118033000D01*
X122266000Y-124382000D02*
X122266000Y-121815000D01*
%TO.N,Net-(D3-A)*%
X132097200Y-107210000D02*
X131917000Y-107210000D01*
X132097200Y-107210000D02*
X129123000Y-107210000D01*
X129123000Y-104797000D02*
X129123000Y-107158000D01*
X129097000Y-107184000D02*
X129123000Y-107210000D01*
X129123000Y-107158000D02*
X129097000Y-107184000D01*
X135346000Y-107210000D02*
X132097200Y-107210000D01*
X127091000Y-107184000D02*
X129097000Y-107184000D01*
%TO.N,Net-(D2-A)*%
X114264000Y-106321000D02*
X116487500Y-106321000D01*
X118711000Y-106321000D02*
X118836000Y-106196000D01*
X116487500Y-106321000D02*
X121402000Y-106321000D01*
X125059000Y-107210000D02*
X125313000Y-106956000D01*
X119726000Y-101749000D02*
X119725000Y-101750000D01*
X119725000Y-101750000D02*
X119725000Y-104289000D01*
X121402000Y-106321000D02*
X122265000Y-107184000D01*
X118836000Y-105178000D02*
X118836000Y-106196000D01*
X122291000Y-107210000D02*
X122265000Y-107184000D01*
X125059000Y-107210000D02*
X122291000Y-107210000D01*
X125313000Y-104797000D02*
X126583000Y-104797000D01*
X119725000Y-104289000D02*
X118836000Y-105178000D01*
X125313000Y-106956000D02*
X125313000Y-104797000D01*
X116487500Y-106321000D02*
X118711000Y-106321000D01*
%TO.N,Net-(U5D-+)*%
X126583000Y-100196400D02*
X126583000Y-99847000D01*
X124971700Y-101075100D02*
X125704300Y-101075100D01*
X124704000Y-97050000D02*
X124704000Y-100807400D01*
X124704000Y-100807400D02*
X124971700Y-101075100D01*
X126583000Y-99847000D02*
X126583000Y-97304000D01*
X125704300Y-101075100D02*
X126583000Y-100196400D01*
%TO.N,Net-(C21-Pad1)*%
X126583000Y-95654000D02*
X126451500Y-95654000D01*
X124674500Y-92955800D02*
X125051200Y-92579100D01*
X134838000Y-93367000D02*
X126990000Y-93367000D01*
X126202100Y-92579100D02*
X126990000Y-93367000D01*
X136743000Y-95272000D02*
X134838000Y-93367000D01*
X124674500Y-93877000D02*
X124674500Y-92955800D01*
X126451500Y-95654000D02*
X124674500Y-93877000D01*
X125051200Y-92579100D02*
X126202100Y-92579100D01*
%TO.N,/ANALOG_FRONT_END/ECG_OUT*%
X123949800Y-99753800D02*
X123949800Y-96644300D01*
X89654300Y-101762000D02*
X87634000Y-101762000D01*
X125799600Y-96946700D02*
X125542900Y-97203400D01*
X127315400Y-96071900D02*
X127032200Y-96355100D01*
X124043000Y-99847000D02*
X123949800Y-99753800D01*
X97673800Y-104474900D02*
X109418700Y-104474900D01*
X114046600Y-99847000D02*
X124043000Y-99847000D01*
X125168100Y-96315300D02*
X125799600Y-96946700D01*
X127315400Y-95242400D02*
X127315400Y-96071900D01*
X125440000Y-93367000D02*
X127315400Y-95242400D01*
X125542900Y-97203400D02*
X125542900Y-99617100D01*
X109418700Y-104474900D02*
X114046600Y-99847000D01*
X123949800Y-96644300D02*
X124278800Y-96315300D01*
X124278800Y-96315300D02*
X125168100Y-96315300D01*
X126391200Y-96355100D02*
X125799600Y-96946700D01*
X89814900Y-101922600D02*
X89654300Y-101762000D01*
X127032200Y-96355100D02*
X126391200Y-96355100D01*
X125542900Y-99617100D02*
X125313000Y-99847000D01*
%TO.N,Net-(U6-REGOUT)*%
X100098500Y-110753000D02*
X99668500Y-110323000D01*
X100098500Y-112195000D02*
X100098500Y-110753000D01*
%TO.N,Net-(U6-CPOUT)*%
X99667300Y-117915800D02*
X99948500Y-118197000D01*
X99667300Y-116163700D02*
X99667300Y-117915800D01*
X99598500Y-116095000D02*
X99667200Y-116163700D01*
X99667200Y-116163700D02*
X99667300Y-116163700D01*
%TO.N,Net-(D1-A)*%
X64455000Y-90164500D02*
X64455000Y-93593500D01*
X64455000Y-93593500D02*
X64328000Y-93720500D01*
%TO.N,Net-(D1-K)*%
X57697600Y-92593900D02*
X57697600Y-94173100D01*
X61020600Y-94812200D02*
X62112300Y-93720500D01*
X62112300Y-93720500D02*
X62753000Y-93720500D01*
X58340000Y-91951500D02*
X57697600Y-92593900D01*
X58336700Y-94812200D02*
X61020600Y-94812200D01*
X57697600Y-94173100D02*
X58336700Y-94812200D01*
%TO.N,/ANALOG_FRONT_END/IN_RA*%
X103673800Y-107961900D02*
X101864900Y-106153000D01*
X99045600Y-95700400D02*
X98984000Y-95762000D01*
X124160900Y-107961900D02*
X103673800Y-107961900D01*
X125059000Y-108860000D02*
X124160900Y-107961900D01*
X100380300Y-95700400D02*
X99045600Y-95700400D01*
%TO.N,Net-(J2-In)*%
X87748000Y-114917200D02*
X88756200Y-113909000D01*
X87748000Y-115063000D02*
X87748000Y-114917200D01*
X88756200Y-113909000D02*
X89000500Y-113909000D01*
%TO.N,Net-(U3-L1)*%
X67591000Y-85338500D02*
X68592700Y-85338500D01*
X69543000Y-86288800D02*
X69543000Y-90161500D01*
X68592700Y-85338500D02*
X69543000Y-86288800D01*
%TO.N,Net-(U3-L2)*%
X72089300Y-85338500D02*
X70543000Y-86884800D01*
X70543000Y-86884800D02*
X70543000Y-90161500D01*
X73091000Y-85338500D02*
X72089300Y-85338500D01*
%TO.N,Net-(J3-CC1)*%
X51286400Y-86011900D02*
X49978000Y-84703500D01*
X51286400Y-89451800D02*
X51286400Y-86011900D01*
X49958000Y-89803500D02*
X50934700Y-89803500D01*
X50934700Y-89803500D02*
X51286400Y-89451800D01*
%TO.N,Net-(J3-CC2)*%
X49958000Y-92803500D02*
X50934700Y-92803500D01*
X54040000Y-96514500D02*
X54040000Y-95908800D01*
X54040000Y-95908800D02*
X50934700Y-92803500D01*
%TO.N,Net-(U4-PH3)*%
X91559000Y-92086600D02*
X91971300Y-91674300D01*
X91971300Y-91674300D02*
X92344700Y-91674300D01*
X93261000Y-90758000D02*
X93261000Y-90110000D01*
X91559000Y-92837000D02*
X91559000Y-92086600D01*
X92344700Y-91674300D02*
X93261000Y-90758000D01*
%TO.N,Net-(R15-Pad1)*%
X125570300Y-102983900D02*
X123900100Y-104654100D01*
X128616000Y-96923000D02*
X128693100Y-97000100D01*
X121375000Y-104289000D02*
X123535000Y-104289000D01*
X123535000Y-104289000D02*
X123900100Y-104654100D01*
X128693100Y-97000100D02*
X128693100Y-98063400D01*
X128023000Y-102983900D02*
X125570300Y-102983900D01*
X123900100Y-104654100D02*
X124043000Y-104797000D01*
%TO.N,Net-(U5B--)*%
X133586000Y-106048000D02*
X131362900Y-106048000D01*
X130393000Y-105078100D02*
X130393000Y-104797000D01*
X133949000Y-105685000D02*
X133586000Y-106048000D01*
X131362900Y-106048000D02*
X130393000Y-105078100D01*
X121376000Y-101749000D02*
X127674300Y-101749000D01*
X130393000Y-104467700D02*
X130393000Y-104797000D01*
X127674300Y-101749000D02*
X130393000Y-104467700D01*
%TO.N,Net-(R16-Pad1)*%
X131663000Y-104797000D02*
X133187000Y-104797000D01*
X133949000Y-102383000D02*
X133949000Y-104035000D01*
X133187000Y-104797000D02*
X133949000Y-104035000D01*
%TO.N,Net-(R10-Pad1)*%
X135093000Y-95272000D02*
X133060000Y-95272000D01*
X133060000Y-95272000D02*
X133060000Y-98450000D01*
X133060000Y-98450000D02*
X131663000Y-99847000D01*
%TO.N,Net-(U5C--)*%
X131410000Y-95779000D02*
X131410000Y-95272000D01*
X130266000Y-96923000D02*
X131410000Y-95779000D01*
X130393000Y-99847000D02*
X130393000Y-97050000D01*
X130393000Y-97050000D02*
X130266000Y-96923000D01*
%TO.N,Net-(U5C-+)*%
X130041000Y-101107600D02*
X133574400Y-101107600D01*
X129123000Y-100189600D02*
X130041000Y-101107600D01*
X133574400Y-101107600D02*
X133949000Y-100733000D01*
X129123000Y-99847000D02*
X129123000Y-100189600D01*
X133949000Y-100733000D02*
X133949000Y-98955000D01*
%TO.N,/RF Sensors/I2C1_SCL*%
X102623600Y-112135100D02*
X102623600Y-110571900D01*
X97098100Y-90939800D02*
X93647700Y-90939800D01*
X92559000Y-92028500D02*
X92559000Y-92837000D01*
X105275000Y-114786500D02*
X105275000Y-116824100D01*
X101373301Y-116794800D02*
X101098500Y-116519999D01*
X102269500Y-110217800D02*
X102269500Y-109724625D01*
X103982000Y-116796626D02*
X103982000Y-116695026D01*
X101098500Y-116519999D02*
X101098500Y-116095000D01*
X101365800Y-109082900D02*
X101229900Y-108947000D01*
X103131426Y-116794800D02*
X101373301Y-116794800D01*
X103436226Y-116490000D02*
X103131426Y-116794800D01*
X104214774Y-117029400D02*
X103982000Y-116796626D01*
X93647700Y-90939800D02*
X92559000Y-92028500D01*
X101365800Y-109247000D02*
X101365800Y-109082900D01*
X101791874Y-109247000D02*
X101365800Y-109247000D01*
X105275000Y-116824100D02*
X105069700Y-117029400D01*
X104621500Y-114133000D02*
X102623600Y-112135100D01*
X102623600Y-110571900D02*
X102269500Y-110217800D01*
X103776974Y-116490000D02*
X103436226Y-116490000D01*
X103982000Y-116695026D02*
X103776974Y-116490000D01*
X105069700Y-117029400D02*
X104214774Y-117029400D01*
X102269500Y-109724625D02*
X101791874Y-109247000D01*
X104621500Y-114133000D02*
X105275000Y-114786500D01*
%TO.N,/RF Sensors/I2C1_SDA*%
X104073948Y-116292000D02*
X104622500Y-116292000D01*
X98411900Y-93916100D02*
X98530000Y-93798000D01*
X92059000Y-92837000D02*
X92059000Y-93578700D01*
X92396400Y-93916100D02*
X98411900Y-93916100D01*
X103912848Y-116130900D02*
X104073948Y-116292000D01*
X101634400Y-116130900D02*
X101598500Y-116095000D01*
X92059000Y-93578700D02*
X92396400Y-93916100D01*
X102690900Y-116130900D02*
X101634400Y-116130900D01*
X102690900Y-116130900D02*
X103912848Y-116130900D01*
%TO.N,Net-(J3-D--PadA7)*%
X52837000Y-91683000D02*
X52457500Y-91303500D01*
X52457500Y-91303500D02*
X49958000Y-91303500D01*
%TO.N,Net-(J3-D+-PadA6)*%
X54155900Y-90745100D02*
X54737000Y-91326200D01*
X49958000Y-90803500D02*
X50934700Y-90803500D01*
X50993100Y-90745100D02*
X54155900Y-90745100D01*
X54737000Y-91326200D02*
X54737000Y-91683000D01*
X50934700Y-90803500D02*
X50993100Y-90745100D01*
%TO.N,/RF Sensors/LORA_RST*%
X95328600Y-110305900D02*
X95328600Y-109370300D01*
X95328600Y-109370300D02*
X93059000Y-107100700D01*
X94975500Y-110659000D02*
X95328600Y-110305900D01*
X93059000Y-107100700D02*
X93059000Y-104187000D01*
%TO.N,/RF Sensors/LORA_CS*%
X87183400Y-111976400D02*
X88466000Y-113259000D01*
X91059000Y-104187000D02*
X91059000Y-105903000D01*
X87183400Y-109778600D02*
X87183400Y-111976400D01*
X91059000Y-105903000D02*
X87183400Y-109778600D01*
X88466000Y-113259000D02*
X89000500Y-113259000D01*
%TO.N,/RF Sensors/SPI1_MOSI*%
X87535100Y-110207000D02*
X87535100Y-111801700D01*
X87535100Y-111801700D02*
X88342400Y-112609000D01*
X87942900Y-109799200D02*
X87535100Y-110207000D01*
X91470300Y-108127600D02*
X90531300Y-108127600D01*
X88342400Y-112609000D02*
X89000500Y-112609000D01*
X92559000Y-104187000D02*
X92559000Y-107038900D01*
X92559000Y-107038900D02*
X91470300Y-108127600D01*
X90531300Y-108127600D02*
X89396800Y-109262100D01*
%TO.N,/RF Sensors/SPI1_SCK*%
X88799600Y-111309000D02*
X88350700Y-110860100D01*
X88494600Y-110027700D02*
X88494600Y-109384200D01*
X89000500Y-111309000D02*
X88799600Y-111309000D01*
X88350700Y-110171600D02*
X88494600Y-110027700D01*
X88494600Y-109384200D02*
X91558900Y-106319900D01*
X91558900Y-106319900D02*
X91559000Y-106319900D01*
X91559000Y-106319900D02*
X91559000Y-104187000D01*
X88350700Y-110860100D02*
X88350700Y-110171600D01*
%TO.N,/RF Sensors/LORA_DIO0*%
X94059000Y-104988600D02*
X94965900Y-105895500D01*
X94776900Y-109598800D02*
X93960700Y-109598800D01*
X94059000Y-104187000D02*
X94059000Y-104988600D01*
X94965900Y-105895500D02*
X95271500Y-105895500D01*
X93960700Y-109598800D02*
X93938000Y-109621500D01*
%TO.N,/RF Sensors/SPI1_MISO*%
X92059000Y-104187000D02*
X92059000Y-106700800D01*
X88539000Y-111959000D02*
X89000500Y-111959000D01*
X92059000Y-106700800D02*
X91426200Y-107333600D01*
X88132900Y-111552900D02*
X88539000Y-111959000D01*
%TO.N,Net-(U2-PROG)*%
X60010000Y-93720500D02*
X59840000Y-93550500D01*
X59840000Y-93550500D02*
X59840000Y-91951500D01*
%TO.N,Net-(U4-PH0)*%
X86051000Y-96762000D02*
X87634000Y-96762000D01*
X85094000Y-95805000D02*
X81368000Y-92079000D01*
X85094000Y-95805000D02*
X86051000Y-96762000D01*
X81368000Y-92079000D02*
X81323000Y-92079000D01*
%TD*%
M02*
