M48
; DRILL file {KiCad 9.0.6} date 2026-03-06T21:15:39+0300
; FORMAT={-:-/ absolute / metric / decimal}
; #@! TF.CreationDate,2026-03-06T21:15:39+03:00
; #@! TF.GenerationSoftware,Kicad,Pcbnew,9.0.6
; #@! TF.FileFunction,Plated,1,2,PTH
FMAT,2
METRIC
; #@! TA.AperFunction,Plated,PTH,ComponentDrill
T1C0.200
; #@! TA.AperFunction,Plated,PTH,ViaDrill
T2C0.300
; #@! TA.AperFunction,Plated,PTH,ComponentDrill
T3C0.600
; #@! TA.AperFunction,Plated,PTH,ComponentDrill
T4C1.000
; #@! TA.AperFunction,Plated,PTH,ComponentDrill
T5C1.500
; #@! TA.AperFunction,Plated,PTH,ComponentDrill
T6C1.700
; #@! TA.AperFunction,Plated,PTH,ComponentDrill
T7C3.200
%
G90
G05
T1
X69.093Y-91.561
X70.043Y-90.986
X70.043Y-92.136
X70.993Y-91.561
T2
X50.941Y-97.247
X53.884Y-85.533
X54.509Y-94.128
X60.639Y-91.765
X61.12Y-93.574
X72.718Y-94.273
X78.352Y-94.173
X82.048Y-90.76
X86.288Y-99.42
X87.599Y-91.303
X87.748Y-115.063
X87.943Y-109.799
X88.133Y-111.553
X88.234Y-115.669
X89.137Y-110.016
X89.397Y-109.262
X89.815Y-101.923
X90.196Y-79.182
X90.978Y-108.76
X90.978Y-116.546
X91.426Y-107.334
X92.193Y-90.956
X92.237Y-88.512
X92.351Y-84.536
X93.182Y-82.393
X93.182Y-85.363
X93.968Y-118.241
X93.968Y-119.855
X94.777Y-109.599
X95.271Y-105.895
X96.168Y-100.29
X96.168Y-105.447
X96.435Y-94.871
X96.822Y-115.095
X97.098Y-90.94
X97.492Y-118.033
X97.674Y-104.475
X98.53Y-93.798
X100.266Y-90.656
X100.38Y-95.7
X100.769Y-111.077
X101.23Y-108.947
X101.865Y-106.153
X102.419Y-90.894
X102.691Y-116.131
X108.177Y-109.694
X120.02Y-109.271
X122.126Y-96.576
X123.638Y-108.525
X124.826Y-123.973
X126.028Y-117.48
X126.075Y-108.525
X126.58Y-121.003
X127.211Y-101.056
X128.023Y-102.984
X128.693Y-98.063
X132.0Y-70.513
X132.0Y-118.033
X133.005Y-110.4
X135.452Y-97.156
T4
X99.786Y-62.063
X99.786Y-64.603
X99.786Y-67.143
X99.786Y-69.683
X99.786Y-72.223
T5
X91.226Y-129.163
T6
X88.686Y-126.623
X88.686Y-131.703
X93.766Y-126.623
X93.766Y-131.703
T7
X46.0Y-132.2
X46.05Y-61.3
X135.45Y-61.3
X135.45Y-132.2
T3
G00X45.163Y-86.733
M15
G01X44.563Y-86.733
M16
G05
G00X45.163Y-95.373
M15
G01X44.563Y-95.373
M16
G05
G00X49.593Y-86.733
M15
G01X48.493Y-86.733
M16
G05
G00X49.593Y-95.373
M15
G01X48.493Y-95.373
M16
G05
M30
